{
.appVersion = "3260";
DisplayStrings = (
"\012",
"/A_E/A_O/A_U_L_A/C_H_E/C_Q_U_E/D_E/D_U_D_E_L_A/E_A/E_S_S_E/E_T_T_E/E_U/E_U_R_I_C_E/Eacute_E/F_E_H_O/F_F_E/F_V_E/G_U_E/I_E/I_E_L/L_E/L_L_E/L_U/M_P/N_E/N_N_E/O_Idieresis_N/O_T_E/P_M/P_E/R_E/R_S_E/S_C_E/S_E/S_L_E/S_S_E/S_T_E/T_E/T_T_E/U_E/U_L_L_E/U_X_L_E_S/X_L_L_E_S/X_S_E/a_e/a_o/a_u_l_a/c_h_e s/c_q_u_e/d_u_d_e_l_a/e_a/e_s_s_e/e_t_t_e/e_u/eacute_e/f_e_h_o/f_f_e/f_v_e/g_u_e/i_e/i_e_l/l_e/l_l_e/l_u/n_e/n_n_e/o_t_e/p_e/m_p/r_e/r_s_e/s_c_e/s_e/s_s_e/s_t_e/t_e/t_t_e/u_e/u_l_l_e/x_c_e/l_l_e/l_l_e/x_l_l_e_s/space \012\012\012amoureu/x_s_e s",
"les/space aut/e_u_r_i_c_e s/space de/space ce/space livre/space sont/space sûrment/space en/space train/space de/space bronzer",
"Mari·el/space \012fini·e/space de/space jacasser\012les/space auteur·ices\012celle·ux/space u·e/space eau·e\012perdu..es/space dans/space la/space forêt\012IELS/space étaient/space totalement/space PERDU·ES"
);
classes = (
{
code = "";
name = xxxx;
},
{
code = "";
name = xxxx;
},
{
code = "";
name = xxxx;
},
{
code = "";
name = xxxx;
},
{
code = "";
name = xxxx;
},
{
automatic = 1;
code = "A Aacute Acircumflex Adieresis Agrave Atilde B C Ccedilla D E Eacute Ecircumflex Edieresis Egrave F G H I Iacute Icircumflex Idieresis Igrave J K L M N Ntilde O Oacute Ocircumflex Odieresis Ograve Otilde OE P Q R S T U Uacute Ucircumflex Udieresis Ugrave V W X Y Yacute Ydieresis Ygrave Z AE Aring Oslash Q.002 A_U_L_A C_H_E C_Q_U_E C_h D_U_D_E_L_A E_A E_S_S_E E_T_T_E E_U E_U_R_I_C_E E_U_X F_E_H_O F_F_E F_U F_V_E G_U_E I_e_l L_U O_Idieresis_N O_T_E OE_U P_E P_M R_S_E R_Y S_C_E S_L_E S_S_E S_T_E T_T_E U_L_L_E U_X_L_E_S U_n U_p W_h X_C_E X_L_L_E_S";
name = Uppercase;
}
);
copyright = "Copyright © 2021, Mariel Nils <nilsmarielle@gmail.com>, Velvetyne Type Foundry";
customParameters = (
{
disabled = 1;
name = glyphOrder;
value = (
.notdef,
space,
A,
Aacute,
Acircumflex,
Adieresis,
Agrave,
Atilde,
B,
C,
Ccedilla,
D,
E,
Eacute,
Ecircumflex,
Edieresis,
Egrave,
Emacron,
F,
G,
H,
I,

glyphs = (
{
glyphname = A;
lastChange = "2024-08-21 15:06:35 +0000";
layers = (
{
layerId = "A0EF8C6F-60C0-4D2A-A4F7-7A1091FA18C1";
paths = (
{
closed = 1;
nodes = (
"449 626 OFFCURVE",
"483 652 OFFCURVE",
"536 645 CURVE SMOOTH",
"606 637 OFFCURVE",
"611 554 OFFCURVE",
"543 554 CURVE SMOOTH",
"513 554 OFFCURVE",
"498 578 OFFCURVE",
"485 561 CURVE SMOOTH",
"467 539 OFFCURVE",
"519 507 OFFCURVE",
"523 471 CURVE SMOOTH",
"525 452 OFFCURVE",
"516 445 OFFCURVE",
"515 429 CURVE SMOOTH",
"514 414 OFFCURVE",
"524 400 OFFCURVE",
"524 379 CURVE SMOOTH",
"524 352 OFFCURVE",
"504 343 OFFCURVE",
"505 314 CURVE SMOOTH",
"506 284 OFFCURVE",
"535 251 OFFCURVE",
"537 217 CURVE SMOOTH",
"540 167 OFFCURVE",
"515 110 OFFCURVE",
"531 87 CURVE SMOOTH",
"545 67 OFFCURVE",
"568 92 OFFCURVE",
"592 87 CURVE SMOOTH",
"627 80 OFFCURVE",
"633 24 OFFCURVE",
"595 12 CURVE SMOOTH",
"565 3 OFFCURVE",
"537 8 OFFCURVE",
"502 -4 CURVE SMOOTH",
"467 -16 OFFCURVE",
"446 -44 OFFCURVE",
"399 -37 CURVE SMOOTH",
"361 -31 OFFCURVE",
"355 14 OFFCURVE",
"381 38 CURVE SMOOTH",
"396 53 OFFCURVE",
"420 40 OFFCURVE",
"441 54 CURVE SMOOTH",
"466 72 OFFCURVE",
"459 178 OFFCURVE",
"427 190 CURVE SMOOTH",
"400 201 OFFCURVE",
"383 183 OFFCURVE",
"359 186 CURVE SMOOTH",
"336 191 OFFCURVE",
"317 224 OFFCURVE",
"292 220 CURVE SMOOTH",
"260 217 OFFCURVE",
"274 178 OFFCURVE",
"259 154 CURVE SMOOTH",
"243 130 OFFCURVE",
"201 123 OFFCURVE",
"222 89 CURVE SMOOTH",
"234 68 OFFCURVE",
"278 102 OFFCURVE",
"301 95 CURVE SMOOTH",
"335 84 OFFCURVE",
"343 36 OFFCURVE",
"310 21 CURVE SMOOTH",
"292 12 OFFCURVE",
"281 24 OFFCURVE",
"265 22 CURVE SMOOTH",
"240 19 OFFCURVE",
"229 -10 OFFCURVE",
"197 -11 CURVE SMOOTH",
"160 -13 OFFCURVE",
"158 4 OFFCURVE",
"133 8 CURVE SMOOTH",
"106 12 OFFCURVE",
"90 -10 OFFCURVE",
"58 0 CURVE SMOOTH",
"24 11 OFFCURVE",
"13 83 OFFCURVE",
"68 93 CURVE SMOOTH",
"100 99 OFFCURVE",
"106 75 OFFCURVE",
"141 101 CURVE SMOOTH",
"173 124 OFFCURVE",
"156 186 OFFCURVE",
"172 223 CURVE SMOOTH",
"187 257 OFFCURVE",
"230 276 OFFCURVE",
"242 308 CURVE SMOOTH",
"256 345 OFFCURVE",
"248 400 OFFCURVE",
"264 441 CURVE SMOOTH",
"280 490 OFFCURVE",
"366 507 OFFCURVE",
"362 542 CURVE SMOOTH",
"358 581 OFFCURVE",
"310 565 OFFCURVE",
"283 582 CURVE SMOOTH",
"243 607 OFFCURVE",
"242 677 OFFCURVE",
"313 667 CURVE SMOOTH",
"362 660 OFFCURVE",
"367 632 OFFCURVE",
"410 629 CURVE SMOOTH"
);
},
{
closed = 1;
nodes = (
"397 529 OFFCURVE",
"399 471 OFFCURVE",
"388 436 CURVE SMOOTH",
"375 400 OFFCURVE",
"293 335 OFFCURVE",
"319 295 CURVE SMOOTH",
"335 271 OFFCURVE",
"352 295 OFFCURVE",
"376 290 CURVE SMOOTH",
"394 286 OFFCURVE",
"424 255 OFFCURVE",
"437 282 CURVE SMOOTH",
"451 305 OFFCURVE",
"412 348 OFFCURVE",
"414 382 CURVE SMOOTH",
"415 436 OFFCURVE",
"464 507 OFFCURVE",
"427 518 CURVE SMOOTH"
);
}
);
width = 657;
}
);
leftKerningGroup = A;
rightKerningGroup = A;
unicode = 0041;
},
{
color = 4;
glyphname = Aacute;
lastChange = "2021-12-21 18:19:39 +0000";
layers = (
{
components = (
{
name = A;
}
);
layerId = "A0EF8C6F-60C0-4D2A-A4F7-7A1091FA18C1";
paths = (
{
closed = 1;
nodes = (
"389 664 OFFCURVE",
"381 681 OFFCURVE",
"386 692 CURVE SMOOTH",
"395 711 OFFCURVE",
"430 717 OFFCURVE",
"457 736 CURVE SMOOTH",
"492 760 OFFCURVE",
"494 797 OFFCURVE",
"530 799 CURVE SMOOTH",
"564 801 OFFCURVE",
"579 752 OFFCURVE",
"549 716 CURVE SMOOTH",
"518 679 OFFCURVE",
"454 657 OFFCURVE",
"408 662 CURVE SMOOTH"
);
}
);
width = 657;
}
);
leftKerningGroup = A;
rightKerningGroup = A;
unicode = 00C1;
},
{
color = 4;
glyphname = Acircumflex;
lastChange = "2021-10-14 13:17:15 +0000";
layers = (
{
components = (
{
name = A;
}
);
layerId = "A0EF8C6F-60C0-4D2A-A4F7-7A1091FA18C1";
paths = (
{
closed = 1;
nodes = (
"355 673 OFFCURVE",
"406 635 OFFCURVE",
"444 659 CURVE SMOOTH",
"474 678 OFFCURVE",
"486 718 OFFCURVE",
"515 718 CURVE SMOOTH",
"541 718 OFFCURVE",
"547 687 OFFCURVE",
"564 666 CURVE SMOOTH",
"599 622 OFFCURVE",
"658 678 OFFCURVE",
"624 718 CURVE SMOOTH",
"605 740 OFFCURVE",
"589 736 OFFCURVE",
"574 758 CURVE SMOOTH",
"562 775 OFFCURVE",
"557 807 OFFCURVE",
"524 804 CURVE SMOOTH",
"491 801 OFFCURVE",
"479 763 OFFCURVE",
"463 751 CURVE SMOOTH",
"444 737 OFFCURVE",
"411 731 OFFCURVE",
"390 709 CURVE SMOOTH"
);
}
);
width = 656;
}
);
leftKerningGroup = A;
rightKerningGroup = A;
unicode = 00C2;
},
{
color = 4;
glyphname = Adieresis;
lastChange = "2021-11-10 09:11:07 +0000";
layers = (
{
components = (
{
name = A;
}
);
layerId = "A0EF8C6F-60C0-4D2A-A4F7-7A1091FA18C1";
paths = (
{
closed = 1;
nodes = (
"433 652 OFFCURVE",
"467 669 OFFCURVE",
"481 696 CURVE SMOOTH",
"496 726 OFFCURVE",
"488 772 OFFCURVE",
"455 781 CURVE SMOOTH",
"421 790 OFFCURVE",
"391 772 OFFCURVE",
"378 741 CURVE SMOOTH",
"366 713 OFFCURVE",
"370 677 OFFCURVE",
"398 666 CURVE SMOOTH"
);
},
{
closed = 1;
nodes = (
"528 675 OFFCURVE",
"568 664 OFFCURVE",
"594 677 CURVE SMOOTH",
"620 690 OFFCURVE",
"625 724 OFFCURVE",
"615 751 CURVE SMOOTH",
"604 780 OFFCURVE",
"574 795 OFFCURVE",
"544 782 CURVE SMOOTH",
"514 769 OFFCURVE",
"506 733 OFFCURVE",
"517 704 CURVE SMOOTH"
);
}
);
width = 656;
}
);
leftKerningGroup = A;
rightKerningGroup = A;
unicode = 00C4;
},
{
color = 4;
glyphname = Agrave;
lastChange = "2021-11-01 19:44:11 +0000";
layers = (
{
layerId = "A0EF8C6F-60C0-4D2A-A4F7-7A1091FA18C1";
paths = (
{
closed = 1;
nodes = (
"405 656 OFFCURVE",
"341 678 OFFCURVE",
"310 715 CURVE SMOOTH",
"280 751 OFFCURVE",
"295 800 OFFCURVE",
"329 798 CURVE SMOOTH",
"365 796 OFFCURVE",
"367 759 OFFCURVE",
"402 735 CURVE SMOOTH",
"429 716 OFFCURVE",
"464 710 OFFCURVE",
"473 691 CURVE SMOOTH",
"478 680 OFFCURVE",
"470 663 OFFCURVE",
"451 661 CURVE SMOOTH"
);
},
{
closed = 1;
nodes = (
"449 626 OFFCURVE",
"483 652 OFFCURVE",
"536 645 CURVE SMOOTH",
"606 637 OFFCURVE",
"611 549 OFFCURVE",
"543 554 CURVE SMOOTH",
"513 556 OFFCURVE",
"501 570 OFFCURVE",
"485 556 CURVE SMOOTH",
"469 542 OFFCURVE",
"515 514 OFFCURVE",
"520 471 CURVE SMOOTH",
"522 452 OFFCURVE",
"513 445 OFFCURVE",
"512 429 CURVE SMOOTH",
"511 414 OFFCURVE",
"521 400 OFFCURVE",
"521 379 CURVE SMOOTH",
"521 352 OFFCURVE",
"501 343 OFFCURVE",
"502 314 CURVE SMOOTH",
"503 284 OFFCURVE",
"532 251 OFFCURVE",
"534 217 CURVE SMOOTH",
"537 167 OFFCURVE",
"515 110 OFFCURVE",
"531 87 CURVE SMOOTH",
"545 67 OFFCURVE",
"568 78 OFFCURVE",
"592 73 CURVE SMOOTH",
"627 66 OFFCURVE",
"633 10 OFFCURVE",
"595 -2 CURVE SMOOTH",
"565 -11 OFFCURVE",
"561 3 OFFCURVE",
"519 -3 CURVE SMOOTH",
"481 -8 OFFCURVE",
"446 -44 OFFCURVE",
"399 -37 CURVE SMOOTH",
"361 -31 OFFCURVE",
"355 14 OFFCURVE",
"381 38 CURVE SMOOTH",
"396 53 OFFCURVE",
"420 40 OFFCURVE",
"441 54 CURVE SMOOTH",
"466 72 OFFCURVE",
"459 178 OFFCURVE",
"427 190 CURVE SMOOTH",
"400 201 OFFCURVE",
"383 183 OFFCURVE",
"359 186 CURVE SMOOTH",
"336 191 OFFCURVE",
"317 224 OFFCURVE",
"292 220 CURVE SMOOTH",
"260 217 OFFCURVE",
"274 178 OFFCURVE",
"259 154 CURVE SMOOTH",
"243 130 OFFCURVE",
"201 123 OFFCURVE",
"222 89 CURVE SMOOTH",
"234 68 OFFCURVE",
"278 102 OFFCURVE",
"301 95 CURVE SMOOTH",
"335 84 OFFCURVE",
"343 36 OFFCURVE",
"310 21 CURVE SMOOTH",
"292 12 OFFCURVE",
"281 24 OFFCURVE",
"265 22 CURVE SMOOTH",
"240 19 OFFCURVE",
"229 -10 OFFCURVE",
"197 -11 CURVE SMOOTH",
"160 -13 OFFCURVE",
"158 4 OFFCURVE",
"133 8 CURVE SMOOTH",
"106 12 OFFCURVE",
"90 -10 OFFCURVE",
"58 0 CURVE SMOOTH",
"24 11 OFFCURVE",
"13 83 OFFCURVE",
"68 93 CURVE SMOOTH",
"100 99 OFFCURVE",
"106 75 OFFCURVE",
"141 101 CURVE SMOOTH",
"173 124 OFFCURVE",
"156 186 OFFCURVE",
"172 223 CURVE SMOOTH",
"187 257 OFFCURVE",
"230 276 OFFCURVE",
"242 308 CURVE SMOOTH",
"256 345 OFFCURVE",
"248 400 OFFCURVE",
"264 441 CURVE SMOOTH",
"280 490 OFFCURVE",
"366 507 OFFCURVE",
"362 542 CURVE SMOOTH",
"358 581 OFFCURVE",
"310 565 OFFCURVE",
"283 582 CURVE SMOOTH",
"243 607 OFFCURVE",
"242 677 OFFCURVE",
"313 667 CURVE SMOOTH",
"362 660 OFFCURVE",
"367 632 OFFCURVE",
"410 629 CURVE SMOOTH"
);
},
{
closed = 1;
nodes = (
"397 529 OFFCURVE",
"399 471 OFFCURVE",
"388 436 CURVE SMOOTH",
"375 400 OFFCURVE",
"293 335 OFFCURVE",
"319 295 CURVE SMOOTH",
"335 271 OFFCURVE",
"352 295 OFFCURVE",
"376 290 CURVE SMOOTH",
"394 286 OFFCURVE",
"424 255 OFFCURVE",
"437 282 CURVE SMOOTH",
"451 305 OFFCURVE",
"412 348 OFFCURVE",
"414 382 CURVE SMOOTH",
"415 436 OFFCURVE",
"464 507 OFFCURVE",
"427 518 CURVE SMOOTH"
);
}
);
width = 656;
}
);
leftKerningGroup = A;
rightKerningGroup = A;
unicode = 00C0;
},
{
glyphname = AE;
lastChange = "2022-01-25 22:24:32 +0000";
layers = (
{
background = {
paths = (
{
closed = 1;
nodes = (
"326 648 OFFCURVE",
"342 615 OFFCURVE",
"381 611 CURVE SMOOTH",
"420 607 OFFCURVE",
"440 638 OFFCURVE",
"477 643 CURVE SMOOTH",
"513 648 OFFCURVE",
"533 628 OFFCURVE",
"565 633 CURVE SMOOTH",
"604 639 OFFCURVE",
"619 667 OFFCURVE",
"664 664 CURVE SMOOTH",
"716 660 OFFCURVE",
"752 615 OFFCURVE",
"751 558 CURVE SMOOTH",
"750 494 OFFCURVE",
"694 476 OFFCURVE",
"667 501 CURVE SMOOTH",
"643 524 OFFCURVE",
"664 561 OFFCURVE",
"630 579 CURVE SMOOTH",
"601 594 OFFCURVE",
"533 594 OFFCURVE",
"527 547 CURVE SMOOTH",
"521 504 OFFCURVE",
"558 505 OFFCURVE",
"560 476 CURVE SMOOTH",
"562 449 OFFCURVE",
"535 443 OFFCURVE",
"529 420 CURVE SMOOTH",
"523 397 OFFCURVE",
"545 383 OFFCURVE",
"565 387 CURVE SMOOTH",
"585 391 OFFCURVE",
"612 419 OFFCURVE",
"639 415 CURVE SMOOTH",
"694 407 OFFCURVE",
"690 321 OFFCURVE",
"639 310 CURVE SMOOTH",
"601 302 OFFCURVE",
"582 327 OFFCURVE",
"555 331 CURVE SMOOTH",
"526 335 OFFCURVE",
"508 319 OFFCURVE",
"508 297 CURVE SMOOTH",
"508 272 OFFCURVE",
"528 252 OFFCURVE",
"526 226 CURVE SMOOTH",
"523 191 OFFCURVE",
"492 185 OFFCURVE",
"492 144 CURVE SMOOTH",
"492 59 OFFCURVE",
"656 59 OFFCURVE",
"654 137 CURVE SMOOTH",
"653 180 OFFCURVE",
"624 184 OFFCURVE",
"624 215 CURVE SMOOTH",
"624 263 OFFCURVE",
"697 283 OFFCURVE",
"719 236 CURVE SMOOTH",
"731 211 OFFCURVE",
"710 180 OFFCURVE",
"713 152 CURVE SMOOTH",
"716 126 OFFCURVE",
"730 112 OFFCURVE",
"734 86 CURVE SMOOTH",
"739 56 OFFCURVE",
"723 26 OFFCURVE",
"690 22 CURVE SMOOTH",
"660 18 OFFCURVE",
"646 36 OFFCURVE",
"609 31 CURVE SMOOTH",
"582 27 OFFCURVE",
"577 2 OFFCURVE",
"557 -12 CURVE SMOOTH",
"528 -32 OFFCURVE",
"484 -20 OFFCURVE",
"471 7 CURVE SMOOTH",
"458 34 OFFCURVE",
"463 58 OFFCURVE",
"455 74 CURVE SMOOTH",
"444 96 OFFCURVE",
"403 102 OFFCURVE",
"398 139 CURVE SMOOTH",
"393 176 OFFCURVE",
"430 194 OFFCURVE",
"432 228 CURVE SMOOTH",
"434 258 OFFCURVE",
"411 274 OFFCURVE",
"390 271 CURVE SMOOTH",
"369 268 OFFCURVE",
"355 246 OFFCURVE",
"335 242 CURVE SMOOTH",
"315 238 OFFCURVE",
"306 250 OFFCURVE",
"288 249 CURVE SMOOTH",
"267 248 OFFCURVE",
"259 229 OFFCURVE",
"264 204 CURVE SMOOTH",
"267 188 OFFCURVE",
"280 168 OFFCURVE",
"275 147 CURVE SMOOTH",
"269 124 OFFCURVE",
"235 119 OFFCURVE",
"216 100 CURVE SMOOTH",
"196 81 OFFCURVE",
"203 41 OFFCURVE",
"155 16 CURVE SMOOTH",
"104 -10 OFFCURVE",
"25 10 OFFCURVE",
"16 66 CURVE SMOOTH",
"10 102 OFFCURVE",
"32 139 OFFCURVE",
"63 137 CURVE SMOOTH",
"86 136 OFFCURVE",
"94 110 OFFCURVE",
"118 109 CURVE SMOOTH",
"144 107 OFFCURVE",
"175 135 OFFCURVE",
"181 173 CURVE SMOOTH",
"187 211 OFFCURVE",
"167 236 OFFCURVE",
"196 278 CURVE SMOOTH",
"225 320 OFFCURVE",
"258 321 OFFCURVE",
"277 360 CURVE SMOOTH",
"296 399 OFFCURVE",
"280 438 OFFCURVE",
"294 466 CURVE SMOOTH",
"308 494 OFFCURVE",
"327 487 OFFCURVE",
"341 512 CURVE SMOOTH",
"352 532 OFFCURVE",
"342 551 OFFCURVE",
"321 554 CURVE SMOOTH",
"300 557 OFFCURVE",
"288 547 OFFCURVE",
"259 556 CURVE SMOOTH",
"194 576 OFFCURVE",
"210 672 OFFCURVE",
"287 656 CURVE SMOOTH"
);
},
{
closed = 1;
nodes = (
"411 536 OFFCURVE",
"393 504 OFFCURVE",
"387 481 CURVE SMOOTH",
"382 461 OFFCURVE",
"391 436 OFFCURVE",
"380 414 CURVE SMOOTH",
"370 394 OFFCURVE",
"328 382 OFFCURVE",
"333 354 CURVE SMOOTH",
"340 316 OFFCURVE",
"394 311 OFFCURVE",
"415 329 CURVE SMOOTH",
"434 345 OFFCURVE",
"425 373 OFFCURVE",
"434 394 CURVE SMOOTH",
"445 419 OFFCURVE",
"466 423 OFFCURVE",
"474 454 CURVE SMOOTH",
"481 481 OFFCURVE",
"473 525 OFFCURVE",
"444 530 CURVE SMOOTH"
);
}
);
};
layerId = "A0EF8C6F-60C0-4D2A-A4F7-7A1091FA18C1";
paths = (
{
closed = 1;
nodes = (
"324 645 OFFCURVE",
"341 610 OFFCURVE",
"381 606 CURVE SMOOTH",
"421 602 OFFCURVE",
"442 634 OFFCURVE",
"480 639 CURVE SMOOTH",
"517 644 OFFCURVE",
"542 624 OFFCURVE",
"575 629 CURVE SMOOTH",
"615 635 OFFCURVE",
"631 664 OFFCURVE",
"677 661 CURVE SMOOTH",
"731 657 OFFCURVE",
"768 610 OFFCURVE",
"767 552 CURVE SMOOTH",
"766 486 OFFCURVE",
"708 467 OFFCURVE",
"680 493 CURVE SMOOTH",
"655 517 OFFCURVE",
"677 554 OFFCURVE",
"642 573 CURVE SMOOTH",
"612 589 OFFCURVE",
"540 589 OFFCURVE",
"536 540 CURVE SMOOTH",
"532 496 OFFCURVE",
"568 497 OFFCURVE",
"570 467 CURVE SMOOTH",
"572 440 OFFCURVE",
"544 434 OFFCURVE",
"538 410 CURVE SMOOTH",
"532 386 OFFCURVE",
"555 372 OFFCURVE",
"575 376 CURVE SMOOTH",
"596 380 OFFCURVE",
"624 409 OFFCURVE",
"651 405 CURVE SMOOTH",
"708 397 OFFCURVE",
"704 308 OFFCURVE",
"651 297 CURVE SMOOTH",
"612 289 OFFCURVE",
"593 314 OFFCURVE",
"565 318 CURVE SMOOTH",
"535 322 OFFCURVE",
"517 306 OFFCURVE",
"517 283 CURVE SMOOTH",
"517 258 OFFCURVE",
"537 237 OFFCURVE",
"535 210 CURVE SMOOTH",
"532 174 OFFCURVE",
"500 168 OFFCURVE",
"500 126 CURVE SMOOTH",
"500 39 OFFCURVE",
"662 39 OFFCURVE",
"660 119 CURVE SMOOTH",
"659 163 OFFCURVE",
"629 167 OFFCURVE",
"629 199 CURVE SMOOTH",
"629 255 OFFCURVE",
"710 273 OFFCURVE",
"734 221 CURVE SMOOTH",
"746 195 OFFCURVE",
"724 163 OFFCURVE",
"727 134 CURVE SMOOTH",
"730 108 OFFCURVE",
"745 93 OFFCURVE",
"749 66 CURVE SMOOTH",
"753 36 OFFCURVE",
"738 5 OFFCURVE",
"704 1 CURVE SMOOTH",
"673 -3 OFFCURVE",
"659 15 OFFCURVE",
"621 10 CURVE SMOOTH",
"593 6 OFFCURVE",
"588 -20 OFFCURVE",
"567 -34 CURVE SMOOTH",
"537 -54 OFFCURVE",
"487 -43 OFFCURVE",
"473 -15 CURVE SMOOTH",
"459 13 OFFCURVE",
"465 38 OFFCURVE",
"457 54 CURVE SMOOTH",
"446 77 OFFCURVE",
"404 83 OFFCURVE",
"398 121 CURVE SMOOTH",
"392 159 OFFCURVE",
"440 177 OFFCURVE",
"433 212 CURVE SMOOTH",
"427 243 OFFCURVE",
"385 248 OFFCURVE",
"351 248 CURVE SMOOTH",
"301 248 OFFCURVE",
"250 233 OFFCURVE",
"261 188 CURVE SMOOTH",
"265 171 OFFCURVE",
"277 151 OFFCURVE",
"272 129 CURVE SMOOTH",
"267 105 OFFCURVE",
"231 100 OFFCURVE",
"211 81 CURVE SMOOTH",
"190 61 OFFCURVE",
"198 20 OFFCURVE",
"149 -6 CURVE SMOOTH",
"97 -34 OFFCURVE",
"15 -12 OFFCURVE",
"6 46 CURVE SMOOTH",
"0 83 OFFCURVE",
"22 120 OFFCURVE",
"54 119 CURVE SMOOTH",
"78 118 OFFCURVE",
"86 91 OFFCURVE",
"110 90 CURVE SMOOTH",
"137 89 OFFCURVE",
"160 117 OFFCURVE",
"166 156 CURVE SMOOTH",
"172 195 OFFCURVE",
"159 241 OFFCURVE",
"181 274 CURVE SMOOTH",
"210 318 OFFCURVE",
"250 308 OFFCURVE",
"270 348 CURVE SMOOTH",
"290 388 OFFCURVE",
"271 428 OFFCURVE",
"285 457 CURVE SMOOTH",
"299 486 OFFCURVE",
"325 479 OFFCURVE",
"340 504 CURVE SMOOTH",
"352 524 OFFCURVE",
"341 545 OFFCURVE",
"319 548 CURVE SMOOTH",
"298 551 OFFCURVE",
"285 540 OFFCURVE",
"255 550 CURVE SMOOTH",
"190 572 OFFCURVE",
"205 669 OFFCURVE",
"284 653 CURVE SMOOTH"
);
},
{
closed = 1;
nodes = (
"412 529 OFFCURVE",
"393 496 OFFCURVE",
"387 473 CURVE SMOOTH",
"382 452 OFFCURVE",
"391 426 OFFCURVE",
"380 404 CURVE SMOOTH",
"370 383 OFFCURVE",
"326 371 OFFCURVE",
"332 342 CURVE SMOOTH",
"340 303 OFFCURVE",
"394 298 OFFCURVE",
"416 316 CURVE SMOOTH",
"436 332 OFFCURVE",
"426 362 OFFCURVE",
"435 383 CURVE SMOOTH",
"446 409 OFFCURVE",
"468 413 OFFCURVE",
"477 445 CURVE SMOOTH",
"485 473 OFFCURVE",
"476 518 OFFCURVE",
"446 523 CURVE SMOOTH"
);
}
);
width = 761;
}
);
leftKerningGroup = AE;
rightKerningGroup = AE;
unicode = 00C6;
},
{
glyphname = B;
lastChange = "2024-08-23 13:23:09 +0000";
layers = (
{
layerId = "A0EF8C6F-60C0-4D2A-A4F7-7A1091FA18C1";
paths = (
{
closed = 1;
nodes = (
"239 529 OFFCURVE",
"261 603 OFFCURVE",
"325 604 CURVE SMOOTH",
"373 605 OFFCURVE",
"380 577 OFFCURVE",
"411 569 CURVE SMOOTH",
"442 561 OFFCURVE",
"482 571 OFFCURVE",
"503 542 CURVE SMOOTH",
"523 514 OFFCURVE",
"529 452 OFFCURVE",
"491 419 CURVE SMOOTH",
"458 390 OFFCURVE",
"446 422 OFFCURVE",
"413 422 CURVE SMOOTH",
"388 422 OFFCURVE",
"366 402 OFFCURVE",
"366 374 CURVE SMOOTH",
"366 348 OFFCURVE",
"386 329 OFFCURVE",
"407 329 CURVE SMOOTH",
"430 329 OFFCURVE",
"442 344 OFFCURVE",
"466 344 CURVE SMOOTH",
"487 344 OFFCURVE",
"499 321 OFFCURVE",
"499 300 CURVE SMOOTH",
"499 278 OFFCURVE",
"483 250 OFFCURVE",
"492 226 CURVE SMOOTH",
"508 184 OFFCURVE",
"558 184 OFFCURVE",
"558 119 CURVE SMOOTH",
"558 76 OFFCURVE",
"531 27 OFFCURVE",
"483 27 CURVE SMOOTH",
"441 27 OFFCURVE",
"414 93 OFFCURVE",
"380 105 CURVE SMOOTH",
"354 114 OFFCURVE",
"327 102 OFFCURVE",
"304 102 CURVE SMOOTH",
"278 102 OFFCURVE",
"263 117 OFFCURVE",
"263 134 CURVE SMOOTH",
"263 160 OFFCURVE",
"301 177 OFFCURVE",
"301 209 CURVE SMOOTH",
"301 236 OFFCURVE",
"277 253 OFFCURVE",
"277 281 CURVE SMOOTH",
"277 315 OFFCURVE",
"331 341 OFFCURVE",
"331 376 CURVE SMOOTH",
"331 400 OFFCURVE",
"323 415 OFFCURVE",
"323 431 CURVE SMOOTH",
"323 473 OFFCURVE",
"376 476 OFFCURVE",
"376 515 CURVE SMOOTH",
"376 540 OFFCURVE",
"349 554 OFFCURVE",
"322 554 CURVE SMOOTH",
"281 554 OFFCURVE",
"247 521 OFFCURVE",
"247 482 CURVE SMOOTH",
"247 461 OFFCURVE",
"258 443 OFFCURVE",
"258 422 CURVE SMOOTH",
"258 367 OFFCURVE",
"183 369 OFFCURVE",
"183 301 CURVE SMOOTH",
"183 257 OFFCURVE",
"208 196 OFFCURVE",
"208 150 CURVE SMOOTH",
"208 125 OFFCURVE",
"200 105 OFFCURVE",
"177 95 CURVE SMOOTH",
"136 78 OFFCURVE",
"121 122 OFFCURVE",
"76 114 CURVE SMOOTH",
"46 109 OFFCURVE",
"31 78 OFFCURVE",
"31 49 CURVE SMOOTH",
"31 23 OFFCURVE",
"43 -1 OFFCURVE",
"68 -1 CURVE SMOOTH",
"98 -1 OFFCURVE",
"112 16 OFFCURVE",
"130 16 CURVE SMOOTH",
"149 16 OFFCURVE",
"163 -9 OFFCURVE",
"184 -9 CURVE SMOOTH",
"220 -9 OFFCURVE",
"224 50 OFFCURVE",
"255 50 CURVE SMOOTH",
"311 50 OFFCURVE",
"343 -58 OFFCURVE",
"427 -58 CURVE SMOOTH",
"479 -58 OFFCURVE",
"497 -21 OFFCURVE",
"531 -8 CURVE SMOOTH",
"564 5 OFFCURVE",
"611 -5 OFFCURVE",
"625 28 CURVE SMOOTH",
"637 56 OFFCURVE",
"617 95 OFFCURVE",
"617 131 CURVE SMOOTH",
"617 167 OFFCURVE",
"635 191 OFFCURVE",
"635 226 CURVE SMOOTH",
"635 307 OFFCURVE",
"527 298 OFFCURVE",
"527 369 CURVE SMOOTH",
"527 411 OFFCURVE",
"601 426 OFFCURVE",
"601 496 CURVE SMOOTH",
"601 547 OFFCURVE",
"559 558 OFFCURVE",
"547 586 CURVE SMOOTH",
"536 612 OFFCURVE",
"543 643 OFFCURVE",
"503 664 CURVE SMOOTH",
"463 685 OFFCURVE",
"422 646 OFFCURVE",
"384 649 CURVE SMOOTH",
"350 652 OFFCURVE",
"341 697 OFFCURVE",
"297 691 CURVE SMOOTH",
"250 685 OFFCURVE",
"239 635 OFFCURVE",
"218 618 CURVE SMOOTH",
"194 598 OFFCURVE",
"136 622 OFFCURVE",
"114 572 CURVE SMOOTH",
"83 503 OFFCURVE",
"153 458 OFFCURVE",
"211 506 CURVE SMOOTH"
);
}
);
width = 669;
}
);
unicode = 0042;
},
{
glyphname = C;
lastChange = "2024-08-21 14:42:48 +0000";
layers = (
{
layerId = "A0EF8C6F-60C0-4D2A-A4F7-7A1091FA18C1";
paths = (
{
closed = 1;
nodes = (
"440 541 OFFCURVE",
"414 528 OFFCURVE",
"384 538 CURVE SMOOTH",
"357 547 OFFCURVE",
"332 571 OFFCURVE",
"285 540 CURVE SMOOTH",
"238 509 OFFCURVE",
"244 454 OFFCURVE",
"213 420 CURVE SMOOTH",
"194 397 OFFCURVE",
"123 389 OFFCURVE",
"122 345 CURVE SMOOTH",
"120 304 OFFCURVE",
"159 288 OFFCURVE",
"163 249 CURVE SMOOTH",
"168 210 OFFCURVE",
"135 175 OFFCURVE",
"159 137 CURVE SMOOTH",
"174 112 OFFCURVE",
"215 119 OFFCURVE",
"257 99 CURVE SMOOTH",
"298 79 OFFCURVE",
"313 46 OFFCURVE",
"370 58 CURVE SMOOTH",
"413 67 OFFCURVE",
"406 118 OFFCURVE",
"442 157 CURVE SMOOTH",
"495 213 OFFCURVE",
"561 162 OFFCURVE",
"535 96 CURVE SMOOTH",
"522 63 OFFCURVE",
"496 63 OFFCURVE",
"480 41 CURVE SMOOTH",
"463 17 OFFCURVE",
"457 -23 OFFCURVE",
"424 -31 CURVE SMOOTH",
"388 -40 OFFCURVE",
"360 -14 OFFCURVE",
"325 -10 CURVE SMOOTH",
"290 -6 OFFCURVE",
"232 -20 OFFCURVE",
"187 0 CURVE SMOOTH",
"141 21 OFFCURVE",
"134 61 OFFCURVE",
"113 88 CURVE SMOOTH",
"87 123 OFFCURVE",
"61 134 OFFCURVE",
"48 176 CURVE SMOOTH",
"40 203 OFFCURVE",
"56 232 OFFCURVE",
"53 260 CURVE SMOOTH",
"50 292 OFFCURVE",
"36 310 OFFCURVE",
"43 346 CURVE SMOOTH",
"52 400 OFFCURVE",
"96 415 OFFCURVE",
"124 462 CURVE SMOOTH",
"155 511 OFFCURVE",
"146 568 OFFCURVE",
"182 589 CURVE SMOOTH",
"222 613 OFFCURVE",
"273 595 OFFCURVE",
"306 605 CURVE SMOOTH",
"342 616 OFFCURVE",
"369 664 OFFCURVE",
"415 651 CURVE SMOOTH",
"472 635 OFFCURVE",
"470 576 OFFCURVE",
"508 564 CURVE SMOOTH",
"541 553 OFFCURVE",
"567 600 OFFCURVE",
"599 612 CURVE SMOOTH",
"626 623 OFFCURVE",
"673 611 OFFCURVE",
"661 568 CURVE SMOOTH",
"653 540 OFFCURVE",
"629 538 OFFCURVE",
"612 523 CURVE SMOOTH",
"599 510 OFFCURVE",
"598 486 OFFCURVE",
"581 474 CURVE SMOOTH",
"560 459 OFFCURVE",
"539 462 OFFCURVE",
"518 445 CURVE SMOOTH",
"497 428 OFFCURVE",
"488 387 OFFCURVE",
"460 369 CURVE SMOOTH",
"427 348 OFFCURVE",
"387 379 OFFCURVE",
"396 422 CURVE SMOOTH",
"405 463 OFFCURVE",
"452 476 OFFCURVE",
"446 509 CURVE SMOOTH"
);
}
);
width = 600;
}
);
leftKerningGroup = C;
rightKerningGroup = C;
unicode = 0043;
},
{
glyphname = Ccedilla;
lastChange = "2022-01-25 22:24:53 +0000";
layers = (
{
layerId = "A0EF8C6F-60C0-4D2A-A4F7-7A1091FA18C1";
paths = (
{
closed = 1;
nodes = (
"53 417 OFFCURVE",
"96 432 OFFCURVE",
"124 479 CURVE SMOOTH",
"154 529 OFFCURVE",
"146 585 OFFCURVE",
"182 606 CURVE SMOOTH",
"222 630 OFFCURVE",
"273 612 OFFCURVE",
"306 622 CURVE SMOOTH",
"342 633 OFFCURVE",
"369 681 OFFCURVE",
"415 668 CURVE SMOOTH",
"472 652 OFFCURVE",
"470 593 OFFCURVE",
"508 581 CURVE SMOOTH",
"541 571 OFFCURVE",
"567 617 OFFCURVE",
"599 629 CURVE SMOOTH",
"626 639 OFFCURVE",
"673 628 OFFCURVE",
"661 585 CURVE SMOOTH",
"653 557 OFFCURVE",
"629 555 OFFCURVE",
"612 540 CURVE SMOOTH",
"598 528 OFFCURVE",
"598 503 OFFCURVE",
"581 491 CURVE SMOOTH",
"560 476 OFFCURVE",
"539 479 OFFCURVE",
"518 462 CURVE SMOOTH",
"497 445 OFFCURVE",
"488 404 OFFCURVE",
"460 386 CURVE SMOOTH",
"427 365 OFFCURVE",
"387 396 OFFCURVE",
"396 441 CURVE SMOOTH",
"404 480 OFFCURVE",
"452 493 OFFCURVE",
"446 526 CURVE SMOOTH",
"440 558 OFFCURVE",
"414 545 OFFCURVE",
"384 555 CURVE SMOOTH",
"357 564 OFFCURVE",
"332 588 OFFCURVE",
"285 557 CURVE SMOOTH",
"238 526 OFFCURVE",
"252 458 OFFCURVE",
"221 424 CURVE SMOOTH",
"201 402 OFFCURVE",
"123 406 OFFCURVE",
"122 362 CURVE SMOOTH",
"121 321 OFFCURVE",
"159 305 OFFCURVE",
"163 266 CURVE SMOOTH",
"167 227 OFFCURVE",
"135 192 OFFCURVE",
"159 154 CURVE SMOOTH",
"175 129 OFFCURVE",
"215 136 OFFCURVE",
"257 116 CURVE SMOOTH",
"298 96 OFFCURVE",
"313 63 OFFCURVE",
"370 75 CURVE SMOOTH",
"413 84 OFFCURVE",
"406 135 OFFCURVE",
"442 174 CURVE SMOOTH",
"494 231 OFFCURVE",
"561 179 OFFCURVE",
"535 113 CURVE SMOOTH",
"522 80 OFFCURVE",
"496 80 OFFCURVE",
"480 58 CURVE SMOOTH",
"463 34 OFFCURVE",
"457 -6 OFFCURVE",
"424 -14 CURVE SMOOTH",
"399 -20 OFFCURVE",
"379 -3 OFFCURVE",
"355 1 CURVE SMOOTH",
"336 4 OFFCURVE",
"328 -17 OFFCURVE",
"339 -32 CURVE SMOOTH",
"352 -49 OFFCURVE",
"384 -60 OFFCURVE",
"379 -97 CURVE SMOOTH",
"374 -137 OFFCURVE",
"323 -135 OFFCURVE",
"298 -147 CURVE SMOOTH",
"269 -161 OFFCURVE",
"238 -199 OFFCURVE",
"208 -190 CURVE SMOOTH",
"180 -182 OFFCURVE",
"178 -152 OFFCURVE",
"164 -137 CURVE SMOOTH",
"148 -119 OFFCURVE",
"127 -117 OFFCURVE",
"115 -85 CURVE SMOOTH",
"98 -40 OFFCURVE",
"145 -3 OFFCURVE",
"181 -27 CURVE SMOOTH",
"212 -47 OFFCURVE",
"201 -89 OFFCURVE",
"221 -103 CURVE SMOOTH",
"263 -131 OFFCURVE",
"317 -47 OFFCURVE",
"260 -5 CURVE SMOOTH",
"238 11 OFFCURVE",
"215 -1 OFFCURVE",
"187 11 CURVE SMOOTH",
"140 32 OFFCURVE",
"134 78 OFFCURVE",
"113 105 CURVE SMOOTH",
"86 139 OFFCURVE",
"60 151 OFFCURVE",
"48 193 CURVE SMOOTH",
"40 220 OFFCURVE",
"56 249 OFFCURVE",
"53 277 CURVE SMOOTH",
"50 309 OFFCURVE",
"36 327 OFFCURVE",
"43 363 CURVE SMOOTH"
);
}
);
width = 600;
}
);
leftKerningGroup = C;
rightKerningGroup = C;
unicode = 00C7;
},
{
glyphname = D;
lastChange = "2024-08-21 14:42:53 +0000";
layers = (
{
layerId = "A0EF8C6F-60C0-4D2A-A4F7-7A1091FA18C1";
paths = (
{
closed = 1;
nodes = (
"444 710 OFFCURVE",
"408 634 OFFCURVE",
"436 610 CURVE SMOOTH",
"464 586 OFFCURVE",
"529 615 OFFCURVE",
"572 582 CURVE SMOOTH",
"608 555 OFFCURVE",
"604 518 OFFCURVE",
"626 496 CURVE SMOOTH",
"647 475 OFFCURVE",
"672 476 OFFCURVE",
"688 440 CURVE SMOOTH",
"709 392 OFFCURVE",
"676 315 OFFCURVE",
"672 255 CURVE SMOOTH",
"668 193 OFFCURVE",
"686 131 OFFCURVE",
"649 78 CURVE SMOOTH",
"606 17 OFFCURVE",
"545 34 OFFCURVE",
"505 24 CURVE SMOOTH",
"463 13 OFFCURVE",
"454 -30 OFFCURVE",
"392 -30 CURVE SMOOTH",
"328 -30 OFFCURVE",
"318 22 OFFCURVE",
"260 23 CURVE SMOOTH",
"199 24 OFFCURVE",
"183 -46 OFFCURVE",
"114 -56 CURVE SMOOTH",
"49 -65 OFFCURVE",
"17 17 OFFCURVE",
"90 47 CURVE SMOOTH",
"127 62 OFFCURVE",
"146 51 OFFCURVE",
"168 67 CURVE SMOOTH",
"191 83 OFFCURVE",
"179 113 OFFCURVE",
"192 138 CURVE SMOOTH",
"205 163 OFFCURVE",
"230 184 OFFCURVE",
"236 232 CURVE SMOOTH",
"243 292 OFFCURVE",
"222 311 OFFCURVE",
"227 362 CURVE SMOOTH",
"232 411 OFFCURVE",
"295 453 OFFCURVE",
"275 494 CURVE SMOOTH",
"251 541 OFFCURVE",
"187 467 OFFCURVE",
"143 478 CURVE SMOOTH",
"98 489 OFFCURVE",
"93 546 OFFCURVE",
"158 584 CURVE SMOOTH",
"212 615 OFFCURVE",
"242 573 OFFCURVE",
"292 595 CURVE SMOOTH",
"346 619 OFFCURVE",
"345 745 OFFCURVE",
"402 725 CURVE SMOOTH"
);
},
{
closed = 1;
nodes = (
"383 550 OFFCURVE",
"354 506 OFFCURVE",
"347 459 CURVE SMOOTH",
"340 411 OFFCURVE",
"354 358 OFFCURVE",
"340 291 CURVE SMOOTH",
"324 214 OFFCURVE",
"261 143 OFFCURVE",
"276 111 CURVE SMOOTH",
"291 80 OFFCURVE",
"324 98 OFFCURVE",
"354 93 CURVE SMOOTH",
"383 89 OFFCURVE",
"408 65 OFFCURVE",
"452 68 CURVE SMOOTH",
"493 71 OFFCURVE",
"508 98 OFFCURVE",
"538 125 CURVE SMOOTH",
"564 148 OFFCURVE",
"599 160 OFFCURVE",
"600 211 CURVE SMOOTH",
"601 256 OFFCURVE",
"577 284 OFFCURVE",
"575 322 CURVE SMOOTH",
"573 354 OFFCURVE",
"597 417 OFFCURVE",
"580 444 CURVE SMOOTH",
"563 471 OFFCURVE",
"530 451 OFFCURVE",
"501 475 CURVE SMOOTH",
"469 501 OFFCURVE",
"478 545 OFFCURVE",
"423 548 CURVE SMOOTH"
);
}
);
width = 724;
}
);
leftKerningGroup = D;
rightKerningGroup = D;
unicode = 0044;
},
{
glyphname = E;
lastChange = "2024-08-22 13:12:08 +0000";
layers = (
{
guideLines = (
{
position = "{94, 726}";
}
);
layerId = "A0EF8C6F-60C0-4D2A-A4F7-7A1091FA18C1";
paths = (
{
closed = 1;
nodes = (
"290 659 OFFCURVE",
"184 629 OFFCURVE",
"190 555 CURVE SMOOTH",
"193 516 OFFCURVE",
"235 506 OFFCURVE",
"267 515 CURVE SMOOTH",
"297 523 OFFCURVE",
"271 574 OFFCURVE",
"311 602 CURVE SMOOTH",
"357 634 OFFCURVE",
"380 595 OFFCURVE",
"415 600 CURVE SMOOTH",
"452 605 OFFCURVE",
"460 645 OFFCURVE",
"502 646 CURVE SMOOTH",
"549 648 OFFCURVE",
"574 600 OFFCURVE",
"562 550 CURVE SMOOTH",
"554 516 OFFCURVE",
"522 511 OFFCURVE",
"505 480 CURVE SMOOTH",
"492 456 OFFCURVE",
"509 412 OFFCURVE",
"482 388 CURVE SMOOTH",
"455 364 OFFCURVE",
"394 376 OFFCURVE",
"363 406 CURVE SMOOTH",
"318 450 OFFCURVE",
"235 408 OFFCURVE",
"265 362 CURVE SMOOTH",
"282 336 OFFCURVE",
"325 343 OFFCURVE",
"353 320 CURVE SMOOTH",
"405 277 OFFCURVE",
"361 203 OFFCURVE",
"292 223 CURVE SMOOTH",
"249 236 OFFCURVE",
"240 288 OFFCURVE",
"187 296 CURVE SMOOTH",
"143 303 OFFCURVE",
"111 261 OFFCURVE",
"119 209 CURVE SMOOTH",
"125 170 OFFCURVE",
"142 158 OFFCURVE",
"150 133 CURVE SMOOTH",
"160 102 OFFCURVE",
"149 69 OFFCURVE",
"181 51 CURVE SMOOTH",
"214 33 OFFCURVE",
"238 66 OFFCURVE",
"271 70 CURVE SMOOTH",
"308 74 OFFCURVE",
"341 54 OFFCURVE",
"373 65 CURVE SMOOTH",
"420 81 OFFCURVE",
"408 188 OFFCURVE",
"459 192 CURVE SMOOTH",
"540 198 OFFCURVE",
"538 34 OFFCURVE",
"452 1 CURVE SMOOTH",
"421 -11 OFFCURVE",
"391 2 OFFCURVE",
"362 -8 CURVE SMOOTH",
"328 -20 OFFCURVE",
"302 -63 OFFCURVE",
"245 -64 CURVE SMOOTH",
"187 -65 OFFCURVE",
"167 -29 OFFCURVE",
"133 1 CURVE SMOOTH",
"100 30 OFFCURVE",
"61 38 OFFCURVE",
"45 85 CURVE SMOOTH",
"29 132 OFFCURVE",
"53 186 OFFCURVE",
"58 223 CURVE SMOOTH",
"65 274 OFFCURVE",
"48 321 OFFCURVE",
"80 359 CURVE SMOOTH",
"118 404 OFFCURVE",
"187 376 OFFCURVE",
"204 421 CURVE SMOOTH",
"222 470 OFFCURVE",
"108 498 OFFCURVE",
"104 591 CURVE SMOOTH",
"101 668 OFFCURVE",
"151 715 OFFCURVE",
"191 726 CURVE SMOOTH",
"220 734 OFFCURVE",
"255 732 OFFCURVE",
"269 703 CURVE SMOOTH"
);
},
{
closed = 1;
nodes = (
"353 481 OFFCURVE",
"370 453 OFFCURVE",
"397 453 CURVE SMOOTH",
"427 453 OFFCURVE",
"423 476 OFFCURVE",
"436 488 CURVE SMOOTH",
"449 500 OFFCURVE",
"473 497 OFFCURVE",
"473 520 CURVE SMOOTH",
"473 548 OFFCURVE",
"437 555 OFFCURVE",
"411 552 CURVE SMOOTH",
"385 549 OFFCURVE",
"358 535 OFFCURVE",
"356 509 CURVE SMOOTH"
);
}
);
width = 585;
}
);
leftKerningGroup = E;
rightKerningGroup = E;
unicode = 0045;
},
{
color = 4;
glyphname = Eacute;
lastChange = "2024-08-24 10:34:34 +0000";
layers = (
{
components = (
{
name = E;
transform = "{1, 0, 0, 1, -9, 0}";
}
);
layerId = "A0EF8C6F-60C0-4D2A-A4F7-7A1091FA18C1";
paths = (
{
closed = 1;
nodes = (
"433 637 OFFCURVE",
"350 625 OFFCURVE",
"308 636 CURVE SMOOTH",
"289 641 OFFCURVE",
"282 659 OFFCURVE",
"289 671 CURVE SMOOTH",
"301 692 OFFCURVE",
"339 692 OFFCURVE",
"373 710 CURVE SMOOTH",
"413 731 OFFCURVE",
"421 770 OFFCURVE",
"461 768 CURVE SMOOTH",
"498 766 OFFCURVE",
"503 712 OFFCURVE",
"470 677 CURVE SMOOTH"
);
}
);
width = 576;
}
);
leftKerningGroup = E;
rightKerningGroup = E;
unicode = 00C9;
},
{
color = 4;
glyphname = Ecircumflex;
lastChange = "2024-08-21 15:07:46 +0000";
layers = (
{
components = (
{
name = E;
transform = "{1, 0, 0, 1, -9, 0}";
}
);
guideLines = (
{
angle = 90;
position = "{591, 220}";
}
);
layerId = "A0EF8C6F-60C0-4D2A-A4F7-7A1091FA18C1";
paths = (
{
closed = 1;
nodes = (
"331 656 OFFCURVE",
"399 607 OFFCURVE",
"438 651 CURVE SMOOTH",
"463 679 OFFCURVE",
"469 714 OFFCURVE",
"493 714 CURVE SMOOTH",
"517 714 OFFCURVE",
"522 688 OFFCURVE",
"535 671 CURVE SMOOTH",
"567 629 OFFCURVE",
"628 669 OFFCURVE",
"600 712 CURVE SMOOTH",
"585 735 OFFCURVE",
"567 732 OFFCURVE",
"555 753 CURVE SMOOTH",
"545 770 OFFCURVE",
"531 799 OFFCURVE",
"503 798 CURVE SMOOTH",
"477 797 OFFCURVE",
"454 764 OFFCURVE",
"441 748 CURVE SMOOTH",
"427 731 OFFCURVE",
"396 728 OFFCURVE",
"377 707 CURVE SMOOTH"
);
}
);
width = 592;
}
);
leftKerningGroup = E;
rightKerningGroup = E;
unicode = 00CA;
},
{
color = 4;
glyphname = Edieresis;
lastChange = "2024-08-21 15:08:02 +0000";
layers = (
{
components = (
{
name = E;
transform = "{1, 0, 0, 1, -9, 0}";
}
);
guideLines = (
{
angle = 90;
position = "{591, 220}";
}
);
layerId = "A0EF8C6F-60C0-4D2A-A4F7-7A1091FA18C1";
paths = (
{
closed = 1;
nodes = (
"411 635 OFFCURVE",
"443 657 OFFCURVE",
"454 685 CURVE SMOOTH",
"465 716 OFFCURVE",
"453 761 OFFCURVE",
"420 767 CURVE SMOOTH",
"385 772 OFFCURVE",
"357 751 OFFCURVE",
"348 719 CURVE SMOOTH",
"339 690 OFFCURVE",
"346 655 OFFCURVE",
"375 646 CURVE SMOOTH"
);
},
{
closed = 1;
nodes = (
"516 681 OFFCURVE",
"556 674 OFFCURVE",
"581 689 CURVE SMOOTH",
"606 705 OFFCURVE",
"607 740 OFFCURVE",
"594 765 CURVE SMOOTH",
"579 793 OFFCURVE",
"548 805 OFFCURVE",
"520 788 CURVE SMOOTH",
"492 772 OFFCURVE",
"487 735 OFFCURVE",
"501 708 CURVE SMOOTH"
);
}
);
width = 591;
}
);
leftKerningGroup = E;
rightKerningGroup = E;
unicode = 00CB;
},
{
color = 4;
glyphname = Egrave;
lastChange = "2024-08-21 15:08:54 +0000";
layers = (
{
components = (
{
name = E;
transform = "{1, 0, 0, 1, -9, 0}";
}
);
layerId = "A0EF8C6F-60C0-4D2A-A4F7-7A1091FA18C1";
paths = (
{
closed = 1;
nodes = (
"358 641 OFFCURVE",
"299 677 OFFCURVE",
"279 721 CURVE SMOOTH",
"261 761 OFFCURVE",
"280 797 OFFCURVE",
"312 790 CURVE SMOOTH",
"345 783 OFFCURVE",
"341 754 OFFCURVE",
"370 722 CURVE SMOOTH",
"393 697 OFFCURVE",
"425 685 OFFCURVE",
"429 668 CURVE SMOOTH",
"432 655 OFFCURVE",
"423 641 OFFCURVE",
"404 641 CURVE SMOOTH"
);
}
);
width = 591;
}
);
leftKerningGroup = E;
rightKerningGroup = E;
unicode = 00C8;
},
{
glyphname = F;
lastChange = "2024-08-21 15:10:48 +0000";
layers = (
{
background = {
paths = (
{
closed = 1;
nodes = (
"254 675 OFFCURVE",
"271 637 OFFCURVE",
"319 633 CURVE SMOOTH",
"373 628 OFFCURVE",
"385 654 OFFCURVE",
"426 653 CURVE SMOOTH",
"466 652 OFFCURVE",
"476 619 OFFCURVE",
"518 621 CURVE SMOOTH",
"560 623 OFFCURVE",
"566 656 OFFCURVE",
"610 661 CURVE SMOOTH",
"652 666 OFFCURVE",
"655 617 OFFCURVE",
"646 594 CURVE SMOOTH",
"635 569 OFFCURVE",
"623 564 OFFCURVE",
"610 543 CURVE SMOOTH",
"596 519 OFFCURVE",
"602 479 OFFCURVE",
"583 463 CURVE SMOOTH",
"560 443 OFFCURVE",
"502 447 OFFCURVE",
"510 492 CURVE SMOOTH",
"515 523 OFFCURVE",
"545 542 OFFCURVE",
"527 563 CURVE SMOOTH",
"509 584 OFFCURVE",
"470 551 OFFCURVE",
"443 553 CURVE SMOOTH",
"414 555 OFFCURVE",
"387 581 OFFCURVE",
"360 560 CURVE SMOOTH",
"320 529 OFFCURVE",
"352 492 OFFCURVE",
"344 453 CURVE SMOOTH",
"336 415 OFFCURVE",
"296 400 OFFCURVE",
"315 373 CURVE SMOOTH",
"330 352 OFFCURVE",
"382 369 OFFCURVE",
"405 393 CURVE SMOOTH",
"430 419 OFFCURVE",
"466 400 OFFCURVE",
"451 352 CURVE SMOOTH",
"444 326 OFFCURVE",
"413 312 OFFCURVE",
"409 282 CURVE SMOOTH",
"404 253 OFFCURVE",
"420 234 OFFCURVE",
"415 205 CURVE SMOOTH",
"409 170 OFFCURVE",
"336 163 OFFCURVE",
"344 224 CURVE SMOOTH",
"348 251 OFFCURVE",
"344 301 OFFCURVE",
"308 298 CURVE SMOOTH",
"253 293 OFFCURVE",
"273 191 OFFCURVE",
"265 162 CURVE SMOOTH",
"259 136 OFFCURVE",
"232 122 OFFCURVE",
"229 100 CURVE SMOOTH",
"223 67 OFFCURVE",
"260 43 OFFCURVE",
"288 43 CURVE SMOOTH",
"309 43 OFFCURVE",
"332 55 OFFCURVE",
"352 60 CURVE SMOOTH",
"385 68 OFFCURVE",
"404 28 OFFCURVE",
"386 -1 CURVE SMOOTH",
"374 -20 OFFCURVE",
"328 -44 OFFCURVE",
"294 -43 CURVE SMOOTH",
"262 -42 OFFCURVE",
"218 -9 OFFCURVE",
"179 -12 CURVE SMOOTH",
"148 -14 OFFCURVE",
"114 -45 OFFCURVE",
"73 -40 CURVE SMOOTH",
"30 -35 OFFCURVE",
"1 17 OFFCURVE",
"48 44 CURVE SMOOTH",
"68 55 OFFCURVE",
"93 32 OFFCURVE",
"114 45 CURVE SMOOTH",
"130 54 OFFCURVE",
"143 72 OFFCURVE",
"143 97 CURVE SMOOTH",
"142 125 OFFCURVE",
"140 155 OFFCURVE",
"146 179 CURVE SMOOTH",
"155 208 OFFCURVE",
"195 214 OFFCURVE",
"203 254 CURVE SMOOTH",
"208 276 OFFCURVE",
"199 337 OFFCURVE",
"207 375 CURVE SMOOTH",
"215 411 OFFCURVE",
"240 437 OFFCURVE",
"259 457 CURVE SMOOTH",
"275 474 OFFCURVE",
"276 510 OFFCURVE",
"256 529 CURVE SMOOTH",
"233 551 OFFCURVE",
"199 539 OFFCURVE",
"168 561 CURVE SMOOTH",
"129 590 OFFCURVE",
"140 665 OFFCURVE",
"211 671 CURVE SMOOTH"
);
}
);
};
layerId = "A0EF8C6F-60C0-4D2A-A4F7-7A1091FA18C1";
paths = (
{
closed = 1;
nodes = (
"221 641 OFFCURVE",
"236 617 OFFCURVE",
"269 619 CURVE SMOOTH",
"308 621 OFFCURVE",
"339 655 OFFCURVE",
"383 659 CURVE SMOOTH",
"427 663 OFFCURVE",
"480 630 OFFCURVE",
"515 631 CURVE SMOOTH",
"550 632 OFFCURVE",
"566 662 OFFCURVE",
"606 668 CURVE SMOOTH",
"647 674 OFFCURVE",
"671 650 OFFCURVE",
"661 612 CURVE SMOOTH",
"653 582 OFFCURVE",
"633 570 OFFCURVE",
"624 545 CURVE SMOOTH",
"616 520 OFFCURVE",
"627 494 OFFCURVE",
"619 472 CURVE SMOOTH",
"606 441 OFFCURVE",
"555 431 OFFCURVE",
"537 470 CURVE SMOOTH",
"520 509 OFFCURVE",
"556 532 OFFCURVE",
"527 559 CURVE SMOOTH",
"499 586 OFFCURVE",
"453 544 OFFCURVE",
"415 545 CURVE SMOOTH",
"377 546 OFFCURVE",
"348 572 OFFCURVE",
"322 554 CURVE SMOOTH",
"295 537 OFFCURVE",
"320 504 OFFCURVE",
"320 476 CURVE SMOOTH",
"320 451 OFFCURVE",
"286 426 OFFCURVE",
"288 402 CURVE SMOOTH",
"291 366 OFFCURVE",
"355 361 OFFCURVE",
"378 377 CURVE SMOOTH",
"407 396 OFFCURVE",
"412 421 OFFCURVE",
"437 434 CURVE SMOOTH",
"460 447 OFFCURVE",
"487 429 OFFCURVE",
"488 397 CURVE SMOOTH",
"489 353 OFFCURVE",
"452 322 OFFCURVE",
"442 293 CURVE SMOOTH",
"432 261 OFFCURVE",
"448 221 OFFCURVE",
"432 193 CURVE SMOOTH",
"412 160 OFFCURVE",
"339 150 OFFCURVE",
"336 223 CURVE SMOOTH",
"335 246 OFFCURVE",
"356 253 OFFCURVE",
"354 279 CURVE SMOOTH",
"351 313 OFFCURVE",
"302 330 OFFCURVE",
"283 300 CURVE SMOOTH",
"262 268 OFFCURVE",
"281 227 OFFCURVE",
"278 197 CURVE SMOOTH",
"275 166 OFFCURVE",
"239 122 OFFCURVE",
"254 94 CURVE SMOOTH",
"267 70 OFFCURVE",
"309 97 OFFCURVE",
"332 82 CURVE SMOOTH",
"363 62 OFFCURVE",
"357 10 OFFCURVE",
"313 -3 CURVE SMOOTH",
"269 -16 OFFCURVE",
"221 1 OFFCURVE",
"182 -3 CURVE SMOOTH",
"142 -7 OFFCURVE",
"105 -36 OFFCURVE",
"75 -29 CURVE SMOOTH",
"31 -19 OFFCURVE",
"30 38 OFFCURVE",
"72 65 CURVE SMOOTH",
"118 94 OFFCURVE",
"153 64 OFFCURVE",
"174 88 CURVE SMOOTH",
"198 115 OFFCURVE",
"159 170 OFFCURVE",
"163 205 CURVE SMOOTH",
"167 243 OFFCURVE",
"203 249 OFFCURVE",
"205 281 CURVE SMOOTH",
"207 313 OFFCURVE",
"187 351 OFFCURVE",
"187 400 CURVE SMOOTH",
"187 456 OFFCURVE",
"242 476 OFFCURVE",
"231 521 CURVE SMOOTH",
"223 555 OFFCURVE",
"163 531 OFFCURVE",
"133 556 CURVE SMOOTH",
"102 582 OFFCURVE",
"124 648 OFFCURVE",
"178 644 CURVE SMOOTH"
);
}
);
width = 666;
}
);
leftKerningGroup = F;
unicode = 0046;
},
{
glyphname = G;
lastChange = "2024-08-21 15:00:24 +0000";
layers = (
{
layerId = "A0EF8C6F-60C0-4D2A-A4F7-7A1091FA18C1";
paths = (
{
closed = 1;
nodes = (
"236 664 OFFCURVE",
"260 631 OFFCURVE",
"301 628 CURVE SMOOTH",
"342 625 OFFCURVE",
"356 650 OFFCURVE",
"386 647 CURVE SMOOTH",
"432 642 OFFCURVE",
"477 574 OFFCURVE",
"475 520 CURVE SMOOTH",
"473 462 OFFCURVE",
"424 433 OFFCURVE",
"389 463 CURVE SMOOTH",
"351 495 OFFCURVE",
"367 537 OFFCURVE",
"331 564 CURVE SMOOTH",
"305 584 OFFCURVE",
"255 577 OFFCURVE",
"241 560 CURVE SMOOTH",
"221 535 OFFCURVE",
"232 490 OFFCURVE",
"204 451 CURVE SMOOTH",
"182 420 OFFCURVE",
"147 425 OFFCURVE",
"133 395 CURVE SMOOTH",
"108 341 OFFCURVE",
"155 321 OFFCURVE",
"160 279 CURVE SMOOTH",
"164 247 OFFCURVE",
"150 220 OFFCURVE",
"157 189 CURVE SMOOTH",
"163 162 OFFCURVE",
"195 162 OFFCURVE",
"217 187 CURVE SMOOTH",
"240 213 OFFCURVE",
"245 259 OFFCURVE",
"283 270 CURVE SMOOTH",
"319 280 OFFCURVE",
"341 266 OFFCURVE",
"371 283 CURVE SMOOTH",
"407 304 OFFCURVE",
"394 330 OFFCURVE",
"432 358 CURVE SMOOTH",
"472 387 OFFCURVE",
"526 360 OFFCURVE",
"514 300 CURVE SMOOTH",
"505 254 OFFCURVE",
"461 256 OFFCURVE",
"453 223 CURVE SMOOTH",
"446 193 OFFCURVE",
"458 176 OFFCURVE",
"453 153 CURVE SMOOTH",
"444 113 OFFCURVE",
"416 121 OFFCURVE",
"410 83 CURVE SMOOTH",
"405 53 OFFCURVE",
"426 31 OFFCURVE",
"408 -12 CURVE SMOOTH",
"387 -63 OFFCURVE",
"355 -56 OFFCURVE",
"329 -88 CURVE SMOOTH",
"309 -113 OFFCURVE",
"309 -161 OFFCURVE",
"272 -170 CURVE SMOOTH",
"230 -180 OFFCURVE",
"204 -147 OFFCURVE",
"168 -129 CURVE SMOOTH",
"138 -114 OFFCURVE",
"81 -111 OFFCURVE",
"66 -48 CURVE SMOOTH",
"52 10 OFFCURVE",
"92 51 OFFCURVE",
"137 28 CURVE SMOOTH",
"166 13 OFFCURVE",
"163 -25 OFFCURVE",
"183 -52 CURVE SMOOTH",
"211 -91 OFFCURVE",
"267 -72 OFFCURVE",
"285 -35 CURVE SMOOTH",
"303 2 OFFCURVE",
"298 26 OFFCURVE",
"313 59 CURVE SMOOTH",
"330 96 OFFCURVE",
"352 96 OFFCURVE",
"361 124 CURVE SMOOTH",
"375 166 OFFCURVE",
"349 189 OFFCURVE",
"312 179 CURVE SMOOTH",
"259 165 OFFCURVE",
"233 74 OFFCURVE",
"162 71 CURVE SMOOTH",
"114 69 OFFCURVE",
"79 98 OFFCURVE",
"73 138 CURVE SMOOTH",
"67 176 OFFCURVE",
"80 199 OFFCURVE",
"75 223 CURVE SMOOTH",
"66 265 OFFCURVE",
"24 284 OFFCURVE",
"24 346 CURVE SMOOTH",
"24 421 OFFCURVE",
"69 423 OFFCURVE",
"96 461 CURVE SMOOTH",
"112 483 OFFCURVE",
"98 511 OFFCURVE",
"105 539 CURVE SMOOTH",
"112 568 OFFCURVE",
"142 571 OFFCURVE",
"156 586 CURVE SMOOTH",
"169 600 OFFCURVE",
"166 630 OFFCURVE",
"193 643 CURVE SMOOTH"
);
}
);
width = 490;
}
);
leftKerningGroup = G;
rightKerningGroup = G;
unicode = 0047;
},
{
glyphname = H;
lastChange = "2024-08-21 14:43:25 +0000";
layers = (
{
layerId = "A0EF8C6F-60C0-4D2A-A4F7-7A1091FA18C1";
paths = (
{
closed = 1;
nodes = (
"313 652 OFFCURVE",
"331 663 OFFCURVE",
"345 660 CURVE SMOOTH",
"363 656 OFFCURVE",
"371 632 OFFCURVE",
"394 632 CURVE SMOOTH",
"417 632 OFFCURVE",
"434 675 OFFCURVE",
"474 675 CURVE SMOOTH",
"504 675 OFFCURVE",
"521 652 OFFCURVE",
"523 625 CURVE SMOOTH",
"524 593 OFFCURVE",
"497 572 OFFCURVE",
"475 568 CURVE SMOOTH",
"450 564 OFFCURVE",
"417 582 OFFCURVE",
"401 559 CURVE SMOOTH",
"385 536 OFFCURVE",
"400 512 OFFCURVE",
"389 489 CURVE SMOOTH",
"376 462 OFFCURVE",
"332 457 OFFCURVE",
"344 422 CURVE SMOOTH",
"355 389 OFFCURVE",
"399 411 OFFCURVE",
"430 404 CURVE SMOOTH",
"459 400 OFFCURVE",
"478 382 OFFCURVE",
"503 382 CURVE SMOOTH",
"546 382 OFFCURVE",
"575 437 OFFCURVE",
"553 474 CURVE SMOOTH",
"537 500 OFFCURVE",
"499 494 OFFCURVE",
"507 530 CURVE SMOOTH",
"514 562 OFFCURVE",
"543 551 OFFCURVE",
"567 561 CURVE SMOOTH",
"597 573 OFFCURVE",
"589 601 OFFCURVE",
"619 613 CURVE SMOOTH",
"636 620 OFFCURVE",
"660 614 OFFCURVE",
"667 601 CURVE SMOOTH",
"673 589 OFFCURVE",
"671 570 OFFCURVE",
"679 562 CURVE SMOOTH",
"688 553 OFFCURVE",
"706 558 OFFCURVE",
"716 548 CURVE SMOOTH",
"731 533 OFFCURVE",
"720 501 OFFCURVE",
"691 493 CURVE SMOOTH",
"667 487 OFFCURVE",
"643 494 OFFCURVE",
"632 474 CURVE SMOOTH",
"614 442 OFFCURVE",
"644 367 OFFCURVE",
"627 297 CURVE SMOOTH",
"612 235 OFFCURVE",
"538 165 OFFCURVE",
"563 126 CURVE SMOOTH",
"582 97 OFFCURVE",
"620 128 OFFCURVE",
"644 105 CURVE SMOOTH",
"674 77 OFFCURVE",
"651 24 OFFCURVE",
"616 19 CURVE SMOOTH",
"591 15 OFFCURVE",
"560 23 OFFCURVE",
"545 20 CURVE SMOOTH",
"529 16 OFFCURVE",
"507 -2 OFFCURVE",
"485 -1 CURVE SMOOTH",
"463 1 OFFCURVE",
"454 23 OFFCURVE",
"439 27 CURVE SMOOTH",
"427 31 OFFCURVE",
"409 13 OFFCURVE",
"388 23 CURVE SMOOTH",
"355 37 OFFCURVE",
"354 107 OFFCURVE",
"398 114 CURVE SMOOTH",
"429 119 OFFCURVE",
"471 99 OFFCURVE",
"484 116 CURVE SMOOTH",
"497 135 OFFCURVE",
"482 156 OFFCURVE",
"487 203 CURVE SMOOTH",
"490 228 OFFCURVE",
"531 254 OFFCURVE",
"539 274 CURVE SMOOTH",
"546 296 OFFCURVE",
"530 330 OFFCURVE",
"511 324 CURVE SMOOTH",
"485 317 OFFCURVE",
"459 282 OFFCURVE",
"413 288 CURVE SMOOTH",
"378 293 OFFCURVE",
"362 343 OFFCURVE",
"331 343 CURVE SMOOTH",
"304 343 OFFCURVE",
"273 291 OFFCURVE",
"268 263 CURVE SMOOTH",
"263 236 OFFCURVE",
"272 198 OFFCURVE",
"268 161 CURVE SMOOTH",
"264 120 OFFCURVE",
"216 67 OFFCURVE",
"236 39 CURVE SMOOTH",
"249 20 OFFCURVE",
"272 40 OFFCURVE",
"295 30 CURVE SMOOTH",
"330 17 OFFCURVE",
"327 -33 OFFCURVE",
"290 -46 CURVE SMOOTH",
"247 -61 OFFCURVE",
"196 -45 OFFCURVE",
"165 -46 CURVE SMOOTH",
"134 -47 OFFCURVE",
"111 -74 OFFCURVE",
"70 -66 CURVE SMOOTH",
"21 -57 OFFCURVE",
"20 12 OFFCURVE",
"65 34 CURVE SMOOTH",
"96 49 OFFCURVE",
"137 41 OFFCURVE",
"155 64 CURVE SMOOTH",
"173 88 OFFCURVE",
"149 150 OFFCURVE",
"160 196 CURVE SMOOTH",
"170 243 OFFCURVE",
"192 260 OFFCURVE",
"214 304 CURVE SMOOTH",
"232 344 OFFCURVE",
"227 398 OFFCURVE",
"251 441 CURVE SMOOTH",
"272 479 OFFCURVE",
"310 500 OFFCURVE",
"308 538 CURVE SMOOTH",
"306 575 OFFCURVE",
"248 562 OFFCURVE",
"218 582 CURVE SMOOTH",
"185 604 OFFCURVE",
"186 671 OFFCURVE",
"239 680 CURVE SMOOTH",
"270 685 OFFCURVE",
"280 660 OFFCURVE",
"297 656 CURVE SMOOTH"
);
}
);
width = 761;
}
);
unicode = 0048;
},
{
glyphname = I;
lastChange = "2024-08-22 13:11:58 +0000";
layers = (
{
layerId = "A0EF8C6F-60C0-4D2A-A4F7-7A1091FA18C1";
paths = (
{
closed = 1;
nodes = (
"362 642 OFFCURVE",
"381 622 OFFCURVE",
"402 622 CURVE SMOOTH",
"421 622 OFFCURVE",
"431 634 OFFCURVE",
"447 634 CURVE SMOOTH",
"464 634 OFFCURVE",
"493 619 OFFCURVE",
"493 587 CURVE SMOOTH",
"493 557 OFFCURVE",
"462 535 OFFCURVE",
"436 535 CURVE SMOOTH",
"414 535 OFFCURVE",
"391 547 OFFCURVE",
"373 547 CURVE SMOOTH",
"350 547 OFFCURVE",
"342 531 OFFCURVE",
"342 506 CURVE SMOOTH",
"342 471 OFFCURVE",
"352 445 OFFCURVE",
"352 413 CURVE SMOOTH",
"352 355 OFFCURVE",
"292 316 OFFCURVE",
"292 273 CURVE SMOOTH",
"292 239 OFFCURVE",
"309 218 OFFCURVE",
"309 187 CURVE SMOOTH",
"309 157 OFFCURVE",
"291 124 OFFCURVE",
"291 99 CURVE SMOOTH",
"291 83 OFFCURVE",
"299 71 OFFCURVE",
"315 71 CURVE SMOOTH",
"348 71 OFFCURVE",
"375 95 OFFCURVE",
"405 95 CURVE SMOOTH",
"427 95 OFFCURVE",
"440 75 OFFCURVE",
"440 53 CURVE SMOOTH",
"440 19 OFFCURVE",
"416 -1 OFFCURVE",
"396 -1 CURVE SMOOTH",
"372 -1 OFFCURVE",
"358 13 OFFCURVE",
"341 13 CURVE SMOOTH",
"304 13 OFFCURVE",
"292 -26 OFFCURVE",
"253 -26 CURVE SMOOTH",
"215 -26 OFFCURVE",
"199 4 OFFCURVE",
"167 4 CURVE SMOOTH",
"139 4 OFFCURVE",
"117 -13 OFFCURVE",
"80 -13 CURVE SMOOTH",
"52 -13 OFFCURVE",
"26 6 OFFCURVE",
"26 39 CURVE SMOOTH",
"26 69 OFFCURVE",
"54 89 OFFCURVE",
"82 89 CURVE SMOOTH",
"110 89 OFFCURVE",
"130 75 OFFCURVE",
"159 75 CURVE SMOOTH",
"187 75 OFFCURVE",
"206 88 OFFCURVE",
"206 111 CURVE SMOOTH",
"206 134 OFFCURVE",
"193 156 OFFCURVE",
"193 181 CURVE SMOOTH",
"193 216 OFFCURVE",
"223 236 OFFCURVE",
"223 275 CURVE SMOOTH",
"223 302 OFFCURVE",
"211 321 OFFCURVE",
"211 347 CURVE SMOOTH",
"211 405 OFFCURVE",
"267 435 OFFCURVE",
"267 496 CURVE SMOOTH",
"267 522 OFFCURVE",
"255 541 OFFCURVE",
"230 541 CURVE SMOOTH",
"213 541 OFFCURVE",
"198 524 OFFCURVE",
"174 524 CURVE SMOOTH",
"145 524 OFFCURVE",
"130 544 OFFCURVE",
"130 566 CURVE SMOOTH",
"130 590 OFFCURVE",
"149 616 OFFCURVE",
"189 616 CURVE SMOOTH",
"208 616 OFFCURVE",
"219 610 OFFCURVE",
"234 610 CURVE SMOOTH",
"277 610 OFFCURVE",
"284 642 OFFCURVE",
"327 642 CURVE SMOOTH"
);
}
);
width = 479;
}
);
leftKerningGroup = I;
rightKerningGroup = I;
unicode = 0049;
},
{
color = 4;
glyphname = Icircumflex;
lastChange = "2024-08-21 10:06:48 +0000";
layers = (
{
components = (
{
name = I;
}
);
layerId = "A0EF8C6F-60C0-4D2A-A4F7-7A1091FA18C1";
paths = (
{
closed = 1;
nodes = (
"192 679 OFFCURVE",
"194 657 OFFCURVE",
"206 644 CURVE SMOOTH",
"223 626 OFFCURVE",
"252 629 OFFCURVE",
"275 650 CURVE SMOOTH",
"298 671 OFFCURVE",
"312 709 OFFCURVE",
"333 709 CURVE SMOOTH",
"355 709 OFFCURVE",
"364 676 OFFCURVE",
"383 661 CURVE SMOOTH",
"403 645 OFFCURVE",
"427 640 OFFCURVE",
"446 656 CURVE SMOOTH",
"462 669 OFFCURVE",
"464 691 OFFCURVE",
"452 708 CURVE SMOOTH",
"439 726 OFFCURVE",
"418 730 OFFCURVE",
"399 744 CURVE SMOOTH",
"380 758 OFFCURVE",
"372 789 OFFCURVE",
"340 789 CURVE SMOOTH",
"306 789 OFFCURVE",
"299 756 OFFCURVE",
"279 738 CURVE SMOOTH",
"258 719 OFFCURVE",
"224 723 OFFCURVE",
"205 697 CURVE SMOOTH"
);
}
);
width = 479;
}
);
leftKerningGroup = I;
rightKerningGroup = I;
unicode = 00CE;
},
{
color = 4;
glyphname = Idieresis;
lastChange = "2024-08-21 10:06:10 +0000";
layers = (
{
components = (
{
name = I;
}
);
layerId = "A0EF8C6F-60C0-4D2A-A4F7-7A1091FA18C1";
paths = (
{
closed = 1;
nodes = (
"253 636 OFFCURVE",
"287 650 OFFCURVE",
"301 676 CURVE SMOOTH",
"315 705 OFFCURVE",
"310 750 OFFCURVE",
"278 760 CURVE SMOOTH",
"245 770 OFFCURVE",
"216 754 OFFCURVE",
"201 724 CURVE SMOOTH",
"188 696 OFFCURVE",
"192 662 OFFCURVE",
"219 651 CURVE SMOOTH"
);
},
{
closed = 1;
nodes = (
"358 663 OFFCURVE",
"396 651 OFFCURVE",
"422 663 CURVE SMOOTH",
"449 676 OFFCURVE",
"455 709 OFFCURVE",
"447 735 CURVE SMOOTH",
"437 763 OFFCURVE",
"406 779 OFFCURVE",
"377 767 CURVE SMOOTH",
"349 756 OFFCURVE",
"339 722 OFFCURVE",
"349 693 CURVE SMOOTH"
);
}
);
width = 479;
}
);
leftKerningGroup = I;
rightKerningGroup = I;
unicode = 00CF;
},
{
glyphname = J;
lastChange = "2024-08-21 14:43:21 +0000";
layers = (
{
background = {
paths = (
{
closed = 1;
nodes = (
"353 626 OFFCURVE",
"354 651 OFFCURVE",
"378 655 CURVE SMOOTH",
"402 659 OFFCURVE",
"418 640 OFFCURVE",
"447 642 CURVE SMOOTH",
"479 644 OFFCURVE",
"492 680 OFFCURVE",
"536 679 CURVE SMOOTH",
"586 678 OFFCURVE",
"606 610 OFFCURVE",
"572 581 CURVE SMOOTH",
"541 554 OFFCURVE",
"482 585 OFFCURVE",
"464 559 CURVE SMOOTH",
"448 536 OFFCURVE",
"470 476 OFFCURVE",
"467 437 CURVE SMOOTH",
"464 403 OFFCURVE",
"425 372 OFFCURVE",
"424 331 CURVE SMOOTH",
"423 280 OFFCURVE",
"495 258 OFFCURVE",
"486 203 CURVE SMOOTH",
"477 147 OFFCURVE",
"413 114 OFFCURVE",
"371 70 CURVE SMOOTH",
"324 20 OFFCURVE",
"343 -15 OFFCURVE",
"310 -42 CURVE SMOOTH",
"274 -71 OFFCURVE",
"244 -49 OFFCURVE",
"201 -50 CURVE SMOOTH",
"168 -51 OFFCURVE",
"121 -83 OFFCURVE",
"86 -53 CURVE SMOOTH",
"56 -27 OFFCURVE",
"55 38 OFFCURVE",
"35 73 CURVE SMOOTH",
"10 117 OFFCURVE",
"-40 144 OFFCURVE",
"-47 190 CURVE SMOOTH",
"-54 236 OFFCURVE",
"-23 288 OFFCURVE",
"13 310 CURVE SMOOTH",
"51 333 OFFCURVE",
"120 320 OFFCURVE",
"107 257 CURVE SMOOTH",
"98 213 OFFCURVE",
"59 204 OFFCURVE",
"68 174 CURVE SMOOTH",
"76 148 OFFCURVE",
"115 163 OFFCURVE",
"131 135 CURVE SMOOTH",
"148 106 OFFCURVE",
"130 56 OFFCURVE",
"151 33 CURVE SMOOTH",
"171 11 OFFCURVE",
"227 17 OFFCURVE",
"250 45 CURVE SMOOTH",
"272 72 OFFCURVE",
"276 125 OFFCURVE",
"307 155 CURVE SMOOTH",
"331 178 OFFCURVE",
"362 173 OFFCURVE",
"370 213 CURVE SMOOTH",
"379 259 OFFCURVE",
"333 340 OFFCURVE",
"336 396 CURVE SMOOTH",
"339 448 OFFCURVE",
"373 467 OFFCURVE",
"377 500 CURVE SMOOTH",
"381 530 OFFCURVE",
"356 548 OFFCURVE",
"332 546 CURVE SMOOTH",
"304 544 OFFCURVE",
"269 511 OFFCURVE",
"228 510 CURVE SMOOTH",
"150 508 OFFCURVE",
"146 619 OFFCURVE",
"231 633 CURVE SMOOTH",
"280 641 OFFCURVE",
"303 620 OFFCURVE",
"329 623 CURVE SMOOTH"
);
}
);
};
layerId = "A0EF8C6F-60C0-4D2A-A4F7-7A1091FA18C1";
paths = (
{
closed = 1;
nodes = (
"353 626 OFFCURVE",
"354 651 OFFCURVE",
"378 655 CURVE SMOOTH",
"402 659 OFFCURVE",
"424 638 OFFCURVE",
"453 642 CURVE SMOOTH",
"485 646 OFFCURVE",
"499 686 OFFCURVE",
"543 685 CURVE SMOOTH",
"593 684 OFFCURVE",
"606 610 OFFCURVE",
"572 581 CURVE SMOOTH",
"541 554 OFFCURVE",
"484 598 OFFCURVE",
"464 559 CURVE SMOOTH",
"446 524 OFFCURVE",
"479 476 OFFCURVE",
"476 437 CURVE SMOOTH",
"473 396 OFFCURVE",
"425 372 OFFCURVE",
"424 331 CURVE SMOOTH",
"423 280 OFFCURVE",
"495 258 OFFCURVE",
"486 203 CURVE SMOOTH",
"477 147 OFFCURVE",
"410 132 OFFCURVE",
"379 85 CURVE SMOOTH",
"346 36 OFFCURVE",
"361 -20 OFFCURVE",
"328 -47 CURVE SMOOTH",
"292 -77 OFFCURVE",
"261 -48 OFFCURVE",
"218 -45 CURVE SMOOTH",
"185 -43 OFFCURVE",
"143 -71 OFFCURVE",
"110 -38 CURVE SMOOTH",
"82 -10 OFFCURVE",
"98 43 OFFCURVE",
"84 89 CURVE SMOOTH",
"71 131 OFFCURVE",
"26 177 OFFCURVE",
"26 224 CURVE SMOOTH",
"27 270 OFFCURVE",
"70 316 OFFCURVE",
"108 331 CURVE SMOOTH",
"149 348 OFFCURVE",
"215 320 OFFCURVE",
"190 263 CURVE SMOOTH",
"171 220 OFFCURVE",
"132 220 OFFCURVE",
"137 187 CURVE SMOOTH",
"141 161 OFFCURVE",
"171 160 OFFCURVE",
"184 128 CURVE SMOOTH",
"196 99 OFFCURVE",
"163 66 OFFCURVE",
"182 42 CURVE SMOOTH",
"201 18 OFFCURVE",
"233 15 OFFCURVE",
"257 42 CURVE SMOOTH",
"280 68 OFFCURVE",
"281 101 OFFCURVE",
"307 136 CURVE SMOOTH",
"332 169 OFFCURVE",
"362 173 OFFCURVE",
"370 213 CURVE SMOOTH",
"379 259 OFFCURVE",
"333 340 OFFCURVE",
"336 396 CURVE SMOOTH",
"339 448 OFFCURVE",
"373 467 OFFCURVE",
"377 500 CURVE SMOOTH",
"381 530 OFFCURVE",
"356 548 OFFCURVE",
"332 546 CURVE SMOOTH",
"304 544 OFFCURVE",
"269 511 OFFCURVE",
"228 510 CURVE SMOOTH",
"150 508 OFFCURVE",
"146 619 OFFCURVE",
"231 633 CURVE SMOOTH",
"280 641 OFFCURVE",
"303 620 OFFCURVE",
"329 623 CURVE SMOOTH"
);
}
);
width = 549;
}
);
unicode = 004A;
},
{
glyphname = K;
lastChange = "2024-08-21 14:39:50 +0000";
layers = (
{
layerId = "A0EF8C6F-60C0-4D2A-A4F7-7A1091FA18C1";
paths = (
{
closed = 1;
nodes = (
"252 649 OFFCURVE",
"263 622 OFFCURVE",
"292 621 CURVE SMOOTH",
"321 620 OFFCURVE",
"329 634 OFFCURVE",
"359 633 CURVE SMOOTH",
"409 631 OFFCURVE",
"418 576 OFFCURVE",
"389 547 CURVE SMOOTH",
"367 525 OFFCURVE",
"338 538 OFFCURVE",
"313 524 CURVE SMOOTH",
"291 512 OFFCURVE",
"271 475 OFFCURVE",
"268 443 CURVE SMOOTH",
"262 382 OFFCURVE",
"320 355 OFFCURVE",
"384 422 CURVE SMOOTH",
"442 483 OFFCURVE",
"519 650 OFFCURVE",
"620 659 CURVE SMOOTH",
"708 667 OFFCURVE",
"718 580 OFFCURVE",
"659 554 CURVE SMOOTH",
"622 538 OFFCURVE",
"590 551 OFFCURVE",
"556 523 CURVE SMOOTH",
"513 488 OFFCURVE",
"530 427 OFFCURVE",
"500 392 CURVE SMOOTH",
"464 350 OFFCURVE",
"397 366 OFFCURVE",
"387 336 CURVE SMOOTH",
"376 303 OFFCURVE",
"399 275 OFFCURVE",
"420 261 CURVE SMOOTH",
"451 240 OFFCURVE",
"493 233 OFFCURVE",
"511 197 CURVE SMOOTH",
"528 160 OFFCURVE",
"501 117 OFFCURVE",
"525 89 CURVE SMOOTH",
"551 59 OFFCURVE",
"610 116 OFFCURVE",
"639 87 CURVE SMOOTH",
"697 27 OFFCURVE",
"576 -75 OFFCURVE",
"499 -28 CURVE SMOOTH",
"461 -1 OFFCURVE",
"469 46 OFFCURVE",
"455 77 CURVE SMOOTH",
"439 113 OFFCURVE",
"410 117 OFFCURVE",
"389 152 CURVE SMOOTH",
"359 201 OFFCURVE",
"360 237 OFFCURVE",
"316 285 CURVE SMOOTH",
"287 317 OFFCURVE",
"238 317 OFFCURVE",
"234 262 CURVE SMOOTH",
"231 225 OFFCURVE",
"247 213 OFFCURVE",
"245 182 CURVE SMOOTH",
"243 145 OFFCURVE",
"198 113 OFFCURVE",
"217 84 CURVE SMOOTH",
"229 66 OFFCURVE",
"250 73 OFFCURVE",
"269 70 CURVE SMOOTH",
"323 61 OFFCURVE",
"315 -32 OFFCURVE",
"252 -34 CURVE SMOOTH",
"215 -35 OFFCURVE",
"206 -24 OFFCURVE",
"174 -26 CURVE SMOOTH",
"142 -28 OFFCURVE",
"107 -57 OFFCURVE",
"62 -56 CURVE SMOOTH",
"3 -55 OFFCURVE",
"0 24 OFFCURVE",
"48 40 CURVE SMOOTH",
"86 53 OFFCURVE",
"129 51 OFFCURVE",
"135 86 CURVE SMOOTH",
"143 134 OFFCURVE",
"113 160 OFFCURVE",
"121 209 CURVE SMOOTH",
"130 261 OFFCURVE",
"165 268 OFFCURVE",
"176 311 CURVE SMOOTH",
"186 349 OFFCURVE",
"157 377 OFFCURVE",
"162 415 CURVE SMOOTH",
"168 460 OFFCURVE",
"217 483 OFFCURVE",
"212 517 CURVE SMOOTH",
"208 544 OFFCURVE",
"174 535 OFFCURVE",
"140 555 CURVE SMOOTH",
"97 580 OFFCURVE",
"124 649 OFFCURVE",
"188 649 CURVE SMOOTH"
);
}
);
width = 702;
}
);
unicode = 004B;
},
{
glyphname = L;
lastChange = "2024-08-23 13:44:18 +0000";
layers = (
{
layerId = "A0EF8C6F-60C0-4D2A-A4F7-7A1091FA18C1";
paths = (
{
closed = 1;
nodes = (
"14 89 OFFCURVE",
"48 115 OFFCURVE",
"79 113 CURVE SMOOTH",
"113 111 OFFCURVE",
"157 69 OFFCURVE",
"182 96 CURVE SMOOTH",
"208 125 OFFCURVE",
"173 190 OFFCURVE",
"185 251 CURVE SMOOTH",
"196 310 OFFCURVE",
"224 317 OFFCURVE",
"238 365 CURVE SMOOTH",
"251 409 OFFCURVE",
"232 423 OFFCURVE",
"239 466 CURVE SMOOTH",
"246 507 OFFCURVE",
"290 528 OFFCURVE",
"272 551 CURVE SMOOTH",
"257 570 OFFCURVE",
"224 543 OFFCURVE",
"194 547 CURVE SMOOTH",
"149 553 OFFCURVE",
"151 608 OFFCURVE",
"208 636 CURVE SMOOTH",
"241 652 OFFCURVE",
"267 631 OFFCURVE",
"302 639 CURVE SMOOTH",
"332 646 OFFCURVE",
"335 669 OFFCURVE",
"373 672 CURVE SMOOTH",
"408 675 OFFCURVE",
"420 649 OFFCURVE",
"439 648 CURVE SMOOTH",
"459 647 OFFCURVE",
"508 689 OFFCURVE",
"537 651 CURVE SMOOTH",
"561 620 OFFCURVE",
"544 578 OFFCURVE",
"503 565 CURVE SMOOTH",
"457 550 OFFCURVE",
"399 581 OFFCURVE",
"363 542 CURVE SMOOTH",
"320 495 OFFCURVE",
"362 435 OFFCURVE",
"343 380 CURVE SMOOTH",
"327 333 OFFCURVE",
"283 311 OFFCURVE",
"274 282 CURVE SMOOTH",
"266 254 OFFCURVE",
"291 236 OFFCURVE",
"290 198 CURVE SMOOTH",
"289 155 OFFCURVE",
"248 108 OFFCURVE",
"278 85 CURVE SMOOTH",
"310 60 OFFCURVE",
"341 132 OFFCURVE",
"382 134 CURVE SMOOTH",
"422 136 OFFCURVE",
"428 102 OFFCURVE",
"463 114 CURVE SMOOTH",
"502 128 OFFCURVE",
"485 194 OFFCURVE",
"504 233 CURVE SMOOTH",
"529 284 OFFCURVE",
"613 291 OFFCURVE",
"609 223 CURVE SMOOTH",
"606 175 OFFCURVE",
"575 159 OFFCURVE",
"570 132 CURVE SMOOTH",
"566 106 OFFCURVE",
"589 32 OFFCURVE",
"544 3 CURVE SMOOTH",
"500 -25 OFFCURVE",
"466 26 OFFCURVE",
"407 31 CURVE SMOOTH",
"374 34 OFFCURVE",
"364 7 OFFCURVE",
"326 -3 CURVE SMOOTH",
"283 -14 OFFCURVE",
"263 14 OFFCURVE",
"236 6 CURVE SMOOTH",
"217 0 OFFCURVE",
"208 -27 OFFCURVE",
"176 -27 CURVE SMOOTH",
"144 -27 OFFCURVE",
"128 3 OFFCURVE",
"110 10 CURVE SMOOTH",
"89 18 OFFCURVE",
"22 -3 OFFCURVE",
"17 57 CURVE SMOOTH"
);
}
);
width = 653;
}
);
leftKerningGroup = L;
rightKerningGroup = L;
unicode = 004C;
},
{
glyphname = M;
lastChange = "2024-08-22 09:38:20 +0000";
layers = (
{
layerId = "A0EF8C6F-60C0-4D2A-A4F7-7A1091FA18C1";
paths = (
{
closed = 1;
nodes = (
"439 670 OFFCURVE",
"457 709 OFFCURVE",
"496 709 CURVE SMOOTH",
"520 709 OFFCURVE",
"538 694 OFFCURVE",
"538 669 CURVE SMOOTH",
"538 619 OFFCURVE",
"442 618 OFFCURVE",
"442 519 CURVE SMOOTH",
"442 462 OFFCURVE",
"473 435 OFFCURVE",
"512 435 CURVE SMOOTH",
"547 435 OFFCURVE",
"582 455 OFFCURVE",
"582 494 CURVE SMOOTH",
"582 534 OFFCURVE",
"529 536 OFFCURVE",
"529 573 CURVE SMOOTH",
"529 600 OFFCURVE",
"549 612 OFFCURVE",
"571 612 CURVE SMOOTH",
"596 612 OFFCURVE",
"609 585 OFFCURVE",
"639 585 CURVE SMOOTH",
"672 585 OFFCURVE",
"697 602 OFFCURVE",
"725 602 CURVE SMOOTH",
"751 602 OFFCURVE",
"763 586 OFFCURVE",
"763 563 CURVE SMOOTH",
"763 512 OFFCURVE",
"686 508 OFFCURVE",
"659 455 CURVE SMOOTH",
"639 415 OFFCURVE",
"658 368 OFFCURVE",
"655 317 CURVE SMOOTH",
"652 271 OFFCURVE",
"608 244 OFFCURVE",
"634 208 CURVE SMOOTH",
"660 172 OFFCURVE",
"677 196 OFFCURVE",
"714 191 CURVE SMOOTH",
"755 185 OFFCURVE",
"767 125 OFFCURVE",
"727 105 CURVE SMOOTH",
"709 96 OFFCURVE",
"680 102 OFFCURVE",
"649 97 CURVE SMOOTH",
"619 92 OFFCURVE",
"571 58 OFFCURVE",
"535 58 CURVE SMOOTH",
"504 58 OFFCURVE",
"482 76 OFFCURVE",
"477 99 CURVE SMOOTH",
"472 118 OFFCURVE",
"482 148 OFFCURVE",
"508 154 CURVE SMOOTH",
"531 159 OFFCURVE",
"558 148 OFFCURVE",
"569 170 CURVE SMOOTH",
"579 190 OFFCURVE",
"551 216 OFFCURVE",
"551 251 CURVE SMOOTH",
"551 284 OFFCURVE",
"580 301 OFFCURVE",
"580 339 CURVE SMOOTH",
"580 373 OFFCURVE",
"546 382 OFFCURVE",
"526 363 CURVE SMOOTH",
"507 345 OFFCURVE",
"510 289 OFFCURVE",
"486 265 CURVE SMOOTH",
"457 237 OFFCURVE",
"402 249 OFFCURVE",
"402 298 CURVE SMOOTH",
"402 334 OFFCURVE",
"428 339 OFFCURVE",
"428 370 CURVE SMOOTH",
"428 398 OFFCURVE",
"397 399 OFFCURVE",
"391 420 CURVE SMOOTH",
"384 442 OFFCURVE",
"395 471 OFFCURVE",
"391 490 CURVE SMOOTH",
"386 513 OFFCURVE",
"358 526 OFFCURVE",
"343 497 CURVE SMOOTH",
"316 445 OFFCURVE",
"353 399 OFFCURVE",
"342 339 CURVE SMOOTH",
"331 289 OFFCURVE",
"289 256 OFFCURVE",
"283 216 CURVE SMOOTH",
"278 190 OFFCURVE",
"297 172 OFFCURVE",
"291 141 CURVE SMOOTH",
"283 104 OFFCURVE",
"232 87 OFFCURVE",
"245 63 CURVE SMOOTH",
"255 45 OFFCURVE",
"292 64 OFFCURVE",
"321 64 CURVE SMOOTH",
"342 64 OFFCURVE",
"361 48 OFFCURVE",
"361 22 CURVE SMOOTH",
"361 -9 OFFCURVE",
"339 -32 OFFCURVE",
"310 -32 CURVE SMOOTH",
"270 -32 OFFCURVE",
"232 -14 OFFCURVE",
"199 -14 CURVE SMOOTH",
"168 -14 OFFCURVE",
"134 -31 OFFCURVE",
"107 -31 CURVE SMOOTH",
"64 -31 OFFCURVE",
"34 -1 OFFCURVE",
"34 30 CURVE SMOOTH",
"34 59 OFFCURVE",
"51 81 OFFCURVE",
"87 81 CURVE SMOOTH",
"112 81 OFFCURVE",
"139 69 OFFCURVE",
"155 80 CURVE SMOOTH",
"189 103 OFFCURVE",
"167 184 OFFCURVE",
"188 232 CURVE SMOOTH",
"203 267 OFFCURVE",
"244 275 OFFCURVE",
"251 317 CURVE SMOOTH",
"258 357 OFFCURVE",
"241 387 OFFCURVE",
"243 427 CURVE SMOOTH",
"245 481 OFFCURVE",
"298 527 OFFCURVE",
"298 556 CURVE SMOOTH",
"298 587 OFFCURVE",
"233 584 OFFCURVE",
"233 625 CURVE SMOOTH",
"233 647 OFFCURVE",
"250 664 OFFCURVE",
"281 664 CURVE SMOOTH",
"317 664 OFFCURVE",
"357 645 OFFCURVE",
"400 658 CURVE SMOOTH"
);
}
);
width = 799;
}
);
leftKerningGroup = M;
rightKerningGroup = M;
unicode = 004D;
},
{
glyphname = N;
lastChange = "2024-08-21 14:41:08 +0000";
layers = (
{
layerId = "A0EF8C6F-60C0-4D2A-A4F7-7A1091FA18C1";
paths = (
{
closed = 1;
nodes = (
"541 163 OFFCURVE",
"574 133 OFFCURVE",
"574 88 CURVE SMOOTH",
"574 62 OFFCURVE",
"559 45 OFFCURVE",
"537 45 CURVE SMOOTH",
"496 45 OFFCURVE",
"447 102 OFFCURVE",
"419 160 CURVE SMOOTH",
"363 276 OFFCURVE",
"357 427 OFFCURVE",
"293 427 CURVE SMOOTH",
"279 427 OFFCURVE",
"276 414 OFFCURVE",
"276 398 CURVE SMOOTH",
"276 380 OFFCURVE",
"280 357 OFFCURVE",
"280 337 CURVE SMOOTH",
"280 272 OFFCURVE",
"194 221 OFFCURVE",
"194 166 CURVE SMOOTH",
"194 150 OFFCURVE",
"206 137 OFFCURVE",
"219 137 CURVE SMOOTH",
"246 137 OFFCURVE",
"271 175 OFFCURVE",
"305 175 CURVE SMOOTH",
"331 175 OFFCURVE",
"355 148 OFFCURVE",
"355 123 CURVE SMOOTH",
"355 82 OFFCURVE",
"307 80 OFFCURVE",
"284 64 CURVE SMOOTH",
"265 51 OFFCURVE",
"254 22 OFFCURVE",
"230 13 CURVE SMOOTH",
"212 7 OFFCURVE",
"205 17 OFFCURVE",
"186 12 CURVE SMOOTH",
"159 5 OFFCURVE",
"134 -30 OFFCURVE",
"100 -30 CURVE SMOOTH",
"65 -30 OFFCURVE",
"49 -6 OFFCURVE",
"49 26 CURVE SMOOTH",
"49 87 OFFCURVE",
"138 83 OFFCURVE",
"138 143 CURVE SMOOTH",
"138 175 OFFCURVE",
"124 232 OFFCURVE",
"130 272 CURVE SMOOTH",
"140 335 OFFCURVE",
"213 366 OFFCURVE",
"213 469 CURVE SMOOTH",
"213 477 OFFCURVE",
"212 497 OFFCURVE",
"212 506 CURVE SMOOTH",
"212 557 OFFCURVE",
"236 603 OFFCURVE",
"274 603 CURVE SMOOTH",
"324 603 OFFCURVE",
"326 523 OFFCURVE",
"348 490 CURVE SMOOTH",
"374 452 OFFCURVE",
"403 449 OFFCURVE",
"419 417 CURVE SMOOTH",
"438 380 OFFCURVE",
"425 279 OFFCURVE",
"473 279 CURVE SMOOTH",
"491 279 OFFCURVE",
"496 297 OFFCURVE",
"496 317 CURVE SMOOTH",
"496 345 OFFCURVE",
"481 375 OFFCURVE",
"481 410 CURVE SMOOTH",
"481 449 OFFCURVE",
"550 482 OFFCURVE",
"550 517 CURVE SMOOTH",
"550 536 OFFCURVE",
"539 548 OFFCURVE",
"520 548 CURVE SMOOTH",
"497 548 OFFCURVE",
"487 539 OFFCURVE",
"463 539 CURVE SMOOTH",
"413 539 OFFCURVE",
"392 570 OFFCURVE",
"392 601 CURVE SMOOTH",
"392 624 OFFCURVE",
"410 644 OFFCURVE",
"439 644 CURVE SMOOTH",
"465 644 OFFCURVE",
"490 632 OFFCURVE",
"521 632 CURVE SMOOTH",
"596 632 OFFCURVE",
"642 712 OFFCURVE",
"685 712 CURVE SMOOTH",
"715 712 OFFCURVE",
"728 687 OFFCURVE",
"728 660 CURVE SMOOTH",
"728 612 OFFCURVE",
"673 615 OFFCURVE",
"650 586 CURVE SMOOTH",
"635 567 OFFCURVE",
"640 546 OFFCURVE",
"632 523 CURVE SMOOTH",
"613 467 OFFCURVE",
"560 443 OFFCURVE",
"560 395 CURVE SMOOTH",
"560 363 OFFCURVE",
"571 345 OFFCURVE",
"571 310 CURVE SMOOTH",
"571 269 OFFCURVE",
"541 249 OFFCURVE",
"541 210 CURVE SMOOTH"
);
}
);
width = 663;
}
);
leftKerningGroup = N;
rightKerningGroup = N;
unicode = 004E;
},
{
glyphname = O;
lastChange = "2024-08-21 15:03:20 +0000";
layers = (
{
guideLines = (
{
position = "{179, 726}";
}
);
layerId = "A0EF8C6F-60C0-4D2A-A4F7-7A1091FA18C1";
paths = (
{
closed = 1;
nodes = (
"288 -57 OFFCURVE",
"319 -23 OFFCURVE",
"357 -15 CURVE SMOOTH",
"403 -6 OFFCURVE",
"450 -15 OFFCURVE",
"486 25 CURVE SMOOTH",
"523 69 OFFCURVE",
"507 126 OFFCURVE",
"528 165 CURVE SMOOTH",
"556 215 OFFCURVE",
"596 222 OFFCURVE",
"612 280 CURVE SMOOTH",
"625 328 OFFCURVE",
"596 368 OFFCURVE",
"610 419 CURVE SMOOTH",
"626 474 OFFCURVE",
"710 497 OFFCURVE",
"710 631 CURVE SMOOTH",
"710 681 OFFCURVE",
"689 718 OFFCURVE",
"644 718 CURVE SMOOTH",
"616 718 OFFCURVE",
"600 696 OFFCURVE",
"600 667 CURVE SMOOTH",
"600 633 OFFCURVE",
"625 606 OFFCURVE",
"625 570 CURVE SMOOTH",
"625 545 OFFCURVE",
"612 532 OFFCURVE",
"596 532 CURVE SMOOTH",
"556 532 OFFCURVE",
"561 587 OFFCURVE",
"526 609 CURVE SMOOTH",
"495 629 OFFCURVE",
"482 610 OFFCURVE",
"463 616 CURVE SMOOTH",
"443 621 OFFCURVE",
"432 647 OFFCURVE",
"401 647 CURVE SMOOTH",
"358 647 OFFCURVE",
"317 593 OFFCURVE",
"317 540 CURVE SMOOTH",
"317 497 OFFCURVE",
"340 486 OFFCURVE",
"346 462 CURVE SMOOTH",
"349 441 OFFCURVE",
"351 396 OFFCURVE",
"385 379 CURVE SMOOTH",
"418 360 OFFCURVE",
"451 375 OFFCURVE",
"477 402 CURVE SMOOTH",
"512 437 OFFCURVE",
"559 408 OFFCURVE",
"542 368 CURVE SMOOTH",
"526 327 OFFCURVE",
"503 323 OFFCURVE",
"487 292 CURVE SMOOTH",
"471 262 OFFCURVE",
"483 218 OFFCURVE",
"470 189 CURVE SMOOTH",
"457 161 OFFCURVE",
"424 149 OFFCURVE",
"399 118 CURVE SMOOTH",
"372 85 OFFCURVE",
"360 38 OFFCURVE",
"292 37 CURVE SMOOTH",
"230 36 OFFCURVE",
"224 85 OFFCURVE",
"196 115 CURVE SMOOTH",
"172 139 OFFCURVE",
"138 137 OFFCURVE",
"126 190 CURVE SMOOTH",
"117 237 OFFCURVE",
"156 256 OFFCURVE",
"156 298 CURVE SMOOTH",
"156 337 OFFCURVE",
"143 370 OFFCURVE",
"159 405 CURVE SMOOTH",
"178 444 OFFCURVE",
"229 455 OFFCURVE",
"259 485 CURVE SMOOTH",
"274 500 OFFCURVE",
"283 519 OFFCURVE",
"283 540 CURVE SMOOTH",
"283 570 OFFCURVE",
"261 593 OFFCURVE",
"230 593 CURVE SMOOTH",
"197 593 OFFCURVE",
"173 576 OFFCURVE",
"154 547 CURVE SMOOTH",
"130 510 OFFCURVE",
"120 461 OFFCURVE",
"104 441 CURVE SMOOTH",
"77 408 OFFCURVE",
"46 393 OFFCURVE",
"35 344 CURVE SMOOTH",
"22 289 OFFCURVE",
"55 260 OFFCURVE",
"55 195 CURVE SMOOTH",
"55 136 OFFCURVE",
"45 112 OFFCURVE",
"64 74 CURVE SMOOTH",
"79 46 OFFCURVE",
"120 32 OFFCURVE",
"152 13 CURVE SMOOTH",
"182 -6 OFFCURVE",
"197 -42 OFFCURVE",
"238 -49 CURVE SMOOTH"
);
},
{
closed = 1;
nodes = (
"488 519 OFFCURVE",
"522 526 OFFCURVE",
"522 499 CURVE SMOOTH",
"522 476 OFFCURVE",
"488 483 OFFCURVE",
"471 478 CURVE SMOOTH",
"456 474 OFFCURVE",
"441 453 OFFCURVE",
"424 462 CURVE SMOOTH",
"396 477 OFFCURVE",
"395 550 OFFCURVE",
"421 559 CURVE SMOOTH",
"439 565 OFFCURVE",
"454 537 OFFCURVE",
"467 530 CURVE SMOOTH"
);
}
);
width = 732;
}
);
leftKerningGroup = O;
rightKerningGroup = O;
unicode = 004F;
},
{
color = 4;
glyphname = Ocircumflex;
lastChange = "2021-12-23 16:49:59 +0000";
layers = (
{
components = (
{
name = O;
}
);
layerId = "A0EF8C6F-60C0-4D2A-A4F7-7A1091FA18C1";
paths = (
{
closed = 1;
nodes = (
"249 645 OFFCURVE",
"296 606 OFFCURVE",
"341 637 CURVE SMOOTH",
"370 657 OFFCURVE",
"374 699 OFFCURVE",
"400 699 CURVE SMOOTH",
"424 699 OFFCURVE",
"424 674 OFFCURVE",
"441 654 CURVE SMOOTH",
"477 611 OFFCURVE",
"532 655 OFFCURVE",
"500 697 CURVE SMOOTH",
"483 719 OFFCURVE",
"467 717 OFFCURVE",
"455 739 CURVE SMOOTH",
"445 757 OFFCURVE",
"440 787 OFFCURVE",
"410 786 CURVE SMOOTH",
"383 785 OFFCURVE",
"368 751 OFFCURVE",
"354 734 CURVE SMOOTH",
"339 716 OFFCURVE",
"304 715 OFFCURVE",
"285 691 CURVE SMOOTH"
);
}
);
width = 732;
}
);
leftKerningGroup = O;
rightKerningGroup = O;
unicode = 00D4;
},
{
color = 4;
glyphname = Odieresis;
lastChange = "2021-12-23 16:50:05 +0000";
layers = (
{
components = (
{
name = O;
}
);
layerId = "A0EF8C6F-60C0-4D2A-A4F7-7A1091FA18C1";
paths = (
{
closed = 1;
nodes = (
"316 616 OFFCURVE",
"350 634 OFFCURVE",
"364 661 CURVE SMOOTH",
"379 691 OFFCURVE",
"371 737 OFFCURVE",
"338 746 CURVE SMOOTH",
"304 754 OFFCURVE",
"274 737 OFFCURVE",
"261 706 CURVE SMOOTH",
"250 678 OFFCURVE",
"253 642 OFFCURVE",
"281 631 CURVE SMOOTH"
);
},
{
closed = 1;
nodes = (
"425 650 OFFCURVE",
"464 639 OFFCURVE",
"490 652 CURVE SMOOTH",
"517 664 OFFCURVE",
"521 699 OFFCURVE",
"511 726 CURVE SMOOTH",
"499 755 OFFCURVE",
"470 770 OFFCURVE",
"440 757 CURVE SMOOTH",
"410 743 OFFCURVE",
"402 708 OFFCURVE",
"413 679 CURVE SMOOTH"
);
}
);
width = 732;
}
);
leftKerningGroup = O;
rightKerningGroup = O;
unicode = 00D6;
},
{
color = 4;
glyphname = Ograve;
lastChange = "2021-12-23 17:09:05 +0000";
layers = (
{
layerId = "A0EF8C6F-60C0-4D2A-A4F7-7A1091FA18C1";
paths = (
{
closed = 1;
nodes = (
"288 -57 OFFCURVE",
"319 -23 OFFCURVE",
"357 -15 CURVE SMOOTH",
"403 -6 OFFCURVE",
"450 -15 OFFCURVE",
"486 25 CURVE SMOOTH",
"523 69 OFFCURVE",
"507 126 OFFCURVE",
"528 165 CURVE SMOOTH",
"556 215 OFFCURVE",
"596 222 OFFCURVE",
"612 280 CURVE SMOOTH",
"625 328 OFFCURVE",
"596 368 OFFCURVE",
"610 419 CURVE SMOOTH",
"627 479 OFFCURVE",
"725 489 OFFCURVE",
"708 638 CURVE SMOOTH",
"698 734 OFFCURVE",
"609 740 OFFCURVE",
"601 675 CURVE SMOOTH",
"596 645 OFFCURVE",
"623 606 OFFCURVE",
"625 576 CURVE SMOOTH",
"628 535 OFFCURVE",
"599 521 OFFCURVE",
"573 540 CURVE SMOOTH",
"556 553 OFFCURVE",
"556 590 OFFCURVE",
"526 609 CURVE SMOOTH",
"495 629 OFFCURVE",
"482 610 OFFCURVE",
"463 616 CURVE SMOOTH",
"443 621 OFFCURVE",
"432 647 OFFCURVE",
"401 646 CURVE SMOOTH",
"358 646 OFFCURVE",
"316 593 OFFCURVE",
"317 540 CURVE SMOOTH",
"318 497 OFFCURVE",
"340 486 OFFCURVE",
"346 462 CURVE SMOOTH",
"349 441 OFFCURVE",
"351 396 OFFCURVE",
"385 379 CURVE SMOOTH",
"418 360 OFFCURVE",
"451 375 OFFCURVE",
"477 402 CURVE SMOOTH",
"512 437 OFFCURVE",
"556 409 OFFCURVE",
"539 369 CURVE SMOOTH",
"523 328 OFFCURVE",
"506 322 OFFCURVE",
"490 291 CURVE SMOOTH",
"474 261 OFFCURVE",
"486 217 OFFCURVE",
"473 188 CURVE SMOOTH",
"460 160 OFFCURVE",
"422 139 OFFCURVE",
"402 117 CURVE SMOOTH",
"378 92 OFFCURVE",
"360 40 OFFCURVE",
"292 39 CURVE SMOOTH",
"230 38 OFFCURVE",
"220 82 OFFCURVE",
"192 112 CURVE SMOOTH",
"168 136 OFFCURVE",
"138 137 OFFCURVE",
"126 190 CURVE SMOOTH",
"117 237 OFFCURVE",
"154 256 OFFCURVE",
"156 298 CURVE SMOOTH",
"157 337 OFFCURVE",
"143 370 OFFCURVE",
"159 405 CURVE SMOOTH",
"182 452 OFFCURVE",
"252 459 OFFCURVE",
"275 507 CURVE SMOOTH",
"298 554 OFFCURVE",
"268 598 OFFCURVE",
"223 593 CURVE SMOOTH",
"141 584 OFFCURVE",
"130 474 OFFCURVE",
"104 441 CURVE SMOOTH",
"77 408 OFFCURVE",
"46 393 OFFCURVE",
"35 344 CURVE SMOOTH",
"22 289 OFFCURVE",
"53 260 OFFCURVE",
"55 195 CURVE SMOOTH",
"57 136 OFFCURVE",
"45 112 OFFCURVE",
"64 74 CURVE SMOOTH",
"79 46 OFFCURVE",
"120 32 OFFCURVE",
"152 13 CURVE SMOOTH",
"182 -6 OFFCURVE",
"197 -42 OFFCURVE",
"238 -49 CURVE SMOOTH"
);
},
{
closed = 1;
nodes = (
"488 517 OFFCURVE",
"524 525 OFFCURVE",
"524 496 CURVE SMOOTH",
"525 472 OFFCURVE",
"488 479 OFFCURVE",
"470 474 CURVE SMOOTH",
"454 469 OFFCURVE",
"437 447 OFFCURVE",
"419 457 CURVE SMOOTH",
"389 472 OFFCURVE",
"388 552 OFFCURVE",
"416 561 CURVE SMOOTH",
"435 567 OFFCURVE",
"451 537 OFFCURVE",
"465 529 CURVE SMOOTH"
);
},
{
closed = 1;
nodes = (
"521 619 OFFCURVE",
"448 651 OFFCURVE",
"424 698 CURVE SMOOTH",
"402 741 OFFCURVE",
"420 780 OFFCURVE",
"455 775 CURVE SMOOTH",
"492 770 OFFCURVE",
"489 736 OFFCURVE",
"522 705 CURVE SMOOTH",
"548 681 OFFCURVE",
"586 669 OFFCURVE",
"589 648 CURVE SMOOTH",
"591 635 OFFCURVE",
"583 619 OFFCURVE",
"563 619 CURVE SMOOTH"
);
}
);
width = 732;
}
);
leftKerningGroup = O;
rightKerningGroup = O;
unicode = 00D2;
},
{
glyphname = Oslash;
lastChange = "2022-01-23 12:42:14 +0000";
layers = (
{
layerId = "A0EF8C6F-60C0-4D2A-A4F7-7A1091FA18C1";
paths = (
{
closed = 1;
nodes = (
"20 178 OFFCURVE",
"78 164 OFFCURVE",
"93 206 CURVE SMOOTH",
"108 251 OFFCURVE",
"61 305 OFFCURVE",
"63 358 CURVE SMOOTH",
"66 410 OFFCURVE",
"111 431 OFFCURVE",
"135 467 CURVE SMOOTH",
"159 505 OFFCURVE",
"161 550 OFFCURVE",
"202 581 CURVE SMOOTH",
"243 613 OFFCURVE",
"286 602 OFFCURVE",
"328 618 CURVE SMOOTH",
"375 637 OFFCURVE",
"394 681 OFFCURVE",
"448 679 CURVE SMOOTH",
"522 677 OFFCURVE",
"523 578 OFFCURVE",
"452 562 CURVE SMOOTH",
"408 553 OFFCURVE",
"376 580 OFFCURVE",
"344 560 CURVE SMOOTH",
"310 541 OFFCURVE",
"305 499 OFFCURVE",
"279 481 CURVE SMOOTH",
"248 458 OFFCURVE",
"224 462 OFFCURVE",
"193 437 CURVE SMOOTH",
"163 413 OFFCURVE",
"141 361 OFFCURVE",
"147 313 CURVE SMOOTH",
"152 269 OFFCURVE",
"170 240 OFFCURVE",
"204 261 CURVE SMOOTH",
"228 276 OFFCURVE",
"238 317 OFFCURVE",
"260 335 CURVE SMOOTH",
"285 353 OFFCURVE",
"301 344 OFFCURVE",
"331 371 CURVE SMOOTH",
"361 398 OFFCURVE",
"346 443 OFFCURVE",
"386 480 CURVE SMOOTH",
"428 519 OFFCURVE",
"513 503 OFFCURVE",
"544 545 CURVE SMOOTH",
"574 588 OFFCURVE",
"557 638 OFFCURVE",
"583 676 CURVE SMOOTH",
"616 723 OFFCURVE",
"696 711 OFFCURVE",
"686 630 CURVE SMOOTH",
"679 572 OFFCURVE",
"615 545 OFFCURVE",
"604 472 CURVE SMOOTH",
"594 407 OFFCURVE",
"648 357 OFFCURVE",
"645 301 CURVE SMOOTH",
"640 232 OFFCURVE",
"585 218 OFFCURVE",
"563 160 CURVE SMOOTH",
"544 112 OFFCURVE",
"557 67 OFFCURVE",
"512 30 CURVE SMOOTH",
"478 1 OFFCURVE",
"420 8 OFFCURVE",
"372 -6 CURVE SMOOTH",
"327 -18 OFFCURVE",
"268 -60 OFFCURVE",
"217 -35 CURVE SMOOTH",
"166 -10 OFFCURVE",
"176 82 OFFCURVE",
"133 104 CURVE SMOOTH",
"102 120 OFFCURVE",
"75 55 OFFCURVE",
"34 50 CURVE SMOOTH",
"-24 43 OFFCURVE",
"-40 104 OFFCURVE",
"-11 140 CURVE SMOOTH"
);
},
{
closed = 1;
nodes = (
"300 216 OFFCURVE",
"210 200 OFFCURVE",
"217 125 CURVE SMOOTH",
"222 73 OFFCURVE",
"264 46 OFFCURVE",
"321 54 CURVE SMOOTH",
"378 62 OFFCURVE",
"383 93 OFFCURVE",
"419 118 CURVE SMOOTH",
"457 143 OFFCURVE",
"492 133 OFFCURVE",
"506 176 CURVE SMOOTH",
"516 209 OFFCURVE",
"498 253 OFFCURVE",
"510 293 CURVE SMOOTH",
"523 337 OFFCURVE",
"560 339 OFFCURVE",
"561 384 CURVE SMOOTH",
"564 441 OFFCURVE",
"508 462 OFFCURVE",
"464 425 CURVE SMOOTH",
"414 383 OFFCURVE",
"402 312 OFFCURVE",
"347 260 CURVE SMOOTH"
);
}
);
width = 733;
}
);
leftKerningGroup = O;
rightKerningGroup = O;
unicode = 00D8;
},
{
glyphname = OE;
lastChange = "2022-01-26 02:20:27 +0000";
layers = (
{
layerId = "A0EF8C6F-60C0-4D2A-A4F7-7A1091FA18C1";
paths = (
{
closed = 1;
nodes = (
"399 685 OFFCURVE",
"407 572 OFFCURVE",
"332 558 CURVE SMOOTH",
"282 550 OFFCURVE",
"241 575 OFFCURVE",
"193 526 CURVE SMOOTH",
"138 468 OFFCURVE",
"175 407 OFFCURVE",
"162 354 CURVE SMOOTH",
"146 287 OFFCURVE",
"101 257 OFFCURVE",
"103 206 CURVE SMOOTH",
"104 159 OFFCURVE",
"135 143 OFFCURVE",
"156 122 CURVE SMOOTH",
"180 98 OFFCURVE",
"186 62 OFFCURVE",
"214 59 CURVE SMOOTH",
"244 56 OFFCURVE",
"264 93 OFFCURVE",
"300 101 CURVE SMOOTH",
"336 109 OFFCURVE",
"377 91 OFFCURVE",
"414 131 CURVE SMOOTH",
"460 181 OFFCURVE",
"411 229 OFFCURVE",
"414 275 CURVE SMOOTH",
"418 324 OFFCURVE",
"474 348 OFFCURVE",
"461 399 CURVE SMOOTH",
"449 445 OFFCURVE",
"397 444 OFFCURVE",
"371 414 CURVE SMOOTH",
"339 378 OFFCURVE",
"357 308 OFFCURVE",
"290 291 CURVE SMOOTH",
"232 275 OFFCURVE",
"201 337 OFFCURVE",
"231 382 CURVE SMOOTH",
"258 422 OFFCURVE",
"300 425 OFFCURVE",
"321 445 CURVE SMOOTH",
"347 470 OFFCURVE",
"356 521 OFFCURVE",
"408 526 CURVE SMOOTH",
"447 530 OFFCURVE",
"454 464 OFFCURVE",
"495 470 CURVE SMOOTH",
"540 478 OFFCURVE",
"518 532 OFFCURVE",
"543 556 CURVE SMOOTH",
"566 578 OFFCURVE",
"584 558 OFFCURVE",
"609 574 CURVE SMOOTH",
"640 594 OFFCURVE",
"646 646 OFFCURVE",
"708 648 CURVE SMOOTH",
"758 650 OFFCURVE",
"765 596 OFFCURVE",
"792 582 CURVE SMOOTH",
"838 558 OFFCURVE",
"879 567 OFFCURVE",
"907 539 CURVE SMOOTH",
"965 481 OFFCURVE",
"914 399 OFFCURVE",
"852 423 CURVE SMOOTH",
"815 437 OFFCURVE",
"829 476 OFFCURVE",
"787 507 CURVE SMOOTH",
"691 579 OFFCURVE",
"503 452 OFFCURVE",
"555 351 CURVE SMOOTH",
"584 294 OFFCURVE",
"656 382 OFFCURVE",
"735 390 CURVE SMOOTH",
"789 395 OFFCURVE",
"790 311 OFFCURVE",
"730 280 CURVE SMOOTH",
"678 254 OFFCURVE",
"594 260 OFFCURVE",
"545 230 CURVE SMOOTH",
"505 205 OFFCURVE",
"519 125 OFFCURVE",
"553 114 CURVE SMOOTH",
"587 103 OFFCURVE",
"610 114 OFFCURVE",
"629 95 CURVE SMOOTH",
"647 77 OFFCURVE",
"662 33 OFFCURVE",
"703 36 CURVE SMOOTH",
"777 41 OFFCURVE",
"751 166 OFFCURVE",
"810 193 CURVE SMOOTH",
"874 222 OFFCURVE",
"922 143 OFFCURVE",
"858 52 CURVE SMOOTH",
"812 -13 OFFCURVE",
"743 -48 OFFCURVE",
"692 -50 CURVE SMOOTH",
"645 -52 OFFCURVE",
"636 -35 OFFCURVE",
"615 -28 CURVE SMOOTH",
"587 -19 OFFCURVE",
"553 -26 OFFCURVE",
"524 -5 CURVE SMOOTH",
"496 15 OFFCURVE",
"500 73 OFFCURVE",
"454 73 CURVE SMOOTH",
"399 71 OFFCURVE",
"362 -27 OFFCURVE",
"304 -37 CURVE SMOOTH",
"244 -47 OFFCURVE",
"214 -7 OFFCURVE",
"179 5 CURVE SMOOTH",
"135 19 OFFCURVE",
"68 -1 OFFCURVE",
"41 59 CURVE SMOOTH",
"13 121 OFFCURVE",
"49 211 OFFCURVE",
"55 273 CURVE SMOOTH",
"63 348 OFFCURVE",
"23 384 OFFCURVE",
"49 453 CURVE SMOOTH",
"71 513 OFFCURVE",
"119 526 OFFCURVE",
"155 558 CURVE SMOOTH",
"204 601 OFFCURVE",
"212 678 OFFCURVE",
"322 682 CURVE SMOOTH"
);
}
);
width = 963;
}
);
leftKerningGroup = O;
unicode = 0152;
},
{
glyphname = P;
lastChange = "2024-08-21 14:41:29 +0000";
layers = (
{
layerId = "A0EF8C6F-60C0-4D2A-A4F7-7A1091FA18C1";
paths = (
{
closed = 1;
nodes = (
"371 644 OFFCURVE",
"408 678 OFFCURVE",
"448 655 CURVE SMOOTH",
"483 634 OFFCURVE",
"483 590 OFFCURVE",
"502 572 CURVE SMOOTH",
"528 547 OFFCURVE",
"566 547 OFFCURVE",
"573 505 CURVE SMOOTH",
"580 456 OFFCURVE",
"533 441 OFFCURVE",
"527 410 CURVE SMOOTH",
"521 383 OFFCURVE",
"524 356 OFFCURVE",
"521 332 CURVE SMOOTH",
"516 297 OFFCURVE",
"476 277 OFFCURVE",
"439 285 CURVE SMOOTH",
"399 294 OFFCURVE",
"342 331 OFFCURVE",
"304 312 CURVE SMOOTH",
"273 297 OFFCURVE",
"278 245 OFFCURVE",
"265 210 CURVE SMOOTH",
"254 181 OFFCURVE",
"220 154 OFFCURVE",
"214 131 CURVE SMOOTH",
"208 110 OFFCURVE",
"217 86 OFFCURVE",
"240 82 CURVE SMOOTH",
"269 77 OFFCURVE",
"295 103 OFFCURVE",
"327 94 CURVE SMOOTH",
"371 81 OFFCURVE",
"376 15 OFFCURVE",
"332 0 CURVE SMOOTH",
"294 -13 OFFCURVE",
"230 4 OFFCURVE",
"191 0 CURVE SMOOTH",
"153 -4 OFFCURVE",
"122 -36 OFFCURVE",
"85 -37 CURVE SMOOTH",
"34 -39 OFFCURVE",
"12 30 OFFCURVE",
"50 57 CURVE SMOOTH",
"81 79 OFFCURVE",
"119 56 OFFCURVE",
"138 86 CURVE SMOOTH",
"161 123 OFFCURVE",
"138 195 OFFCURVE",
"155 250 CURVE SMOOTH",
"170 297 OFFCURVE",
"208 311 OFFCURVE",
"217 351 CURVE SMOOTH",
"227 394 OFFCURVE",
"210 419 OFFCURVE",
"216 455 CURVE SMOOTH",
"224 501 OFFCURVE",
"283 522 OFFCURVE",
"269 559 CURVE SMOOTH",
"256 592 OFFCURVE",
"193 567 OFFCURVE",
"160 586 CURVE SMOOTH",
"121 609 OFFCURVE",
"130 682 OFFCURVE",
"186 692 CURVE SMOOTH",
"248 703 OFFCURVE",
"284 652 OFFCURVE",
"330 648 CURVE SMOOTH"
);
},
{
closed = 1;
nodes = (
"339 579 OFFCURVE",
"352 511 OFFCURVE",
"337 466 CURVE SMOOTH",
"326 436 OFFCURVE",
"288 410 OFFCURVE",
"300 382 CURVE SMOOTH",
"314 351 OFFCURVE",
"356 382 OFFCURVE",
"385 386 CURVE SMOOTH",
"413 390 OFFCURVE",
"458 371 OFFCURVE",
"473 411 CURVE SMOOTH",
"495 471 OFFCURVE",
"429 591 OFFCURVE",
"370 583 CURVE SMOOTH"
);
}
);
width = 581;
}
);
leftKerningGroup = P;
rightKerningGroup = P;
unicode = 0050;
},
{
glyphname = Q;
lastChange = "2024-08-21 14:40:20 +0000";
layers = (
{
layerId = "A0EF8C6F-60C0-4D2A-A4F7-7A1091FA18C1";
paths = (
{
closed = 1;
nodes = (
"438 673 OFFCURVE",
"493 646 OFFCURVE",
"509 621 CURVE SMOOTH",
"526 595 OFFCURVE",
"522 564 OFFCURVE",
"534 544 CURVE SMOOTH",
"555 514 OFFCURVE",
"593 507 OFFCURVE",
"594 423 CURVE SMOOTH",
"597 338 OFFCURVE",
"514 280 OFFCURVE",
"510 232 CURVE SMOOTH",
"506 180 OFFCURVE",
"519 160 OFFCURVE",
"513 136 CURVE SMOOTH",
"506 110 OFFCURVE",
"471 107 OFFCURVE",
"453 93 CURVE SMOOTH",
"429 75 OFFCURVE",
"425 65 OFFCURVE",
"381 41 CURVE SMOOTH",
"338 17 OFFCURVE",
"307 63 OFFCURVE",
"259 67 CURVE SMOOTH",
"208 71 OFFCURVE",
"200 19 OFFCURVE",
"233 13 CURVE SMOOTH",
"266 7 OFFCURVE",
"299 4 OFFCURVE",
"318 -15 CURVE SMOOTH",
"338 -35 OFFCURVE",
"329 -57 OFFCURVE",
"346 -71 CURVE SMOOTH",
"360 -83 OFFCURVE",
"384 -71 OFFCURVE",
"401 -83 CURVE SMOOTH",
"418 -95 OFFCURVE",
"418 -138 OFFCURVE",
"457 -139 CURVE SMOOTH",
"505 -140 OFFCURVE",
"501 -82 OFFCURVE",
"542 -49 CURVE SMOOTH",
"580 -18 OFFCURVE",
"619 -40 OFFCURVE",
"622 -79 CURVE SMOOTH",
"627 -138 OFFCURVE",
"576 -212 OFFCURVE",
"471 -212 CURVE SMOOTH",
"397 -212 OFFCURVE",
"385 -161 OFFCURVE",
"353 -147 CURVE SMOOTH",
"323 -134 OFFCURVE",
"297 -147 OFFCURVE",
"278 -139 CURVE SMOOTH",
"250 -127 OFFCURVE",
"246 -83 OFFCURVE",
"229 -63 CURVE SMOOTH",
"214 -47 OFFCURVE",
"184 -42 OFFCURVE",
"162 -45 CURVE SMOOTH",
"133 -49 OFFCURVE",
"111 -76 OFFCURVE",
"66 -71 CURVE SMOOTH",
"5 -63 OFFCURVE",
"3 6 OFFCURVE",
"71 31 CURVE SMOOTH",
"115 47 OFFCURVE",
"163 27 OFFCURVE",
"169 64 CURVE SMOOTH",
"175 103 OFFCURVE",
"117 118 OFFCURVE",
"118 158 CURVE SMOOTH",
"118 203 OFFCURVE",
"158 218 OFFCURVE",
"163 262 CURVE SMOOTH",
"170 311 OFFCURVE",
"137 350 OFFCURVE",
"143 405 CURVE SMOOTH",
"149 457 OFFCURVE",
"189 486 OFFCURVE",
"204 510 CURVE SMOOTH",
"218 535 OFFCURVE",
"221 560 OFFCURVE",
"248 580 CURVE SMOOTH",
"277 599 OFFCURVE",
"314 597 OFFCURVE",
"340 609 CURVE SMOOTH",
"367 621 OFFCURVE",
"380 658 OFFCURVE",
"412 665 CURVE SMOOTH"
);
},
{
closed = 1;
nodes = (
"317 550 OFFCURVE",
"278 498 OFFCURVE",
"269 455 CURVE SMOOTH",
"261 415 OFFCURVE",
"279 396 OFFCURVE",
"274 361 CURVE SMOOTH",
"267 314 OFFCURVE",
"221 266 OFFCURVE",
"220 222 CURVE SMOOTH",
"219 156 OFFCURVE",
"273 112 OFFCURVE",
"334 131 CURVE SMOOTH",
"378 145 OFFCURVE",
"379 183 OFFCURVE",
"400 199 CURVE SMOOTH",
"420 215 OFFCURVE",
"452 221 OFFCURVE",
"455 254 CURVE SMOOTH",
"459 282 OFFCURVE",
"446 311 OFFCURVE",
"452 345 CURVE SMOOTH",
"461 396 OFFCURVE",
"525 423 OFFCURVE",
"509 482 CURVE SMOOTH",
"498 520 OFFCURVE",
"450 505 OFFCURVE",
"429 512 CURVE SMOOTH",
"406 520 OFFCURVE",
"397 550 OFFCURVE",
"361 550 CURVE SMOOTH"
);
}
);
width = 633;
}
);
unicode = 0051;
},
{
glyphname = R;
lastChange = "2024-08-22 09:21:08 +0000";
layers = (
{
background = {
paths = (
{
closed = 1;
nodes = (
"251 649 OFFCURVE",
"287 610 OFFCURVE",
"323 610 CURVE SMOOTH",
"355 610 OFFCURVE",
"394 627 OFFCURVE",
"426 627 CURVE SMOOTH",
"463 627 OFFCURVE",
"494 597 OFFCURVE",
"499 561 CURVE SMOOTH",
"504 527 OFFCURVE",
"478 508 OFFCURVE",
"482 482 CURVE SMOOTH",
"487 451 OFFCURVE",
"519 438 OFFCURVE",
"524 400 CURVE SMOOTH",
"529 363 OFFCURVE",
"504 334 OFFCURVE",
"468 334 CURVE SMOOTH",
"437 334 OFFCURVE",
"408 367 OFFCURVE",
"384 372 CURVE SMOOTH",
"362 377 OFFCURVE",
"346 360 OFFCURVE",
"353 341 CURVE SMOOTH",
"360 321 OFFCURVE",
"402 315 OFFCURVE",
"406 289 CURVE SMOOTH",
"409 261 OFFCURVE",
"389 256 OFFCURVE",
"392 235 CURVE SMOOTH",
"394 214 OFFCURVE",
"450 194 OFFCURVE",
"454 154 CURVE SMOOTH",
"459 123 OFFCURVE",
"423 105 OFFCURVE",
"427 81 CURVE SMOOTH",
"430 63 OFFCURVE",
"444 50 OFFCURVE",
"470 56 CURVE SMOOTH",
"497 62 OFFCURVE",
"519 94 OFFCURVE",
"545 94 CURVE SMOOTH",
"566 94 OFFCURVE",
"583 75 OFFCURVE",
"584 50 CURVE SMOOTH",
"587 9 OFFCURVE",
"537 -63 OFFCURVE",
"459 -63 CURVE SMOOTH",
"411 -63 OFFCURVE",
"380 -24 OFFCURVE",
"376 16 CURVE SMOOTH",
"371 52 OFFCURVE",
"385 80 OFFCURVE",
"378 102 CURVE SMOOTH",
"370 132 OFFCURVE",
"317 149 OFFCURVE",
"310 186 CURVE SMOOTH",
"303 218 OFFCURVE",
"319 241 OFFCURVE",
"314 276 CURVE SMOOTH",
"312 299 OFFCURVE",
"302 321 OFFCURVE",
"285 324 CURVE SMOOTH",
"270 327 OFFCURVE",
"261 317 OFFCURVE",
"259 302 CURVE SMOOTH",
"257 290 OFFCURVE",
"264 277 OFFCURVE",
"254 261 CURVE SMOOTH",
"245 247 OFFCURVE",
"225 251 OFFCURVE",
"217 235 CURVE SMOOTH",
"209 220 OFFCURVE",
"223 196 OFFCURVE",
"220 169 CURVE SMOOTH",
"215 143 OFFCURVE",
"171 132 OFFCURVE",
"181 102 CURVE SMOOTH",
"193 69 OFFCURVE",
"243 102 OFFCURVE",
"270 85 CURVE SMOOTH",
"301 67 OFFCURVE",
"302 6 OFFCURVE",
"246 -4 CURVE SMOOTH",
"218 -9 OFFCURVE",
"192 17 OFFCURVE",
"160 11 CURVE SMOOTH",
"133 6 OFFCURVE",
"119 -20 OFFCURVE",
"76 -24 CURVE SMOOTH",
"18 -29 OFFCURVE",
"1 47 OFFCURVE",
"44 65 CURVE SMOOTH",
"65 74 OFFCURVE",
"80 70 OFFCURVE",
"95 88 CURVE SMOOTH",
"122 121 OFFCURVE",
"93 170 OFFCURVE",
"108 209 CURVE SMOOTH",
"123 244 OFFCURVE",
"155 251 OFFCURVE",
"167 301 CURVE SMOOTH",
"179 352 OFFCURVE",
"163 396 OFFCURVE",
"177 431 CURVE SMOOTH",
"195 472 OFFCURVE",
"254 492 OFFCURVE",
"262 518 CURVE SMOOTH",
"269 542 OFFCURVE",
"260 561 OFFCURVE",
"241 558 CURVE SMOOTH",
"219 555 OFFCURVE",
"209 542 OFFCURVE",
"188 542 CURVE SMOOTH",
"145 542 OFFCURVE",
"132 628 OFFCURVE",
"201 640 CURVE SMOOTH"
);
},
{
closed = 1;
nodes = (
"352 554 OFFCURVE",
"328 546 OFFCURVE",
"320 530 CURVE SMOOTH",
"310 514 OFFCURVE",
"316 490 OFFCURVE",
"310 472 CURVE SMOOTH",
"302 455 OFFCURVE",
"292 441 OFFCURVE",
"281 431 CURVE SMOOTH",
"256 406 OFFCURVE",
"271 386 OFFCURVE",
"296 408 CURVE SMOOTH",
"306 418 OFFCURVE",
"330 428 OFFCURVE",
"344 430 CURVE SMOOTH",
"367 433 OFFCURVE",
"390 412 OFFCURVE",
"412 420 CURVE SMOOTH",
"431 426 OFFCURVE",
"434 473 OFFCURVE",
"417 485 CURVE SMOOTH",
"409 490 OFFCURVE",
"397 489 OFFCURVE",
"389 501 CURVE SMOOTH",
"381 513 OFFCURVE",
"391 537 OFFCURVE",
"371 546 CURVE SMOOTH"
);
},
{
closed = 1;
nodes = (
"239 649 OFFCURVE",
"276 610 OFFCURVE",
"312 610 CURVE SMOOTH",
"344 610 OFFCURVE",
"383 627 OFFCURVE",
"415 627 CURVE SMOOTH",
"452 627 OFFCURVE",
"483 597 OFFCURVE",
"489 561 CURVE SMOOTH",
"494 527 OFFCURVE",
"469 508 OFFCURVE",
"473 482 CURVE SMOOTH",
"479 451 OFFCURVE",
"511 438 OFFCURVE",
"517 400 CURVE SMOOTH",
"522 363 OFFCURVE",
"498 334 OFFCURVE",
"462 334 CURVE SMOOTH",
"431 334 OFFCURVE",
"401 367 OFFCURVE",
"377 372 CURVE SMOOTH",
"355 377 OFFCURVE",
"339 363 OFFCURVE",
"347 336 CURVE SMOOTH",
"364 289 OFFCURVE",
"428 282 OFFCURVE",
"443 228 CURVE SMOOTH",
"455 180 OFFCURVE",
"420 158 OFFCURVE",
"424 134 CURVE SMOOTH",
"428 116 OFFCURVE",
"442 103 OFFCURVE",
"468 109 CURVE SMOOTH",
"495 115 OFFCURVE",
"516 147 OFFCURVE",
"542 147 CURVE SMOOTH",
"563 147 OFFCURVE",
"580 128 OFFCURVE",
"582 103 CURVE SMOOTH",
"584 62 OFFCURVE",
"537 -10 OFFCURVE",
"459 -10 CURVE SMOOTH",
"411 -10 OFFCURVE",
"380 29 OFFCURVE",
"374 69 CURVE SMOOTH",
"370 105 OFFCURVE",
"382 133 OFFCURVE",
"375 155 CURVE SMOOTH",
"365 185 OFFCURVE",
"314 202 OFFCURVE",
"305 239 CURVE SMOOTH",
"300 261 OFFCURVE",
"306 284 OFFCURVE",
"302 302 CURVE SMOOTH",
"297 327 OFFCURVE",
"257 336 OFFCURVE",
"253 302 CURVE SMOOTH",
"252 290 OFFCURVE",
"259 277 OFFCURVE",
"249 261 CURVE SMOOTH",
"240 247 OFFCURVE",
"220 251 OFFCURVE",
"212 235 CURVE SMOOTH",
"205 220 OFFCURVE",
"219 196 OFFCURVE",
"217 169 CURVE SMOOTH",
"212 143 OFFCURVE",
"168 132 OFFCURVE",
"179 102 CURVE SMOOTH",
"191 69 OFFCURVE",
"241 102 OFFCURVE",
"268 85 CURVE SMOOTH",
"299 67 OFFCURVE",
"301 6 OFFCURVE",
"246 -4 CURVE SMOOTH",
"218 -9 OFFCURVE",
"191 17 OFFCURVE",
"159 11 CURVE SMOOTH",
"132 6 OFFCURVE",
"119 -20 OFFCURVE",
"76 -24 CURVE SMOOTH",
"18 -29 OFFCURVE",
"0 47 OFFCURVE",
"42 65 CURVE SMOOTH",
"63 74 OFFCURVE",
"78 70 OFFCURVE",
"93 88 CURVE SMOOTH",
"119 121 OFFCURVE",
"90 170 OFFCURVE",
"104 209 CURVE SMOOTH",
"118 244 OFFCURVE",
"150 251 OFFCURVE",
"161 301 CURVE SMOOTH",
"172 352 OFFCURVE",
"156 396 OFFCURVE",
"169 431 CURVE SMOOTH",
"186 472 OFFCURVE",
"245 492 OFFCURVE",
"253 518 CURVE SMOOTH",
"259 542 OFFCURVE",
"250 561 OFFCURVE",
"231 558 CURVE SMOOTH",
"209 555 OFFCURVE",
"199 542 OFFCURVE",
"178 542 CURVE SMOOTH",
"135 542 OFFCURVE",
"121 628 OFFCURVE",
"189 640 CURVE SMOOTH"
);
},
{
closed = 1;
nodes = (
"342 546 OFFCURVE",
"320 539 OFFCURVE",
"313 525 CURVE SMOOTH",
"304 510 OFFCURVE",
"310 488 OFFCURVE",
"305 472 CURVE SMOOTH",
"298 457 OFFCURVE",
"289 444 OFFCURVE",
"279 435 CURVE SMOOTH",
"257 412 OFFCURVE",
"271 394 OFFCURVE",
"293 414 CURVE SMOOTH",
"302 423 OFFCURVE",
"324 432 OFFCURVE",
"336 434 CURVE SMOOTH",
"357 437 OFFCURVE",
"378 418 OFFCURVE",
"398 425 CURVE SMOOTH",
"415 431 OFFCURVE",
"417 473 OFFCURVE",
"402 484 CURVE SMOOTH",
"394 488 OFFCURVE",
"384 488 OFFCURVE",
"376 498 CURVE SMOOTH",
"369 509 OFFCURVE",
"377 531 OFFCURVE",
"359 539 CURVE SMOOTH"
);
}
);
};
layerId = "A0EF8C6F-60C0-4D2A-A4F7-7A1091FA18C1";
paths = (
{
closed = 1;
nodes = (
"239 649 OFFCURVE",
"276 610 OFFCURVE",
"312 610 CURVE SMOOTH",
"344 610 OFFCURVE",
"383 627 OFFCURVE",
"415 627 CURVE SMOOTH",
"452 627 OFFCURVE",
"483 597 OFFCURVE",
"489 561 CURVE SMOOTH",
"494 527 OFFCURVE",
"469 508 OFFCURVE",
"473 482 CURVE SMOOTH",
"479 451 OFFCURVE",
"511 438 OFFCURVE",
"517 400 CURVE SMOOTH",
"522 363 OFFCURVE",
"498 334 OFFCURVE",
"462 334 CURVE SMOOTH",
"431 334 OFFCURVE",
"401 367 OFFCURVE",
"377 372 CURVE SMOOTH",
"355 377 OFFCURVE",
"339 363 OFFCURVE",
"347 336 CURVE SMOOTH",
"364 289 OFFCURVE",
"428 282 OFFCURVE",
"443 228 CURVE SMOOTH",
"455 180 OFFCURVE",
"420 158 OFFCURVE",
"424 134 CURVE SMOOTH",
"428 116 OFFCURVE",
"442 103 OFFCURVE",
"468 109 CURVE SMOOTH",
"495 115 OFFCURVE",
"516 147 OFFCURVE",
"542 147 CURVE SMOOTH",
"563 147 OFFCURVE",
"580 128 OFFCURVE",
"582 103 CURVE SMOOTH",
"584 62 OFFCURVE",
"537 -10 OFFCURVE",
"459 -10 CURVE SMOOTH",
"411 -10 OFFCURVE",
"380 29 OFFCURVE",
"374 69 CURVE SMOOTH",
"370 105 OFFCURVE",
"382 133 OFFCURVE",
"375 155 CURVE SMOOTH",
"365 185 OFFCURVE",
"320 204 OFFCURVE",
"308 233 CURVE SMOOTH",
"298 257 OFFCURVE",
"313 289 OFFCURVE",
"297 313 CURVE SMOOTH",
"277 344 OFFCURVE",
"234 309 OFFCURVE",
"220 267 CURVE SMOOTH",
"209 233 OFFCURVE",
"225 206 OFFCURVE",
"218 172 CURVE SMOOTH",
"212 143 OFFCURVE",
"168 132 OFFCURVE",
"179 102 CURVE SMOOTH",
"191 69 OFFCURVE",
"241 102 OFFCURVE",
"268 85 CURVE SMOOTH",
"299 67 OFFCURVE",
"301 6 OFFCURVE",
"246 -4 CURVE SMOOTH",
"218 -9 OFFCURVE",
"191 17 OFFCURVE",
"159 11 CURVE SMOOTH",
"132 6 OFFCURVE",
"119 -20 OFFCURVE",
"76 -24 CURVE SMOOTH",
"18 -29 OFFCURVE",
"0 47 OFFCURVE",
"42 65 CURVE SMOOTH",
"63 74 OFFCURVE",
"78 70 OFFCURVE",
"93 88 CURVE SMOOTH",
"119 121 OFFCURVE",
"90 170 OFFCURVE",
"104 209 CURVE SMOOTH",
"118 244 OFFCURVE",
"150 251 OFFCURVE",
"161 301 CURVE SMOOTH",
"172 352 OFFCURVE",
"156 396 OFFCURVE",
"169 431 CURVE SMOOTH",
"186 472 OFFCURVE",
"245 492 OFFCURVE",
"253 518 CURVE SMOOTH",
"259 542 OFFCURVE",
"250 561 OFFCURVE",
"231 558 CURVE SMOOTH",
"209 555 OFFCURVE",
"199 542 OFFCURVE",
"178 542 CURVE SMOOTH",
"135 542 OFFCURVE",
"121 628 OFFCURVE",
"189 640 CURVE SMOOTH"
);
},
{
closed = 1;
nodes = (
"342 546 OFFCURVE",
"320 539 OFFCURVE",
"313 525 CURVE SMOOTH",
"304 510 OFFCURVE",
"310 491 OFFCURVE",
"305 472 CURVE SMOOTH",
"301 456 OFFCURVE",
"289 444 OFFCURVE",
"279 435 CURVE SMOOTH",
"257 412 OFFCURVE",
"271 394 OFFCURVE",
"293 414 CURVE SMOOTH",
"302 423 OFFCURVE",
"324 432 OFFCURVE",
"336 434 CURVE SMOOTH",
"357 437 OFFCURVE",
"378 418 OFFCURVE",
"398 425 CURVE SMOOTH",
"419 432 OFFCURVE",
"420 469 OFFCURVE",
"405 482 CURVE SMOOTH",
"394 491 OFFCURVE",
"384 488 OFFCURVE",
"376 498 CURVE SMOOTH",
"369 509 OFFCURVE",
"377 531 OFFCURVE",
"359 539 CURVE SMOOTH"
);
}
);
width = 608;
}
);
leftKerningGroup = R;
rightKerningGroup = R;
unicode = 0052;
},
{
glyphname = S;
lastChange = "2024-08-21 15:06:44 +0000";
layers = (
{
layerId = "A0EF8C6F-60C0-4D2A-A4F7-7A1091FA18C1";
paths = (
{
closed = 1;
nodes = (
"422 -20 OFFCURVE",
"392 -7 OFFCURVE",
"358 -19 CURVE SMOOTH",
"320 -31 OFFCURVE",
"299 -52 OFFCURVE",
"259 -42 CURVE SMOOTH",
"218 -33 OFFCURVE",
"211 3 OFFCURVE",
"171 16 CURVE SMOOTH",
"126 31 OFFCURVE",
"70 1 OFFCURVE",
"41 43 CURVE SMOOTH",
"18 76 OFFCURVE",
"60 117 OFFCURVE",
"70 154 CURVE SMOOTH",
"79 188 OFFCURVE",
"70 227 OFFCURVE",
"105 259 CURVE SMOOTH",
"140 291 OFFCURVE",
"190 274 OFFCURVE",
"192 225 CURVE SMOOTH",
"194 172 OFFCURVE",
"136 164 OFFCURVE",
"153 120 CURVE SMOOTH",
"171 74 OFFCURVE",
"219 108 OFFCURVE",
"264 96 CURVE SMOOTH",
"287 90 OFFCURVE",
"301 62 OFFCURVE",
"322 57 CURVE SMOOTH",
"349 51 OFFCURVE",
"381 58 OFFCURVE",
"385 79 CURVE SMOOTH",
"389 101 OFFCURVE",
"372 113 OFFCURVE",
"374 134 CURVE SMOOTH",
"376 157 OFFCURVE",
"405 182 OFFCURVE",
"374 227 CURVE SMOOTH",
"336 284 OFFCURVE",
"264 252 OFFCURVE",
"236 283 CURVE SMOOTH",
"215 307 OFFCURVE",
"228 337 OFFCURVE",
"210 366 CURVE SMOOTH",
"192 396 OFFCURVE",
"128 400 OFFCURVE",
"140 475 CURVE SMOOTH",
"154 566 OFFCURVE",
"229 560 OFFCURVE",
"262 584 CURVE SMOOTH",
"298 608 OFFCURVE",
"291 678 OFFCURVE",
"343 678 CURVE SMOOTH",
"399 678 OFFCURVE",
"408 589 OFFCURVE",
"437 566 CURVE SMOOTH",
"470 540 OFFCURVE",
"501 555 OFFCURVE",
"527 522 CURVE SMOOTH",
"552 491 OFFCURVE",
"532 425 OFFCURVE",
"476 432 CURVE SMOOTH",
"414 440 OFFCURVE",
"403 517 OFFCURVE",
"354 540 CURVE SMOOTH",
"306 562 OFFCURVE",
"253 525 OFFCURVE",
"253 475 CURVE SMOOTH",
"253 428 OFFCURVE",
"290 435 OFFCURVE",
"308 411 CURVE SMOOTH",
"326 387 OFFCURVE",
"312 361 OFFCURVE",
"335 338 CURVE SMOOTH",
"375 298 OFFCURVE",
"410 330 OFFCURVE",
"455 307 CURVE SMOOTH",
"489 289 OFFCURVE",
"510 250 OFFCURVE",
"501 211 CURVE SMOOTH",
"489 159 OFFCURVE",
"455 156 OFFCURVE",
"453 125 CURVE SMOOTH",
"451 95 OFFCURVE",
"476 44 OFFCURVE",
"447 9 CURVE SMOOTH"
);
}
);
width = 513;
}
);
leftKerningGroup = S;
rightKerningGroup = S;
unicode = 0053;
},
{
glyphname = T;
lastChange = "2024-08-21 15:12:48 +0000";
layers = (
{
layerId = "A0EF8C6F-60C0-4D2A-A4F7-7A1091FA18C1";
paths = (
{
closed = 1;
nodes = (
"285 620 OFFCURVE",
"289 607 OFFCURVE",
"317 608 CURVE SMOOTH",
"351 609 OFFCURVE",
"364 652 OFFCURVE",
"402 652 CURVE SMOOTH",
"438 652 OFFCURVE",
"456 627 OFFCURVE",
"491 627 CURVE SMOOTH",
"528 627 OFFCURVE",
"546 669 OFFCURVE",
"578 676 CURVE SMOOTH",
"605 683 OFFCURVE",
"629 661 OFFCURVE",
"622 627 CURVE SMOOTH",
"616 594 OFFCURVE",
"596 574 OFFCURVE",
"594 550 CURVE SMOOTH",
"592 527 OFFCURVE",
"604 510 OFFCURVE",
"599 482 CURVE SMOOTH",
"588 418 OFFCURVE",
"511 414 OFFCURVE",
"499 475 CURVE SMOOTH",
"492 508 OFFCURVE",
"515 526 OFFCURVE",
"502 551 CURVE SMOOTH",
"487 583 OFFCURVE",
"405 576 OFFCURVE",
"383 530 CURVE SMOOTH",
"351 464 OFFCURVE",
"377 395 OFFCURVE",
"368 342 CURVE SMOOTH",
"361 300 OFFCURVE",
"330 284 OFFCURVE",
"320 245 CURVE SMOOTH",
"314 220 OFFCURVE",
"325 190 OFFCURVE",
"323 166 CURVE SMOOTH",
"319 139 OFFCURVE",
"291 111 OFFCURVE",
"303 83 CURVE SMOOTH",
"315 53 OFFCURVE",
"364 86 OFFCURVE",
"397 80 CURVE SMOOTH",
"451 68 OFFCURVE",
"442 -10 OFFCURVE",
"388 -17 CURVE SMOOTH",
"353 -22 OFFCURVE",
"330 1 OFFCURVE",
"301 -4 CURVE SMOOTH",
"268 -10 OFFCURVE",
"265 -32 OFFCURVE",
"234 -32 CURVE SMOOTH",
"207 -32 OFFCURVE",
"198 -9 OFFCURVE",
"172 -7 CURVE SMOOTH",
"150 -5 OFFCURVE",
"127 -21 OFFCURVE",
"93 -12 CURVE SMOOTH",
"42 1 OFFCURVE",
"49 84 OFFCURVE",
"112 84 CURVE SMOOTH",
"151 84 OFFCURVE",
"193 54 OFFCURVE",
"216 82 CURVE SMOOTH",
"234 105 OFFCURVE",
"206 141 OFFCURVE",
"211 179 CURVE SMOOTH",
"217 219 OFFCURVE",
"255 251 OFFCURVE",
"260 284 CURVE SMOOTH",
"265 318 OFFCURVE",
"241 342 OFFCURVE",
"246 381 CURVE SMOOTH",
"249 417 OFFCURVE",
"291 441 OFFCURVE",
"291 490 CURVE SMOOTH",
"291 543 OFFCURVE",
"217 546 OFFCURVE",
"183 511 CURVE SMOOTH",
"153 482 OFFCURVE",
"148 445 OFFCURVE",
"118 420 CURVE SMOOTH",
"77 387 OFFCURVE",
"22 409 OFFCURVE",
"47 470 CURVE SMOOTH",
"58 498 OFFCURVE",
"79 507 OFFCURVE",
"90 533 CURVE SMOOTH",
"100 561 OFFCURVE",
"88 598 OFFCURVE",
"116 611 CURVE SMOOTH",
"150 627 OFFCURVE",
"168 590 OFFCURVE",
"196 590 CURVE SMOOTH",
"222 590 OFFCURVE",
"231 618 OFFCURVE",
"259 619 CURVE SMOOTH"
);
}
);
width = 609;
}
);
leftKerningGroup = T;
rightKerningGroup = T;
unicode = 0054;
},
{
glyphname = U;
lastChange = "2024-08-23 13:23:24 +0000";
layers = (
{
layerId = "A0EF8C6F-60C0-4D2A-A4F7-7A1091FA18C1";
paths = (
{
closed = 1;
nodes = (
"385 676 OFFCURVE",
"407 658 OFFCURVE",
"407 632 CURVE SMOOTH",
"407 605 OFFCURVE",
"396 597 OFFCURVE",
"396 576 CURVE SMOOTH",
"396 555 OFFCURVE",
"405 540 OFFCURVE",
"405 509 CURVE SMOOTH",
"405 437 OFFCURVE",
"259 366 OFFCURVE",
"252 310 CURVE SMOOTH",
"248 276 OFFCURVE",
"265 261 OFFCURVE",
"260 234 CURVE SMOOTH",
"254 199 OFFCURVE",
"190 146 OFFCURVE",
"176 120 CURVE SMOOTH",
"148 69 OFFCURVE",
"211 9 OFFCURVE",
"266 54 CURVE SMOOTH",
"302 83 OFFCURVE",
"285 128 OFFCURVE",
"306 155 CURVE SMOOTH",
"328 183 OFFCURVE",
"370 182 OFFCURVE",
"386 214 CURVE SMOOTH",
"410 261 OFFCURVE",
"405 322 OFFCURVE",
"437 379 CURVE SMOOTH",
"464 427 OFFCURVE",
"496 451 OFFCURVE",
"514 483 CURVE SMOOTH",
"532 515 OFFCURVE",
"520 564 OFFCURVE",
"543 606 CURVE SMOOTH",
"571 658 OFFCURVE",
"653 657 OFFCURVE",
"653 588 CURVE SMOOTH",
"653 535 OFFCURVE",
"612 519 OFFCURVE",
"594 481 CURVE SMOOTH",
"571 433 OFFCURVE",
"585 404 OFFCURVE",
"555 341 CURVE SMOOTH",
"529 285 OFFCURVE",
"459 238 OFFCURVE",
"459 194 CURVE SMOOTH",
"459 150 OFFCURVE",
"505 121 OFFCURVE",
"550 144 CURVE SMOOTH",
"609 173 OFFCURVE",
"643 300 OFFCURVE",
"710 300 CURVE SMOOTH",
"728 300 OFFCURVE",
"743 289 OFFCURVE",
"743 265 CURVE SMOOTH",
"743 205 OFFCURVE",
"675 187 OFFCURVE",
"636 135 CURVE SMOOTH",
"596 81 OFFCURVE",
"572 -32 OFFCURVE",
"513 -32 CURVE SMOOTH",
"474 -32 OFFCURVE",
"468 -2 OFFCURVE",
"468 11 CURVE SMOOTH",
"468 31 OFFCURVE",
"481 43 OFFCURVE",
"472 58 CURVE SMOOTH",
"461 77 OFFCURVE",
"432 58 OFFCURVE",
"422 77 CURVE SMOOTH",
"413 94 OFFCURVE",
"432 132 OFFCURVE",
"410 139 CURVE SMOOTH",
"393 144 OFFCURVE",
"369 118 OFFCURVE",
"369 81 CURVE SMOOTH",
"369 46 OFFCURVE",
"388 24 OFFCURVE",
"375 -6 CURVE SMOOTH",
"361 -39 OFFCURVE",
"320 -32 OFFCURVE",
"293 -41 CURVE SMOOTH",
"253 -54 OFFCURVE",
"241 -76 OFFCURVE",
"202 -71 CURVE SMOOTH",
"165 -66 OFFCURVE",
"159 -31 OFFCURVE",
"141 -14 CURVE SMOOTH",
"120 6 OFFCURVE",
"76 -2 OFFCURVE",
"64 44 CURVE SMOOTH",
"50 98 OFFCURVE",
"108 135 OFFCURVE",
"135 178 CURVE SMOOTH",
"164 224 OFFCURVE",
"150 284 OFFCURVE",
"157 323 CURVE SMOOTH",
"169 388 OFFCURVE",
"265 429 OFFCURVE",
"288 472 CURVE SMOOTH",
"307 507 OFFCURVE",
"283 535 OFFCURVE",
"244 512 CURVE SMOOTH",
"182 476 OFFCURVE",
"150 377 OFFCURVE",
"93 377 CURVE SMOOTH",
"45 377 OFFCURVE",
"35 414 OFFCURVE",
"35 444 CURVE SMOOTH",
"35 471 OFFCURVE",
"63 522 OFFCURVE",
"114 544 CURVE SMOOTH",
"165 566 OFFCURVE",
"224 575 OFFCURVE",
"255 592 CURVE SMOOTH",
"284 608 OFFCURVE",
"312 676 OFFCURVE",
"359 676 CURVE SMOOTH"
);
}
);
width = 774;
}
);
leftKerningGroup = U;
rightKerningGroup = U;
unicode = 0055;
},
{
color = 4;
glyphname = Uacute;
lastChange = "2021-10-06 14:27:36 +0000";
layers = (
{
layerId = "A0EF8C6F-60C0-4D2A-A4F7-7A1091FA18C1";
paths = (
{
closed = 1;
nodes = (
"570 637 OFFCURVE",
"487 625 OFFCURVE",
"445 636 CURVE SMOOTH",
"426 641 OFFCURVE",
"419 659 OFFCURVE",
"426 671 CURVE SMOOTH",
"438 692 OFFCURVE",
"476 692 OFFCURVE",
"510 710 CURVE SMOOTH",
"550 731 OFFCURVE",
"558 770 OFFCURVE",
"598 768 CURVE SMOOTH",
"635 766 OFFCURVE",
"640 712 OFFCURVE",
"607 677 CURVE SMOOTH"
);
},
{
closed = 1;
nodes = (
"385 677 OFFCURVE",
"405 658 OFFCURVE",
"406 632 CURVE SMOOTH",
"407 605 OFFCURVE",
"395 597 OFFCURVE",
"396 576 CURVE SMOOTH",
"397 555 OFFCURVE",
"410 540 OFFCURVE",
"407 509 CURVE SMOOTH",
"400 437 OFFCURVE",
"260 366 OFFCURVE",
"253 310 CURVE SMOOTH",
"249 276 OFFCURVE",
"265 261 OFFCURVE",
"260 234 CURVE SMOOTH",
"254 199 OFFCURVE",
"190 146 OFFCURVE",
"176 120 CURVE SMOOTH",
"148 69 OFFCURVE",
"211 9 OFFCURVE",
"266 54 CURVE SMOOTH",
"302 83 OFFCURVE",
"285 128 OFFCURVE",
"306 155 CURVE SMOOTH",
"328 183 OFFCURVE",
"370 182 OFFCURVE",
"386 214 CURVE SMOOTH",
"410 261 OFFCURVE",
"405 322 OFFCURVE",
"437 379 CURVE SMOOTH",
"464 427 OFFCURVE",
"496 451 OFFCURVE",
"514 483 CURVE SMOOTH",
"532 515 OFFCURVE",
"520 564 OFFCURVE",
"539 599 CURVE SMOOTH",
"567 650 OFFCURVE",
"655 657 OFFCURVE",
"652 588 CURVE SMOOTH",
"650 535 OFFCURVE",
"616 519 OFFCURVE",
"598 481 CURVE SMOOTH",
"575 433 OFFCURVE",
"585 404 OFFCURVE",
"555 341 CURVE SMOOTH",
"529 285 OFFCURVE",
"463 238 OFFCURVE",
"459 194 CURVE SMOOTH",
"455 150 OFFCURVE",
"505 121 OFFCURVE",
"550 144 CURVE SMOOTH",
"595 166 OFFCURVE",
"630 246 OFFCURVE",
"665 280 CURVE SMOOTH",
"700 314 OFFCURVE",
"756 306 OFFCURVE",
"741 247 CURVE SMOOTH",
"730 202 OFFCURVE",
"664 173 OFFCURVE",
"635 121 CURVE SMOOTH",
"609 74 OFFCURVE",
"598 32 OFFCURVE",
"565 -1 CURVE SMOOTH",
"526 -40 OFFCURVE",
"482 -43 OFFCURVE",
"470 -2 CURVE SMOOTH",
"462 26 OFFCURVE",
"483 40 OFFCURVE",
"472 58 CURVE SMOOTH",
"461 77 OFFCURVE",
"432 58 OFFCURVE",
"422 77 CURVE SMOOTH",
"413 94 OFFCURVE",
"432 132 OFFCURVE",
"410 139 CURVE SMOOTH",
"393 144 OFFCURVE",
"369 118 OFFCURVE",
"369 81 CURVE SMOOTH",
"369 46 OFFCURVE",
"388 24 OFFCURVE",
"375 -6 CURVE SMOOTH",
"361 -39 OFFCURVE",
"320 -32 OFFCURVE",
"293 -41 CURVE SMOOTH",
"253 -54 OFFCURVE",
"241 -76 OFFCURVE",
"202 -71 CURVE SMOOTH",
"165 -66 OFFCURVE",
"159 -31 OFFCURVE",
"141 -14 CURVE SMOOTH",
"120 6 OFFCURVE",
"76 -2 OFFCURVE",
"64 44 CURVE SMOOTH",
"50 98 OFFCURVE",
"108 135 OFFCURVE",
"135 178 CURVE SMOOTH",
"164 224 OFFCURVE",
"150 284 OFFCURVE",
"157 323 CURVE SMOOTH",
"169 388 OFFCURVE",
"265 429 OFFCURVE",
"288 472 CURVE SMOOTH",
"307 507 OFFCURVE",
"283 535 OFFCURVE",
"244 512 CURVE SMOOTH",
"182 476 OFFCURVE",
"150 377 OFFCURVE",
"93 377 CURVE SMOOTH",
"45 377 OFFCURVE",
"35 414 OFFCURVE",
"35 444 CURVE SMOOTH",
"35 471 OFFCURVE",
"63 522 OFFCURVE",
"114 544 CURVE SMOOTH",
"165 566 OFFCURVE",
"224 575 OFFCURVE",
"255 592 CURVE SMOOTH",
"284 608 OFFCURVE",
"312 674 OFFCURVE",
"359 676 CURVE SMOOTH"
);
}
);
width = 773;
}
);
leftKerningGroup = U;
rightKerningGroup = U;
unicode = 00DA;
},
{
color = 4;
glyphname = Ucircumflex;
lastChange = "2021-10-06 14:27:36 +0000";
layers = (
{
layerId = "A0EF8C6F-60C0-4D2A-A4F7-7A1091FA18C1";
paths = (
{
closed = 1;
nodes = (
"385 677 OFFCURVE",
"405 658 OFFCURVE",
"406 632 CURVE SMOOTH",
"407 605 OFFCURVE",
"395 597 OFFCURVE",
"396 576 CURVE SMOOTH",
"397 555 OFFCURVE",
"410 540 OFFCURVE",
"407 509 CURVE SMOOTH",
"400 437 OFFCURVE",
"260 366 OFFCURVE",
"253 310 CURVE SMOOTH",
"249 276 OFFCURVE",
"265 261 OFFCURVE",
"260 234 CURVE SMOOTH",
"254 199 OFFCURVE",
"190 146 OFFCURVE",
"176 120 CURVE SMOOTH",
"148 69 OFFCURVE",
"211 9 OFFCURVE",
"266 54 CURVE SMOOTH",
"302 83 OFFCURVE",
"285 128 OFFCURVE",
"306 155 CURVE SMOOTH",
"328 183 OFFCURVE",
"370 182 OFFCURVE",
"386 214 CURVE SMOOTH",
"410 261 OFFCURVE",
"405 322 OFFCURVE",
"437 379 CURVE SMOOTH",
"464 427 OFFCURVE",
"496 451 OFFCURVE",
"514 483 CURVE SMOOTH",
"532 515 OFFCURVE",
"517 565 OFFCURVE",
"539 599 CURVE SMOOTH",
"573 650 OFFCURVE",
"655 657 OFFCURVE",
"652 588 CURVE SMOOTH",
"650 535 OFFCURVE",
"616 519 OFFCURVE",
"598 481 CURVE SMOOTH",
"575 433 OFFCURVE",
"585 404 OFFCURVE",
"555 341 CURVE SMOOTH",
"529 285 OFFCURVE",
"463 238 OFFCURVE",
"459 194 CURVE SMOOTH",
"455 150 OFFCURVE",
"505 121 OFFCURVE",
"550 144 CURVE SMOOTH",
"595 166 OFFCURVE",
"630 246 OFFCURVE",
"665 280 CURVE SMOOTH",
"700 314 OFFCURVE",
"756 306 OFFCURVE",
"741 247 CURVE SMOOTH",
"730 202 OFFCURVE",
"664 173 OFFCURVE",
"635 121 CURVE SMOOTH",
"609 74 OFFCURVE",
"598 32 OFFCURVE",
"565 -1 CURVE SMOOTH",
"526 -40 OFFCURVE",
"482 -43 OFFCURVE",
"470 -2 CURVE SMOOTH",
"462 26 OFFCURVE",
"483 40 OFFCURVE",
"472 58 CURVE SMOOTH",
"461 77 OFFCURVE",
"432 58 OFFCURVE",
"422 77 CURVE SMOOTH",
"413 94 OFFCURVE",
"432 132 OFFCURVE",
"410 139 CURVE SMOOTH",
"393 144 OFFCURVE",
"369 118 OFFCURVE",
"369 81 CURVE SMOOTH",
"369 46 OFFCURVE",
"388 24 OFFCURVE",
"375 -6 CURVE SMOOTH",
"361 -39 OFFCURVE",
"320 -32 OFFCURVE",
"293 -41 CURVE SMOOTH",
"253 -54 OFFCURVE",
"241 -76 OFFCURVE",
"202 -71 CURVE SMOOTH",
"165 -66 OFFCURVE",
"159 -31 OFFCURVE",
"141 -14 CURVE SMOOTH",
"120 6 OFFCURVE",
"76 -2 OFFCURVE",
"64 44 CURVE SMOOTH",
"50 98 OFFCURVE",
"108 135 OFFCURVE",
"135 178 CURVE SMOOTH",
"164 224 OFFCURVE",
"150 284 OFFCURVE",
"157 323 CURVE SMOOTH",
"169 388 OFFCURVE",
"265 429 OFFCURVE",
"288 472 CURVE SMOOTH",
"307 507 OFFCURVE",
"283 535 OFFCURVE",
"244 512 CURVE SMOOTH",
"182 476 OFFCURVE",
"150 377 OFFCURVE",
"93 377 CURVE SMOOTH",
"45 377 OFFCURVE",
"35 414 OFFCURVE",
"35 444 CURVE SMOOTH",
"35 471 OFFCURVE",
"63 522 OFFCURVE",
"114 544 CURVE SMOOTH",
"165 566 OFFCURVE",
"224 575 OFFCURVE",
"255 592 CURVE SMOOTH",
"284 608 OFFCURVE",
"312 674 OFFCURVE",
"359 676 CURVE SMOOTH"
);
},
{
closed = 1;
nodes = (
"474 577 OFFCURVE",
"518 617 CURVE SMOOTH",
"542 639 OFFCURVE",
"565 679 OFFCURVE",
"603 679 CURVE SMOOTH",
"630 679 OFFCURVE",
"643 653 OFFCURVE",
"667 636 CURVE SMOOTH",
"711 605 OFFCURVE",
"761 655 OFFCURVE",
"729 698 CURVE SMOOTH",
"710 723 OFFCURVE",
"683 718 OFFCURVE",
"667 734 CURVE SMOOTH",
"649 752 OFFCURVE",
"642 788 OFFCURVE",
"611 788 CURVE SMOOTH",
"583 788 OFFCURVE",
"558 752 OFFCURVE",
"536 732 CURVE SMOOTH",
"512 711 OFFCURVE",
"474 710 OFFCURVE",
"453 680 CURVE SMOOTH",
"414 625 OFFCURVE"
);
}
);
width = 773;
}
);
leftKerningGroup = U;
rightKerningGroup = U;
unicode = 00DB;
},
{
color = 4;
glyphname = Udieresis;
lastChange = "2022-01-23 13:20:01 +0000";
layers = (
{
components = (
{
name = dieresis;
transform = "{1.07931, 0.13253, -0.13253, 1.07931, 468, -50}";
}
);
layerId = "A0EF8C6F-60C0-4D2A-A4F7-7A1091FA18C1";
paths = (
{
closed = 1;
nodes = (
"385 677 OFFCURVE",
"405 658 OFFCURVE",
"406 632 CURVE SMOOTH",
"407 605 OFFCURVE",
"395 597 OFFCURVE",
"396 576 CURVE SMOOTH",
"397 555 OFFCURVE",
"410 540 OFFCURVE",
"407 509 CURVE SMOOTH",
"400 437 OFFCURVE",
"260 366 OFFCURVE",
"253 310 CURVE SMOOTH",
"249 276 OFFCURVE",
"265 261 OFFCURVE",
"260 234 CURVE SMOOTH",
"254 199 OFFCURVE",
"190 146 OFFCURVE",
"176 120 CURVE SMOOTH",
"148 69 OFFCURVE",
"211 9 OFFCURVE",
"266 54 CURVE SMOOTH",
"302 83 OFFCURVE",
"285 128 OFFCURVE",
"306 155 CURVE SMOOTH",
"328 183 OFFCURVE",
"370 182 OFFCURVE",
"386 214 CURVE SMOOTH",
"410 261 OFFCURVE",
"405 322 OFFCURVE",
"437 379 CURVE SMOOTH",
"464 427 OFFCURVE",
"496 451 OFFCURVE",
"514 483 CURVE SMOOTH",
"532 515 OFFCURVE",
"517 565 OFFCURVE",
"539 599 CURVE SMOOTH",
"573 650 OFFCURVE",
"655 657 OFFCURVE",
"652 588 CURVE SMOOTH",
"650 535 OFFCURVE",
"616 519 OFFCURVE",
"598 481 CURVE SMOOTH",
"575 433 OFFCURVE",
"585 404 OFFCURVE",
"555 341 CURVE SMOOTH",
"529 285 OFFCURVE",
"463 238 OFFCURVE",
"459 194 CURVE SMOOTH",
"455 150 OFFCURVE",
"505 121 OFFCURVE",
"550 144 CURVE SMOOTH",
"595 166 OFFCURVE",
"630 246 OFFCURVE",
"665 280 CURVE SMOOTH",
"700 314 OFFCURVE",
"756 306 OFFCURVE",
"741 247 CURVE SMOOTH",
"730 202 OFFCURVE",
"664 173 OFFCURVE",
"635 121 CURVE SMOOTH",
"609 74 OFFCURVE",
"598 32 OFFCURVE",
"565 -1 CURVE SMOOTH",
"526 -40 OFFCURVE",
"482 -43 OFFCURVE",
"470 -2 CURVE SMOOTH",
"462 26 OFFCURVE",
"483 40 OFFCURVE",
"472 58 CURVE SMOOTH",
"461 77 OFFCURVE",
"432 58 OFFCURVE",
"422 77 CURVE SMOOTH",
"413 94 OFFCURVE",
"432 132 OFFCURVE",
"410 139 CURVE SMOOTH",
"393 144 OFFCURVE",
"369 118 OFFCURVE",
"369 81 CURVE SMOOTH",
"369 46 OFFCURVE",
"388 24 OFFCURVE",
"375 -6 CURVE SMOOTH",
"361 -39 OFFCURVE",
"320 -32 OFFCURVE",
"293 -41 CURVE SMOOTH",
"253 -54 OFFCURVE",
"241 -76 OFFCURVE",
"202 -71 CURVE SMOOTH",
"165 -66 OFFCURVE",
"159 -31 OFFCURVE",
"141 -14 CURVE SMOOTH",
"120 6 OFFCURVE",
"76 -2 OFFCURVE",
"64 44 CURVE SMOOTH",
"50 98 OFFCURVE",
"108 135 OFFCURVE",
"135 178 CURVE SMOOTH",
"164 224 OFFCURVE",
"150 284 OFFCURVE",
"157 323 CURVE SMOOTH",
"169 388 OFFCURVE",
"265 429 OFFCURVE",
"288 472 CURVE SMOOTH",
"307 507 OFFCURVE",
"283 535 OFFCURVE",
"244 512 CURVE SMOOTH",
"182 476 OFFCURVE",
"150 377 OFFCURVE",
"93 377 CURVE SMOOTH",
"45 377 OFFCURVE",
"35 414 OFFCURVE",
"35 444 CURVE SMOOTH",
"35 471 OFFCURVE",
"63 522 OFFCURVE",
"114 544 CURVE SMOOTH",
"165 566 OFFCURVE",
"224 575 OFFCURVE",
"255 592 CURVE SMOOTH",
"284 608 OFFCURVE",
"312 674 OFFCURVE",
"359 676 CURVE SMOOTH"
);
}
);
width = 773;
}
);
leftKerningGroup = U;
rightKerningGroup = U;
unicode = 00DC;
},
{
color = 4;
glyphname = Ugrave;
lastChange = "2022-01-25 22:30:53 +0000";
layers = (
{
layerId = "A0EF8C6F-60C0-4D2A-A4F7-7A1091FA18C1";
paths = (
{
closed = 1;
nodes = (
"385 677 OFFCURVE",
"405 658 OFFCURVE",
"406 632 CURVE SMOOTH",
"407 605 OFFCURVE",
"395 597 OFFCURVE",
"396 576 CURVE SMOOTH",
"397 555 OFFCURVE",
"410 540 OFFCURVE",
"407 509 CURVE SMOOTH",
"400 437 OFFCURVE",
"260 366 OFFCURVE",
"253 310 CURVE SMOOTH",
"249 276 OFFCURVE",
"265 261 OFFCURVE",
"260 234 CURVE SMOOTH",
"254 199 OFFCURVE",
"190 146 OFFCURVE",
"176 120 CURVE SMOOTH",
"148 69 OFFCURVE",
"211 9 OFFCURVE",
"266 54 CURVE SMOOTH",
"302 83 OFFCURVE",
"285 128 OFFCURVE",
"306 155 CURVE SMOOTH",
"328 183 OFFCURVE",
"370 182 OFFCURVE",
"386 214 CURVE SMOOTH",
"410 261 OFFCURVE",
"405 322 OFFCURVE",
"437 379 CURVE SMOOTH",
"464 427 OFFCURVE",
"496 451 OFFCURVE",
"514 483 CURVE SMOOTH",
"532 515 OFFCURVE",
"520 564 OFFCURVE",
"539 599 CURVE SMOOTH",
"567 650 OFFCURVE",
"655 657 OFFCURVE",
"652 588 CURVE SMOOTH",
"650 535 OFFCURVE",
"616 519 OFFCURVE",
"598 481 CURVE SMOOTH",
"575 433 OFFCURVE",
"585 404 OFFCURVE",
"555 341 CURVE SMOOTH",
"529 285 OFFCURVE",
"463 238 OFFCURVE",
"459 194 CURVE SMOOTH",
"455 150 OFFCURVE",
"505 121 OFFCURVE",
"550 144 CURVE SMOOTH",
"595 166 OFFCURVE",
"630 246 OFFCURVE",
"665 280 CURVE SMOOTH",
"700 314 OFFCURVE",
"756 306 OFFCURVE",
"741 247 CURVE SMOOTH",
"730 202 OFFCURVE",
"664 173 OFFCURVE",
"635 121 CURVE SMOOTH",
"609 74 OFFCURVE",
"598 32 OFFCURVE",
"565 -1 CURVE SMOOTH",
"526 -40 OFFCURVE",
"482 -43 OFFCURVE",
"470 -2 CURVE SMOOTH",
"462 26 OFFCURVE",
"483 40 OFFCURVE",
"472 58 CURVE SMOOTH",
"461 77 OFFCURVE",
"432 58 OFFCURVE",
"422 77 CURVE SMOOTH",
"413 94 OFFCURVE",
"432 132 OFFCURVE",
"410 139 CURVE SMOOTH",
"393 144 OFFCURVE",
"369 118 OFFCURVE",
"369 81 CURVE SMOOTH",
"369 46 OFFCURVE",
"388 24 OFFCURVE",
"375 -6 CURVE SMOOTH",
"361 -39 OFFCURVE",
"320 -32 OFFCURVE",
"293 -41 CURVE SMOOTH",
"253 -54 OFFCURVE",
"241 -76 OFFCURVE",
"202 -71 CURVE SMOOTH",
"165 -66 OFFCURVE",
"159 -31 OFFCURVE",
"141 -14 CURVE SMOOTH",
"120 6 OFFCURVE",
"76 -2 OFFCURVE",
"64 44 CURVE SMOOTH",
"50 98 OFFCURVE",
"108 135 OFFCURVE",
"135 178 CURVE SMOOTH",
"164 224 OFFCURVE",
"150 284 OFFCURVE",
"157 323 CURVE SMOOTH",
"169 388 OFFCURVE",
"265 429 OFFCURVE",
"288 472 CURVE SMOOTH",
"307 507 OFFCURVE",
"283 535 OFFCURVE",
"244 512 CURVE SMOOTH",
"182 476 OFFCURVE",
"150 377 OFFCURVE",
"93 377 CURVE SMOOTH",
"45 377 OFFCURVE",
"35 414 OFFCURVE",
"35 444 CURVE SMOOTH",
"35 471 OFFCURVE",
"63 522 OFFCURVE",
"114 544 CURVE SMOOTH",
"165 566 OFFCURVE",
"224 575 OFFCURVE",
"255 592 CURVE SMOOTH",
"284 608 OFFCURVE",
"312 674 OFFCURVE",
"359 676 CURVE SMOOTH"
);
},
{
closed = 1;
nodes = (
"363 729 OFFCURVE",
"370 782 OFFCURVE",
"407 782 CURVE SMOOTH",
"447 782 OFFCURVE",
"453 741 OFFCURVE",
"490 719 CURVE SMOOTH",
"525 698 OFFCURVE",
"560 695 OFFCURVE",
"572 673 CURVE SMOOTH",
"579 660 OFFCURVE",
"569 642 OFFCURVE",
"546 639 CURVE SMOOTH",
"500 633 OFFCURVE",
"427 650 OFFCURVE",
"395 689 CURVE SMOOTH"
);
}
);
width = 773;
}
);
leftKerningGroup = U;
rightKerningGroup = U;
unicode = 00D9;
},
{
glyphname = V;
lastChange = "2024-08-21 15:14:02 +0000";
layers = (
{
layerId = "A0EF8C6F-60C0-4D2A-A4F7-7A1091FA18C1";
paths = (
{
closed = 1;
nodes = (
"83 598 OFFCURVE",
"127 582 OFFCURVE",
"162 594 CURVE SMOOTH",
"191 604 OFFCURVE",
"192 631 OFFCURVE",
"226 636 CURVE SMOOTH",
"258 641 OFFCURVE",
"280 620 OFFCURVE",
"281 586 CURVE SMOOTH",
"282 555 OFFCURVE",
"266 542 OFFCURVE",
"269 516 CURVE SMOOTH",
"272 488 OFFCURVE",
"295 467 OFFCURVE",
"293 426 CURVE SMOOTH",
"291 378 OFFCURVE",
"241 367 OFFCURVE",
"240 327 CURVE SMOOTH",
"239 292 OFFCURVE",
"268 274 OFFCURVE",
"262 241 CURVE SMOOTH",
"255 205 OFFCURVE",
"227 194 OFFCURVE",
"218 162 CURVE SMOOTH",
"200 99 OFFCURVE",
"272 70 OFFCURVE",
"346 144 CURVE SMOOTH",
"414 212 OFFCURVE",
"404 302 OFFCURVE",
"430 348 CURVE SMOOTH",
"448 381 OFFCURVE",
"487 383 OFFCURVE",
"520 412 CURVE SMOOTH",
"552 440 OFFCURVE",
"541 487 OFFCURVE",
"511 496 CURVE SMOOTH",
"481 505 OFFCURVE",
"468 481 OFFCURVE",
"429 487 CURVE SMOOTH",
"381 494 OFFCURVE",
"373 594 OFFCURVE",
"444 608 CURVE SMOOTH",
"474 614 OFFCURVE",
"489 598 OFFCURVE",
"515 603 CURVE SMOOTH",
"537 607 OFFCURVE",
"543 628 OFFCURVE",
"567 628 CURVE SMOOTH",
"596 628 OFFCURVE",
"613 609 OFFCURVE",
"612 579 CURVE SMOOTH",
"611 551 OFFCURVE",
"585 516 OFFCURVE",
"606 501 CURVE SMOOTH",
"628 486 OFFCURVE",
"650 512 OFFCURVE",
"677 516 CURVE SMOOTH",
"721 523 OFFCURVE",
"758 443 OFFCURVE",
"690 415 CURVE SMOOTH",
"653 400 OFFCURVE",
"607 416 OFFCURVE",
"593 398 CURVE SMOOTH",
"576 377 OFFCURVE",
"586 352 OFFCURVE",
"569 324 CURVE SMOOTH",
"550 292 OFFCURVE",
"518 295 OFFCURVE",
"506 274 CURVE SMOOTH",
"488 243 OFFCURVE",
"511 197 OFFCURVE",
"492 162 CURVE SMOOTH",
"468 119 OFFCURVE",
"409 120 OFFCURVE",
"357 77 CURVE SMOOTH",
"318 45 OFFCURVE",
"316 -16 OFFCURVE",
"259 -39 CURVE SMOOTH",
"217 -56 OFFCURVE",
"167 -35 OFFCURVE",
"161 10 CURVE SMOOTH",
"156 45 OFFCURVE",
"170 63 OFFCURVE",
"170 89 CURVE SMOOTH",
"170 125 OFFCURVE",
"131 166 OFFCURVE",
"131 241 CURVE SMOOTH",
"131 318 OFFCURVE",
"199 387 OFFCURVE",
"199 464 CURVE SMOOTH",
"199 504 OFFCURVE",
"185 525 OFFCURVE",
"160 525 CURVE SMOOTH",
"115 525 OFFCURVE",
"94 460 OFFCURVE",
"42 460 CURVE SMOOTH",
"-9 460 OFFCURVE",
"-36 553 OFFCURVE",
"51 586 CURVE SMOOTH"
);
}
);
width = 714;
}
);
rightKerningGroup = V;
unicode = 0056;
},
{
glyphname = W;
lastChange = "2022-01-25 22:31:01 +0000";
layers = (
{
layerId = "A0EF8C6F-60C0-4D2A-A4F7-7A1091FA18C1";
paths = (
{
closed = 1;
nodes = (
"189 641 OFFCURVE",
"194 680 OFFCURVE",
"229 679 CURVE SMOOTH",
"266 678 OFFCURVE",
"263 648 OFFCURVE",
"272 632 CURVE SMOOTH",
"281 618 OFFCURVE",
"303 619 OFFCURVE",
"302 593 CURVE SMOOTH",
"301 575 OFFCURVE",
"283 560 OFFCURVE",
"252 560 CURVE SMOOTH",
"215 561 OFFCURVE",
"179 554 OFFCURVE",
"166 508 CURVE SMOOTH",
"150 453 OFFCURVE",
"189 416 OFFCURVE",
"185 365 CURVE SMOOTH",
"181 314 OFFCURVE",
"139 257 OFFCURVE",
"134 221 CURVE SMOOTH",
"126 169 OFFCURVE",
"189 153 OFFCURVE",
"217 189 CURVE SMOOTH",
"256 238 OFFCURVE",
"243 280 OFFCURVE",
"262 322 CURVE SMOOTH",
"278 360 OFFCURVE",
"312 382 OFFCURVE",
"334 409 CURVE SMOOTH",
"354 441 OFFCURVE",
"340 474 OFFCURVE",
"362 514 CURVE SMOOTH",
"382 549 OFFCURVE",
"442 547 OFFCURVE",
"450 506 CURVE SMOOTH",
"455 479 OFFCURVE",
"438 459 OFFCURVE",
"446 431 CURVE SMOOTH",
"454 400 OFFCURVE",
"478 402 OFFCURVE",
"488 354 CURVE SMOOTH",
"500 302 OFFCURVE",
"453 263 OFFCURVE",
"460 207 CURVE SMOOTH",
"464 171 OFFCURVE",
"501 152 OFFCURVE",
"525 188 CURVE SMOOTH",
"539 207 OFFCURVE",
"530 248 OFFCURVE",
"543 265 CURVE SMOOTH",
"556 286 OFFCURVE",
"592 290 OFFCURVE",
"600 318 CURVE SMOOTH",
"607 347 OFFCURVE",
"594 394 OFFCURVE",
"608 430 CURVE SMOOTH",
"626 481 OFFCURVE",
"684 490 OFFCURVE",
"685 524 CURVE SMOOTH",
"687 555 OFFCURVE",
"626 558 OFFCURVE",
"616 587 CURVE SMOOTH",
"605 622 OFFCURVE",
"636 648 OFFCURVE",
"677 647 CURVE SMOOTH",
"708 647 OFFCURVE",
"729 617 OFFCURVE",
"764 617 CURVE SMOOTH",
"792 617 OFFCURVE",
"808 639 OFFCURVE",
"835 639 CURVE SMOOTH",
"871 639 OFFCURVE",
"888 602 OFFCURVE",
"852 562 CURVE SMOOTH",
"820 526 OFFCURVE",
"764 532 OFFCURVE",
"731 473 CURVE SMOOTH",
"701 419 OFFCURVE",
"713 372 OFFCURVE",
"699 329 CURVE SMOOTH",
"676 263 OFFCURVE",
"626 240 OFFCURVE",
"606 194 CURVE SMOOTH",
"588 157 OFFCURVE",
"601 104 OFFCURVE",
"594 62 CURVE SMOOTH",
"586 18 OFFCURVE",
"547 -20 OFFCURVE",
"504 1 CURVE SMOOTH",
"478 14 OFFCURVE",
"485 52 OFFCURVE",
"468 75 CURVE SMOOTH",
"448 102 OFFCURVE",
"406 83 OFFCURVE",
"390 124 CURVE SMOOTH",
"372 172 OFFCURVE",
"409 250 OFFCURVE",
"406 302 CURVE SMOOTH",
"404 340 OFFCURVE",
"361 345 OFFCURVE",
"345 308 CURVE SMOOTH",
"326 263 OFFCURVE",
"321 184 OFFCURVE",
"281 138 CURVE SMOOTH",
"249 99 OFFCURVE",
"226 112 OFFCURVE",
"197 86 CURVE SMOOTH",
"163 56 OFFCURVE",
"179 6 OFFCURVE",
"143 -17 CURVE SMOOTH",
"93 -49 OFFCURVE",
"47 -22 OFFCURVE",
"51 38 CURVE SMOOTH",
"54 79 OFFCURVE",
"72 88 OFFCURVE",
"73 120 CURVE SMOOTH",
"74 156 OFFCURVE",
"35 168 OFFCURVE",
"42 208 CURVE SMOOTH",
"51 253 OFFCURVE",
"80 256 OFFCURVE",
"82 294 CURVE SMOOTH",
"85 330 OFFCURVE",
"58 352 OFFCURVE",
"61 401 CURVE SMOOTH",
"64 456 OFFCURVE",
"104 498 OFFCURVE",
"93 527 CURVE SMOOTH",
"80 561 OFFCURVE",
"35 539 OFFCURVE",
"8 557 CURVE SMOOTH",
"-21 575 OFFCURVE",
"-1 625 OFFCURVE",
"35 633 CURVE SMOOTH",
"78 642 OFFCURVE",
"105 628 OFFCURVE",
"146 635 CURVE SMOOTH"
);
}
);
width = 792;
}
);
unicode = 0057;
},
{
glyphname = X;
lastChange = "2024-08-21 14:42:25 +0000";
layers = (
{
anchors = (
{
name = bottom;
position = "{395, 0}";
},
{
name = top;
position = "{395, 650}";
}
);
layerId = "A0EF8C6F-60C0-4D2A-A4F7-7A1091FA18C1";
paths = (
{
closed = 1;
nodes = (
"258 644 OFFCURVE",
"278 617 OFFCURVE",
"309 615 CURVE SMOOTH",
"338 613 OFFCURVE",
"352 649 OFFCURVE",
"391 638 CURVE SMOOTH",
"428 628 OFFCURVE",
"412 561 OFFCURVE",
"422 535 CURVE SMOOTH",
"435 502 OFFCURVE",
"462 502 OFFCURVE",
"482 531 CURVE SMOOTH",
"500 557 OFFCURVE",
"505 594 OFFCURVE",
"544 605 CURVE SMOOTH",
"578 615 OFFCURVE",
"580 592 OFFCURVE",
"612 592 CURVE SMOOTH",
"644 592 OFFCURVE",
"662 618 OFFCURVE",
"691 604 CURVE SMOOTH",
"722 589 OFFCURVE",
"708 555 OFFCURVE",
"716 517 CURVE SMOOTH",
"722 487 OFFCURVE",
"744 465 OFFCURVE",
"747 429 CURVE SMOOTH",
"754 341 OFFCURVE",
"677 274 OFFCURVE",
"632 323 CURVE SMOOTH",
"599 359 OFFCURVE",
"657 413 OFFCURVE",
"650 457 CURVE SMOOTH",
"634 557 OFFCURVE",
"502 505 OFFCURVE",
"484 419 CURVE SMOOTH",
"476 380 OFFCURVE",
"500 363 OFFCURVE",
"490 325 CURVE SMOOTH",
"480 288 OFFCURVE",
"403 291 OFFCURVE",
"403 237 CURVE SMOOTH",
"403 198 OFFCURVE",
"438 198 OFFCURVE",
"447 173 CURVE SMOOTH",
"459 141 OFFCURVE",
"448 112 OFFCURVE",
"468 84 CURVE SMOOTH",
"494 47 OFFCURVE",
"573 60 OFFCURVE",
"577 111 CURVE SMOOTH",
"580 147 OFFCURVE",
"554 165 OFFCURVE",
"558 197 CURVE SMOOTH",
"564 246 OFFCURVE",
"638 265 OFFCURVE",
"671 205 CURVE SMOOTH",
"717 121 OFFCURVE",
"660 -7 OFFCURVE",
"592 -18 CURVE SMOOTH",
"561 -23 OFFCURVE",
"546 -6 OFFCURVE",
"518 -8 CURVE SMOOTH",
"489 -10 OFFCURVE",
"465 -33 OFFCURVE",
"429 -23 CURVE SMOOTH",
"384 -10 OFFCURVE",
"401 47 OFFCURVE",
"387 80 CURVE SMOOTH",
"372 115 OFFCURVE",
"333 109 OFFCURVE",
"313 80 CURVE SMOOTH",
"291 48 OFFCURVE",
"288 0 OFFCURVE",
"250 -10 CURVE SMOOTH",
"218 -18 OFFCURVE",
"191 3 OFFCURVE",
"165 0 CURVE SMOOTH",
"134 -4 OFFCURVE",
"122 -28 OFFCURVE",
"87 -21 CURVE SMOOTH",
"44 -12 OFFCURVE",
"6 44 OFFCURVE",
"17 126 CURVE SMOOTH",
"29 214 OFFCURVE",
"125 257 OFFCURVE",
"150 208 CURVE SMOOTH",
"172 165 OFFCURVE",
"116 145 OFFCURVE",
"116 102 CURVE SMOOTH",
"116 60 OFFCURVE",
"168 47 OFFCURVE",
"196 80 CURVE SMOOTH",
"219 107 OFFCURVE",
"217 135 OFFCURVE",
"239 147 CURVE SMOOTH",
"265 161 OFFCURVE",
"304 148 OFFCURVE",
"321 189 CURVE SMOOTH",
"342 239 OFFCURVE",
"292 257 OFFCURVE",
"308 304 CURVE SMOOTH",
"324 351 OFFCURVE",
"390 345 OFFCURVE",
"390 392 CURVE SMOOTH",
"390 435 OFFCURVE",
"366 431 OFFCURVE",
"352 458 CURVE SMOOTH",
"338 486 OFFCURVE",
"349 511 OFFCURVE",
"337 539 CURVE SMOOTH",
"321 576 OFFCURVE",
"231 574 OFFCURVE",
"218 517 CURVE SMOOTH",
"208 472 OFFCURVE",
"250 402 OFFCURVE",
"201 380 CURVE SMOOTH",
"150 357 OFFCURVE",
"108 431 OFFCURVE",
"108 502 CURVE SMOOTH",
"108 575 OFFCURVE",
"163 642 OFFCURVE",
"219 643 CURVE SMOOTH"
);
}
);
width = 790;
}
);
leftKerningGroup = X;
rightKerningGroup = X;
unicode = 0058;
},
{
glyphname = Y;
lastChange = "2024-08-21 14:40:00 +0000";
layers = (
{
layerId = "A0EF8C6F-60C0-4D2A-A4F7-7A1091FA18C1";
paths = (
{
closed = 1;
nodes = (
"211 613 OFFCURVE",
"236 663 OFFCURVE",
"278 670 CURVE SMOOTH",
"322 677 OFFCURVE",
"350 630 OFFCURVE",
"332 588 CURVE SMOOTH",
"314 544 OFFCURVE",
"258 519 OFFCURVE",
"251 476 CURVE SMOOTH",
"245 441 OFFCURVE",
"265 417 OFFCURVE",
"264 380 CURVE SMOOTH",
"263 341 OFFCURVE",
"224 320 OFFCURVE",
"224 278 CURVE SMOOTH",
"224 222 OFFCURVE",
"327 189 OFFCURVE",
"371 252 CURVE SMOOTH",
"400 294 OFFCURVE",
"384 333 OFFCURVE",
"403 369 CURVE SMOOTH",
"420 401 OFFCURVE",
"440 409 OFFCURVE",
"455 446 CURVE SMOOTH",
"470 483 OFFCURVE",
"441 566 OFFCURVE",
"503 625 CURVE SMOOTH",
"567 685 OFFCURVE",
"645 636 OFFCURVE",
"607 569 CURVE SMOOTH",
"583 527 OFFCURVE",
"545 526 OFFCURVE",
"534 475 CURVE SMOOTH",
"525 434 OFFCURVE",
"545 402 OFFCURVE",
"528 357 CURVE SMOOTH",
"512 314 OFFCURVE",
"460 286 OFFCURVE",
"446 228 CURVE SMOOTH",
"436 187 OFFCURVE",
"468 150 OFFCURVE",
"451 107 CURVE SMOOTH",
"427 49 OFFCURVE",
"392 49 OFFCURVE",
"366 11 CURVE SMOOTH",
"335 -34 OFFCURVE",
"346 -84 OFFCURVE",
"299 -121 CURVE SMOOTH",
"256 -154 OFFCURVE",
"216 -137 OFFCURVE",
"151 -155 CURVE SMOOTH",
"65 -179 OFFCURVE",
"-19 -133 OFFCURVE",
"-25 -49 CURVE SMOOTH",
"-31 30 OFFCURVE",
"14 89 OFFCURVE",
"84 89 CURVE SMOOTH",
"128 89 OFFCURVE",
"156 72 OFFCURVE",
"156 36 CURVE SMOOTH",
"156 -14 OFFCURVE",
"67 -4 OFFCURVE",
"75 -60 CURVE SMOOTH",
"81 -101 OFFCURVE",
"167 -107 OFFCURVE",
"203 -73 CURVE SMOOTH",
"242 -37 OFFCURVE",
"233 -13 OFFCURVE",
"260 16 CURVE SMOOTH",
"286 43 OFFCURVE",
"323 51 OFFCURVE",
"347 80 CURVE SMOOTH",
"371 110 OFFCURVE",
"365 151 OFFCURVE",
"325 148 CURVE SMOOTH",
"299 146 OFFCURVE",
"285 117 OFFCURVE",
"248 117 CURVE SMOOTH",
"203 117 OFFCURVE",
"197 161 OFFCURVE",
"179 179 CURVE SMOOTH",
"161 197 OFFCURVE",
"129 204 OFFCURVE",
"124 244 CURVE SMOOTH",
"118 292 OFFCURVE",
"156 301 OFFCURVE",
"160 341 CURVE SMOOTH",
"164 383 OFFCURVE",
"146 392 OFFCURVE",
"150 422 CURVE SMOOTH",
"153 447 OFFCURVE",
"180 464 OFFCURVE",
"192 489 CURVE SMOOTH",
"206 517 OFFCURVE",
"181 533 OFFCURVE",
"156 519 CURVE SMOOTH",
"119 499 OFFCURVE",
"99 459 OFFCURVE",
"65 457 CURVE SMOOTH",
"12 454 OFFCURVE",
"6 537 OFFCURVE",
"66 566 CURVE SMOOTH",
"104 584 OFFCURVE",
"140 583 OFFCURVE",
"178 599 CURVE SMOOTH"
);
}
);
width = 602;
}
);
leftKerningGroup = Y;
rightKerningGroup = Y;
unicode = 0059;
},
{
glyphname = Z;
lastChange = "2024-08-21 14:42:32 +0000";
layers = (
{
layerId = "A0EF8C6F-60C0-4D2A-A4F7-7A1091FA18C1";
paths = (
{
closed = 1;
nodes = (
"213 679 OFFCURVE",
"231 637 OFFCURVE",
"276 630 CURVE SMOOTH",
"318 623 OFFCURVE",
"355 646 OFFCURVE",
"397 645 CURVE SMOOTH",
"440 644 OFFCURVE",
"462 608 OFFCURVE",
"496 606 CURVE SMOOTH",
"538 604 OFFCURVE",
"557 631 OFFCURVE",
"591 623 CURVE SMOOTH",
"634 613 OFFCURVE",
"649 557 OFFCURVE",
"593 517 CURVE SMOOTH",
"547 484 OFFCURVE",
"519 488 OFFCURVE",
"479 431 CURVE SMOOTH",
"465 411 OFFCURVE",
"465 359 OFFCURVE",
"495 359 CURVE SMOOTH",
"517 359 OFFCURVE",
"553 378 OFFCURVE",
"576 373 CURVE SMOOTH",
"624 363 OFFCURVE",
"617 289 OFFCURVE",
"551 268 CURVE SMOOTH",
"508 254 OFFCURVE",
"458 300 OFFCURVE",
"410 276 CURVE SMOOTH",
"372 258 OFFCURVE",
"368 214 OFFCURVE",
"344 192 CURVE SMOOTH",
"317 168 OFFCURVE",
"277 174 OFFCURVE",
"259 153 CURVE SMOOTH",
"242 134 OFFCURVE",
"252 110 OFFCURVE",
"273 104 CURVE SMOOTH",
"299 97 OFFCURVE",
"351 110 OFFCURVE",
"385 102 CURVE SMOOTH",
"420 94 OFFCURVE",
"459 45 OFFCURVE",
"503 51 CURVE SMOOTH",
"541 56 OFFCURVE",
"547 119 OFFCURVE",
"576 148 CURVE SMOOTH",
"602 174 OFFCURVE",
"643 166 OFFCURVE",
"647 116 CURVE SMOOTH",
"652 59 OFFCURVE",
"613 -22 OFFCURVE",
"562 -33 CURVE SMOOTH",
"525 -41 OFFCURVE",
"495 -18 OFFCURVE",
"463 -17 CURVE SMOOTH",
"424 -16 OFFCURVE",
"397 -35 OFFCURVE",
"344 -20 CURVE SMOOTH",
"288 -4 OFFCURVE",
"281 36 OFFCURVE",
"233 37 CURVE SMOOTH",
"178 38 OFFCURVE",
"149 -6 OFFCURVE",
"83 -6 CURVE SMOOTH",
"27 -6 OFFCURVE",
"22 56 OFFCURVE",
"56 83 CURVE SMOOTH",
"81 103 OFFCURVE",
"105 96 OFFCURVE",
"132 114 CURVE SMOOTH",
"156 130 OFFCURVE",
"158 162 OFFCURVE",
"188 188 CURVE SMOOTH",
"219 215 OFFCURVE",
"249 222 OFFCURVE",
"281 239 CURVE SMOOTH",
"305 252 OFFCURVE",
"310 288 OFFCURVE",
"286 296 CURVE SMOOTH",
"263 304 OFFCURVE",
"202 275 OFFCURVE",
"178 302 CURVE SMOOTH",
"148 335 OFFCURVE",
"188 378 OFFCURVE",
"237 383 CURVE SMOOTH",
"277 387 OFFCURVE",
"310 365 OFFCURVE",
"345 373 CURVE SMOOTH",
"379 381 OFFCURVE",
"377 437 OFFCURVE",
"402 467 CURVE SMOOTH",
"427 498 OFFCURVE",
"467 513 OFFCURVE",
"457 539 CURVE SMOOTH",
"441 580 OFFCURVE",
"381 530 OFFCURVE",
"337 537 CURVE SMOOTH",
"301 543 OFFCURVE",
"268 572 OFFCURVE",
"220 561 CURVE SMOOTH",
"166 549 OFFCURVE",
"187 442 OFFCURVE",
"136 418 CURVE SMOOTH",
"91 397 OFFCURVE",
"51 428 OFFCURVE",
"55 471 CURVE SMOOTH",
"59 512 OFFCURVE",
"93 524 OFFCURVE",
"106 555 CURVE SMOOTH",
"119 586 OFFCURVE",
"118 652 OFFCURVE",
"160 664 CURVE SMOOTH"
);
}
);
width = 678;
}
);
unicode = 005A;
},
{
glyphname = Q.002;
lastChange = "2022-01-26 02:21:38 +0000";
layers = (
{
background = {
paths = (
{
closed = 1;
nodes = (
"438 673 OFFCURVE",
"493 646 OFFCURVE",
"509 621 CURVE SMOOTH",
"526 595 OFFCURVE",
"522 564 OFFCURVE",
"534 544 CURVE SMOOTH",
"555 514 OFFCURVE",
"593 507 OFFCURVE",
"594 423 CURVE SMOOTH",
"597 338 OFFCURVE",
"514 280 OFFCURVE",
"510 232 CURVE SMOOTH",
"506 180 OFFCURVE",
"519 160 OFFCURVE",
"513 136 CURVE SMOOTH",
"506 110 OFFCURVE",
"471 107 OFFCURVE",
"453 93 CURVE SMOOTH",
"429 75 OFFCURVE",
"425 51 OFFCURVE",
"381 41 CURVE SMOOTH",
"340 32 OFFCURVE",
"307 63 OFFCURVE",
"259 67 CURVE SMOOTH",
"208 71 OFFCURVE",
"201 23 OFFCURVE",
"234 13 CURVE SMOOTH",
"259 5 OFFCURVE",
"288 22 OFFCURVE",
"308 5 CURVE SMOOTH",
"326 -11 OFFCURVE",
"310 -46 OFFCURVE",
"330 -54 CURVE SMOOTH",
"351 -63 OFFCURVE",
"370 -39 OFFCURVE",
"393 -41 CURVE SMOOTH",
"415 -43 OFFCURVE",
"433 -77 OFFCURVE",
"465 -67 CURVE SMOOTH",
"506 -54 OFFCURVE",
"496 3 OFFCURVE",
"537 24 CURVE SMOOTH",
"564 38 OFFCURVE",
"602 22 OFFCURVE",
"602 -17 CURVE SMOOTH",
"602 -85 OFFCURVE",
"535 -144 OFFCURVE",
"459 -150 CURVE SMOOTH",
"396 -155 OFFCURVE",
"374 -129 OFFCURVE",
"348 -125 CURVE SMOOTH",
"319 -121 OFFCURVE",
"289 -133 OFFCURVE",
"266 -121 CURVE SMOOTH",
"241 -108 OFFCURVE",
"244 -81 OFFCURVE",
"230 -60 CURVE SMOOTH",
"217 -40 OFFCURVE",
"187 -36 OFFCURVE",
"162 -45 CURVE SMOOTH",
"133 -55 OFFCURVE",
"111 -76 OFFCURVE",
"66 -71 CURVE SMOOTH",
"5 -63 OFFCURVE",
"3 6 OFFCURVE",
"71 31 CURVE SMOOTH",
"115 47 OFFCURVE",
"163 27 OFFCURVE",
"169 64 CURVE SMOOTH",
"175 103 OFFCURVE",
"117 118 OFFCURVE",
"118 158 CURVE SMOOTH",
"118 203 OFFCURVE",
"158 218 OFFCURVE",
"163 262 CURVE SMOOTH",
"170 311 OFFCURVE",
"137 350 OFFCURVE",
"143 405 CURVE SMOOTH",
"149 457 OFFCURVE",
"189 486 OFFCURVE",
"204 510 CURVE SMOOTH",
"218 535 OFFCURVE",
"221 560 OFFCURVE",
"248 580 CURVE SMOOTH",
"277 599 OFFCURVE",
"314 597 OFFCURVE",
"340 609 CURVE SMOOTH",
"367 621 OFFCURVE",
"380 658 OFFCURVE",
"412 665 CURVE SMOOTH"
);
},
{
closed = 1;
nodes = (
"317 550 OFFCURVE",
"278 498 OFFCURVE",
"269 455 CURVE SMOOTH",
"261 415 OFFCURVE",
"279 396 OFFCURVE",
"274 361 CURVE SMOOTH",
"267 314 OFFCURVE",
"221 266 OFFCURVE",
"220 222 CURVE SMOOTH",
"219 156 OFFCURVE",
"273 112 OFFCURVE",
"334 131 CURVE SMOOTH",
"378 145 OFFCURVE",
"379 183 OFFCURVE",
"400 199 CURVE SMOOTH",
"420 215 OFFCURVE",
"452 221 OFFCURVE",
"455 254 CURVE SMOOTH",
"459 282 OFFCURVE",
"446 311 OFFCURVE",
"452 345 CURVE SMOOTH",
"461 396 OFFCURVE",
"525 423 OFFCURVE",
"509 482 CURVE SMOOTH",
"498 520 OFFCURVE",
"450 505 OFFCURVE",
"429 512 CURVE SMOOTH",
"406 520 OFFCURVE",
"397 550 OFFCURVE",
"361 550 CURVE SMOOTH"
);
}
);
};
layerId = "A0EF8C6F-60C0-4D2A-A4F7-7A1091FA18C1";
paths = (
{
closed = 1;
nodes = (
"438 673 OFFCURVE",
"493 646 OFFCURVE",
"509 621 CURVE SMOOTH",
"526 595 OFFCURVE",
"522 564 OFFCURVE",
"534 544 CURVE SMOOTH",
"555 514 OFFCURVE",
"593 507 OFFCURVE",
"594 423 CURVE SMOOTH",
"597 338 OFFCURVE",
"520 279 OFFCURVE",
"511 236 CURVE SMOOTH",
"502 195 OFFCURVE",
"521 164 OFFCURVE",
"513 136 CURVE SMOOTH",
"504 106 OFFCURVE",
"471 107 OFFCURVE",
"453 93 CURVE SMOOTH",
"429 75 OFFCURVE",
"425 51 OFFCURVE",
"381 41 CURVE SMOOTH",
"340 32 OFFCURVE",
"307 63 OFFCURVE",
"259 67 CURVE SMOOTH",
"208 71 OFFCURVE",
"196 29 OFFCURVE",
"226 14 CURVE SMOOTH",
"250 2 OFFCURVE",
"271 23 OFFCURVE",
"293 10 CURVE SMOOTH",
"312 -1 OFFCURVE",
"306 -25 OFFCURVE",
"321 -35 CURVE SMOOTH",
"340 -48 OFFCURVE",
"355 -36 OFFCURVE",
"375 -48 CURVE SMOOTH",
"395 -60 OFFCURVE",
"400 -91 OFFCURVE",
"435 -91 CURVE SMOOTH",
"477 -91 OFFCURVE",
"474 -16 OFFCURVE",
"516 1 CURVE SMOOTH",
"545 13 OFFCURVE",
"581 -9 OFFCURVE",
"575 -58 CURVE SMOOTH",
"567 -115 OFFCURVE",
"515 -165 OFFCURVE",
"436 -164 CURVE SMOOTH",
"382 -163 OFFCURVE",
"369 -134 OFFCURVE",
"334 -124 CURVE SMOOTH",
"298 -114 OFFCURVE",
"259 -132 OFFCURVE",
"232 -118 CURVE SMOOTH",
"207 -105 OFFCURVE",
"214 -76 OFFCURVE",
"203 -54 CURVE SMOOTH",
"192 -32 OFFCURVE",
"165 -22 OFFCURVE",
"138 -29 CURVE SMOOTH",
"107 -37 OFFCURVE",
"83 -54 OFFCURVE",
"39 -45 CURVE SMOOTH",
"-21 -33 OFFCURVE",
"-3 37 OFFCURVE",
"67 53 CURVE SMOOTH",
"112 63 OFFCURVE",
"163 27 OFFCURVE",
"169 64 CURVE SMOOTH",
"175 103 OFFCURVE",
"117 118 OFFCURVE",
"118 158 CURVE SMOOTH",
"118 203 OFFCURVE",
"158 218 OFFCURVE",
"163 262 CURVE SMOOTH",
"170 311 OFFCURVE",
"137 350 OFFCURVE",
"143 405 CURVE SMOOTH",
"149 457 OFFCURVE",
"189 486 OFFCURVE",
"204 510 CURVE SMOOTH",
"218 535 OFFCURVE",
"221 560 OFFCURVE",
"248 580 CURVE SMOOTH",
"277 599 OFFCURVE",
"314 597 OFFCURVE",
"340 609 CURVE SMOOTH",
"367 621 OFFCURVE",
"380 658 OFFCURVE",
"412 665 CURVE SMOOTH"
);
},
{
closed = 1;
nodes = (
"317 550 OFFCURVE",
"278 498 OFFCURVE",
"269 455 CURVE SMOOTH",
"261 415 OFFCURVE",
"279 396 OFFCURVE",
"274 361 CURVE SMOOTH",
"267 314 OFFCURVE",
"221 266 OFFCURVE",
"220 222 CURVE SMOOTH",
"219 156 OFFCURVE",
"273 112 OFFCURVE",
"334 131 CURVE SMOOTH",
"378 145 OFFCURVE",
"379 178 OFFCURVE",
"400 199 CURVE SMOOTH",
"420 219 OFFCURVE",
"449 223 OFFCURVE",
"455 254 CURVE SMOOTH",
"461 283 OFFCURVE",
"446 311 OFFCURVE",
"452 345 CURVE SMOOTH",
"461 396 OFFCURVE",
"525 423 OFFCURVE",
"509 482 CURVE SMOOTH",
"498 520 OFFCURVE",
"450 505 OFFCURVE",
"429 512 CURVE SMOOTH",
"406 520 OFFCURVE",
"397 550 OFFCURVE",
"361 550 CURVE SMOOTH"
);
}
);
width = 662;
}
);
},
{
color = 3;
glyphname = C_h;
lastChange = "2024-08-21 13:07:34 +0000";
layers = (
{
layerId = "A0EF8C6F-60C0-4D2A-A4F7-7A1091FA18C1";
paths = (
{
closed = 1;
nodes = (
"52 400 OFFCURVE",
"96 415 OFFCURVE",
"124 462 CURVE SMOOTH",
"155 511 OFFCURVE",
"146 568 OFFCURVE",
"182 589 CURVE SMOOTH",
"222 613 OFFCURVE",
"273 595 OFFCURVE",
"306 605 CURVE SMOOTH",
"342 616 OFFCURVE",
"369 664 OFFCURVE",
"415 651 CURVE SMOOTH",
"472 635 OFFCURVE",
"471 571 OFFCURVE",
"513 563 CURVE SMOOTH",
"558 555 OFFCURVE",
"586 609 OFFCURVE",
"623 625 CURVE SMOOTH",
"667 644 OFFCURVE",
"703 643 OFFCURVE",
"729 661 CURVE SMOOTH",
"768 688 OFFCURVE",
"786 738 OFFCURVE",
"824 737 CURVE SMOOTH",
"854 736 OFFCURVE",
"860 704 OFFCURVE",
"871 687 CURVE SMOOTH",
"881 672 OFFCURVE",
"900 664 OFFCURVE",
"898 637 CURVE SMOOTH",
"896 605 OFFCURVE",
"856 594 OFFCURVE",
"839 558 CURVE SMOOTH",
"824 527 OFFCURVE",
"844 486 OFFCURVE",
"827 454 CURVE SMOOTH",
"812 426 OFFCURVE",
"762 368 OFFCURVE",
"790 342 CURVE SMOOTH",
"820 314 OFFCURVE",
"855 366 OFFCURVE",
"893 390 CURVE SMOOTH",
"932 414 OFFCURVE",
"987 384 OFFCURVE",
"970 330 CURVE SMOOTH",
"953 276 OFFCURVE",
"923 267 OFFCURVE",
"920 229 CURVE SMOOTH",
"918 205 OFFCURVE",
"928 196 OFFCURVE",
"927 176 CURVE SMOOTH",
"926 155 OFFCURVE",
"905 107 OFFCURVE",
"925 103 CURVE SMOOTH",
"949 98 OFFCURVE",
"967 136 OFFCURVE",
"992 139 CURVE SMOOTH",
"1023 143 OFFCURVE",
"1041 104 OFFCURVE",
"1024 76 CURVE SMOOTH",
"1013 58 OFFCURVE",
"992 56 OFFCURVE",
"977 47 CURVE SMOOTH",
"963 39 OFFCURVE",
"958 23 OFFCURVE",
"944 18 CURVE SMOOTH",
"926 12 OFFCURVE",
"907 21 OFFCURVE",
"882 18 CURVE SMOOTH",
"863 16 OFFCURVE",
"844 -3 OFFCURVE",
"823 -7 CURVE SMOOTH",
"795 -12 OFFCURVE",
"768 28 OFFCURVE",
"804 58 CURVE SMOOTH",
"822 73 OFFCURVE",
"843 72 OFFCURVE",
"850 103 CURVE SMOOTH",
"856 130 OFFCURVE",
"842 170 OFFCURVE",
"845 193 CURVE SMOOTH",
"848 217 OFFCURVE",
"893 266 OFFCURVE",
"874 278 CURVE SMOOTH",
"856 289 OFFCURVE",
"839 240 OFFCURVE",
"810 239 CURVE SMOOTH",
"786 238 OFFCURVE",
"767 268 OFFCURVE",
"744 256 CURVE SMOOTH",
"707 237 OFFCURVE",
"743 197 OFFCURVE",
"730 164 CURVE SMOOTH",
"721 141 OFFCURVE",
"691 127 OFFCURVE",
"697 103 CURVE SMOOTH",
"704 76 OFFCURVE",
"763 98 OFFCURVE",
"758 45 CURVE SMOOTH",
"753 -4 OFFCURVE",
"688 0 OFFCURVE",
"652 -16 CURVE SMOOTH",
"617 -32 OFFCURVE",
"591 -72 OFFCURVE",
"543 -75 CURVE SMOOTH",
"488 -78 OFFCURVE",
"465 -8 OFFCURVE",
"517 26 CURVE SMOOTH",
"549 47 OFFCURVE",
"579 35 OFFCURVE",
"604 52 CURVE SMOOTH",
"623 65 OFFCURVE",
"646 109 OFFCURVE",
"648 178 CURVE SMOOTH",
"649 209 OFFCURVE",
"629 247 OFFCURVE",
"652 290 CURVE SMOOTH",
"676 334 OFFCURVE",
"687 325 OFFCURVE",
"711 371 CURVE SMOOTH",
"730 407 OFFCURVE",
"715 441 OFFCURVE",
"725 474 CURVE SMOOTH",
"735 508 OFFCURVE",
"767 515 OFFCURVE",
"783 565 CURVE SMOOTH",
"798 612 OFFCURVE",
"763 612 OFFCURVE",
"740 593 CURVE SMOOTH",
"717 574 OFFCURVE",
"711 550 OFFCURVE",
"686 540 CURVE SMOOTH",
"660 530 OFFCURVE",
"641 546 OFFCURVE",
"622 535 CURVE SMOOTH",
"601 523 OFFCURVE",
"589 478 OFFCURVE",
"572 466 CURVE SMOOTH",
"551 451 OFFCURVE",
"524 451 OFFCURVE",
"503 434 CURVE SMOOTH",
"482 417 OFFCURVE",
"488 387 OFFCURVE",
"460 369 CURVE SMOOTH",
"427 348 OFFCURVE",
"387 379 OFFCURVE",
"396 422 CURVE SMOOTH",
"405 463 OFFCURVE",
"452 476 OFFCURVE",
"446 509 CURVE SMOOTH",
"440 541 OFFCURVE",
"414 528 OFFCURVE",
"384 538 CURVE SMOOTH",
"357 547 OFFCURVE",
"332 571 OFFCURVE",
"285 540 CURVE SMOOTH",
"238 509 OFFCURVE",
"246 458 OFFCURVE",
"217 423 CURVE SMOOTH",
"190 390 OFFCURVE",
"123 389 OFFCURVE",
"122 345 CURVE SMOOTH",
"120 304 OFFCURVE",
"159 288 OFFCURVE",
"163 249 CURVE SMOOTH",
"168 210 OFFCURVE",
"135 175 OFFCURVE",
"159 137 CURVE SMOOTH",
"174 112 OFFCURVE",
"205 131 OFFCURVE",
"247 111 CURVE SMOOTH",
"288 91 OFFCURVE",
"298 58 OFFCURVE",
"345 68 CURVE SMOOTH",
"398 79 OFFCURVE",
"391 130 OFFCURVE",
"427 169 CURVE SMOOTH",
"479 226 OFFCURVE",
"546 174 OFFCURVE",
"520 108 CURVE SMOOTH",
"507 75 OFFCURVE",
"481 75 OFFCURVE",
"465 53 CURVE SMOOTH",
"448 29 OFFCURVE",
"442 -11 OFFCURVE",
"409 -19 CURVE SMOOTH",
"373 -28 OFFCURVE",
"345 -2 OFFCURVE",
"310 2 CURVE SMOOTH",
"275 6 OFFCURVE",
"232 -18 OFFCURVE",
"187 2 CURVE SMOOTH",
"141 23 OFFCURVE",
"134 61 OFFCURVE",
"113 88 CURVE SMOOTH",
"87 123 OFFCURVE",
"61 134 OFFCURVE",
"48 176 CURVE SMOOTH",
"40 203 OFFCURVE",
"56 232 OFFCURVE",
"53 260 CURVE SMOOTH",
"50 292 OFFCURVE",
"36 310 OFFCURVE",
"43 346 CURVE SMOOTH"
);
}
);
width = 1066;
}
);
leftKerningGroup = C;
rightKerningGroup = h;
},
{
color = 9;
glyphname = E_T;
lastChange = "2024-09-03 17:28:35 +0000";
layers = (
{
layerId = "A0EF8C6F-60C0-4D2A-A4F7-7A1091FA18C1";
paths = (
{
closed = 1;
nodes = (
"300 726 OFFCURVE",
"194 696 OFFCURVE",
"200 622 CURVE SMOOTH",
"203 583 OFFCURVE",
"245 573 OFFCURVE",
"277 582 CURVE SMOOTH",
"307 590 OFFCURVE",
"281 641 OFFCURVE",
"321 669 CURVE SMOOTH",
"367 701 OFFCURVE",
"390 662 OFFCURVE",
"425 667 CURVE SMOOTH",
"462 672 OFFCURVE",
"470 712 OFFCURVE",
"512 713 CURVE SMOOTH",
"559 715 OFFCURVE",
"584 667 OFFCURVE",
"572 617 CURVE SMOOTH",
"564 583 OFFCURVE",
"532 578 OFFCURVE",
"515 547 CURVE SMOOTH",
"502 523 OFFCURVE",
"519 479 OFFCURVE",
"492 455 CURVE SMOOTH",
"465 431 OFFCURVE",
"404 443 OFFCURVE",
"373 473 CURVE SMOOTH",
"328 517 OFFCURVE",
"245 475 OFFCURVE",
"275 429 CURVE SMOOTH",
"292 403 OFFCURVE",
"335 410 OFFCURVE",
"363 387 CURVE SMOOTH",
"415 344 OFFCURVE",
"371 270 OFFCURVE",
"302 290 CURVE SMOOTH",
"259 303 OFFCURVE",
"250 355 OFFCURVE",
"197 363 CURVE SMOOTH",
"153 370 OFFCURVE",
"121 328 OFFCURVE",
"129 276 CURVE SMOOTH",
"135 237 OFFCURVE",
"152 225 OFFCURVE",
"160 200 CURVE SMOOTH",
"170 169 OFFCURVE",
"159 136 OFFCURVE",
"191 118 CURVE SMOOTH",
"224 100 OFFCURVE",
"248 133 OFFCURVE",
"281 137 CURVE SMOOTH",
"318 141 OFFCURVE",
"351 120 OFFCURVE",
"389 134 CURVE SMOOTH",
"431 150 OFFCURVE",
"430 223 OFFCURVE",
"476 223 CURVE SMOOTH",
"503 223 OFFCURVE",
"522 200 OFFCURVE",
"522 161 CURVE SMOOTH",
"522 127 OFFCURVE",
"503 84 OFFCURVE",
"471 72 CURVE SMOOTH",
"431 56 OFFCURVE",
"395 72 OFFCURVE",
"362 57 CURVE SMOOTH",
"328 42 OFFCURVE",
"307 6 OFFCURVE",
"255 6 CURVE SMOOTH",
"197 6 OFFCURVE",
"177 38 OFFCURVE",
"143 68 CURVE SMOOTH",
"110 97 OFFCURVE",
"71 105 OFFCURVE",
"55 152 CURVE SMOOTH",
"39 199 OFFCURVE",
"63 253 OFFCURVE",
"68 290 CURVE SMOOTH",
"75 341 OFFCURVE",
"58 388 OFFCURVE",
"90 426 CURVE SMOOTH",
"128 471 OFFCURVE",
"197 443 OFFCURVE",
"214 488 CURVE SMOOTH",
"232 537 OFFCURVE",
"118 565 OFFCURVE",
"114 658 CURVE SMOOTH",
"111 735 OFFCURVE",
"161 782 OFFCURVE",
"201 793 CURVE SMOOTH",
"230 801 OFFCURVE",
"265 799 OFFCURVE",
"279 770 CURVE SMOOTH"
);
},
{
closed = 1;
nodes = (
"363 548 OFFCURVE",
"380 520 OFFCURVE",
"407 520 CURVE SMOOTH",
"437 520 OFFCURVE",
"433 543 OFFCURVE",
"446 555 CURVE SMOOTH",
"459 567 OFFCURVE",
"483 564 OFFCURVE",
"483 587 CURVE SMOOTH",
"483 615 OFFCURVE",
"447 622 OFFCURVE",
"421 619 CURVE SMOOTH",
"395 616 OFFCURVE",
"368 602 OFFCURVE",
"366 576 CURVE SMOOTH"
);
},
{
closed = 1;
nodes = (
"774 462 OFFCURVE",
"777 450 OFFCURVE",
"802 451 CURVE SMOOTH",
"832 452 OFFCURVE",
"843 490 OFFCURVE",
"877 490 CURVE SMOOTH",
"909 490 OFFCURVE",
"924 464 OFFCURVE",
"955 464 CURVE SMOOTH",
"990 464 OFFCURVE",
"1008 508 OFFCURVE",
"1040 508 CURVE SMOOTH",
"1058 508 OFFCURVE",
"1072 495 OFFCURVE",
"1072 474 CURVE SMOOTH",
"1072 440 OFFCURVE",
"1046 422 OFFCURVE",
"1046 390 CURVE SMOOTH",
"1046 377 OFFCURVE",
"1051 365 OFFCURVE",
"1051 349 CURVE SMOOTH",
"1051 318 OFFCURVE",
"1033 292 OFFCURVE",
"1004 292 CURVE SMOOTH",
"978 292 OFFCURVE",
"959 315 OFFCURVE",
"959 341 CURVE SMOOTH",
"959 357 OFFCURVE",
"967 370 OFFCURVE",
"967 383 CURVE SMOOTH",
"967 402 OFFCURVE",
"952 414 OFFCURVE",
"927 414 CURVE SMOOTH",
"884 414 OFFCURVE",
"847 377 OFFCURVE",
"847 334 CURVE SMOOTH",
"847 292 OFFCURVE",
"855 272 OFFCURVE",
"855 240 CURVE SMOOTH",
"855 159 OFFCURVE",
"788 112 OFFCURVE",
"788 18 CURVE SMOOTH",
"788 -14 OFFCURVE",
"794 -26 OFFCURVE",
"811 -26 CURVE SMOOTH",
"826 -26 OFFCURVE",
"853 -14 OFFCURVE",
"873 -18 CURVE SMOOTH",
"920 -28 OFFCURVE",
"912 -101 OFFCURVE",
"865 -107 CURVE SMOOTH",
"834 -111 OFFCURVE",
"814 -91 OFFCURVE",
"788 -96 CURVE SMOOTH",
"759 -101 OFFCURVE",
"756 -120 OFFCURVE",
"729 -120 CURVE SMOOTH",
"705 -120 OFFCURVE",
"697 -100 OFFCURVE",
"674 -98 CURVE SMOOTH",
"655 -96 OFFCURVE",
"635 -110 OFFCURVE",
"605 -103 CURVE SMOOTH",
"560 -91 OFFCURVE",
"566 -14 OFFCURVE",
"622 -14 CURVE SMOOTH",
"656 -14 OFFCURVE",
"690 -40 OFFCURVE",
"710 -16 CURVE SMOOTH",
"726 4 OFFCURVE",
"701 36 OFFCURVE",
"706 70 CURVE SMOOTH",
"711 105 OFFCURVE",
"747 133 OFFCURVE",
"752 162 CURVE SMOOTH",
"756 192 OFFCURVE",
"735 213 OFFCURVE",
"740 247 CURVE SMOOTH",
"745 279 OFFCURVE",
"779 300 OFFCURVE",
"779 343 CURVE SMOOTH",
"779 370 OFFCURVE",
"758 382 OFFCURVE",
"734 382 CURVE SMOOTH",
"653 382 OFFCURVE",
"660 268 OFFCURVE",
"591 268 CURVE SMOOTH",
"566 268 OFFCURVE",
"546 289 OFFCURVE",
"561 326 CURVE SMOOTH",
"571 350 OFFCURVE",
"590 358 OFFCURVE",
"599 381 CURVE SMOOTH",
"608 406 OFFCURVE",
"597 438 OFFCURVE",
"622 450 CURVE SMOOTH",
"652 464 OFFCURVE",
"671 435 OFFCURVE",
"696 435 CURVE SMOOTH",
"718 435 OFFCURVE",
"726 460 OFFCURVE",
"751 461 CURVE SMOOTH"
);
}
);
width = 1092;
}
);
leftKerningGroup = E;
rightKerningGroup = T;
},
{
color = 9;
glyphname = E_U_X;
lastChange = "2024-08-20 10:06:57 +0000";
layers = (
{
anchors = (
{
name = bottom;
position = "{1585, 0}";
},
{
name = top;
position = "{1585, 650}";
}
);
layerId = "A0EF8C6F-60C0-4D2A-A4F7-7A1091FA18C1";
paths = (
{
closed = 1;
nodes = (
"745 -189 OFFCURVE",
"757 -167 OFFCURVE",
"797 -154 CURVE SMOOTH",
"824 -145 OFFCURVE",
"865 -152 OFFCURVE",
"879 -119 CURVE SMOOTH",
"892 -89 OFFCURVE",
"873 -67 OFFCURVE",
"873 -32 CURVE SMOOTH",
"873 5 OFFCURVE",
"897 31 OFFCURVE",
"914 26 CURVE SMOOTH",
"936 19 OFFCURVE",
"917 -19 OFFCURVE",
"926 -36 CURVE SMOOTH",
"936 -55 OFFCURVE",
"965 -36 OFFCURVE",
"976 -55 CURVE SMOOTH",
"987 -73 OFFCURVE",
"968 -91 OFFCURVE",
"974 -115 CURVE SMOOTH",
"982 -145 OFFCURVE",
"1026 -152 OFFCURVE",
"1059 -115 CURVE SMOOTH",
"1105 -63 OFFCURVE",
"1150 55 OFFCURVE",
"1197 54 CURVE SMOOTH",
"1237 53 OFFCURVE",
"1233 -15 OFFCURVE",
"1267 -22 CURVE SMOOTH",
"1302 -29 OFFCURVE",
"1324 -4 OFFCURVE",
"1355 0 CURVE SMOOTH",
"1381 3 OFFCURVE",
"1408 -18 OFFCURVE",
"1440 -10 CURVE SMOOTH",
"1478 0 OFFCURVE",
"1481 48 OFFCURVE",
"1503 80 CURVE SMOOTH",
"1523 109 OFFCURVE",
"1562 115 OFFCURVE",
"1577 80 CURVE SMOOTH",
"1591 47 OFFCURVE",
"1574 -10 OFFCURVE",
"1619 -23 CURVE SMOOTH",
"1655 -33 OFFCURVE",
"1679 -10 OFFCURVE",
"1708 -8 CURVE SMOOTH",
"1736 -6 OFFCURVE",
"1751 -23 OFFCURVE",
"1782 -18 CURVE SMOOTH",
"1850 -7 OFFCURVE",
"1907 121 OFFCURVE",
"1861 205 CURVE SMOOTH",
"1828 265 OFFCURVE",
"1754 246 OFFCURVE",
"1748 197 CURVE SMOOTH",
"1744 165 OFFCURVE",
"1770 147 OFFCURVE",
"1767 111 CURVE SMOOTH",
"1763 60 OFFCURVE",
"1684 47 OFFCURVE",
"1658 84 CURVE SMOOTH",
"1638 112 OFFCURVE",
"1649 141 OFFCURVE",
"1637 173 CURVE SMOOTH",
"1628 198 OFFCURVE",
"1593 198 OFFCURVE",
"1593 237 CURVE SMOOTH",
"1593 291 OFFCURVE",
"1670 288 OFFCURVE",
"1680 325 CURVE SMOOTH",
"1690 363 OFFCURVE",
"1666 380 OFFCURVE",
"1674 419 CURVE SMOOTH",
"1692 505 OFFCURVE",
"1824 557 OFFCURVE",
"1840 457 CURVE SMOOTH",
"1847 413 OFFCURVE",
"1789 359 OFFCURVE",
"1822 323 CURVE SMOOTH",
"1867 274 OFFCURVE",
"1944 341 OFFCURVE",
"1937 429 CURVE SMOOTH",
"1934 465 OFFCURVE",
"1912 487 OFFCURVE",
"1906 517 CURVE SMOOTH",
"1898 555 OFFCURVE",
"1912 589 OFFCURVE",
"1881 604 CURVE SMOOTH",
"1852 618 OFFCURVE",
"1834 592 OFFCURVE",
"1802 592 CURVE SMOOTH",
"1770 592 OFFCURVE",
"1768 615 OFFCURVE",
"1734 605 CURVE SMOOTH",
"1695 594 OFFCURVE",
"1690 557 OFFCURVE",
"1672 531 CURVE SMOOTH",
"1652 502 OFFCURVE",
"1625 502 OFFCURVE",
"1612 535 CURVE SMOOTH",
"1602 561 OFFCURVE",
"1618 628 OFFCURVE",
"1581 638 CURVE SMOOTH",
"1542 649 OFFCURVE",
"1528 613 OFFCURVE",
"1499 615 CURVE SMOOTH",
"1468 617 OFFCURVE",
"1448 644 OFFCURVE",
"1409 643 CURVE SMOOTH",
"1353 642 OFFCURVE",
"1298 575 OFFCURVE",
"1298 502 CURVE SMOOTH",
"1298 431 OFFCURVE",
"1340 357 OFFCURVE",
"1391 380 CURVE SMOOTH",
"1440 402 OFFCURVE",
"1398 472 OFFCURVE",
"1408 517 CURVE SMOOTH",
"1421 574 OFFCURVE",
"1511 576 OFFCURVE",
"1527 539 CURVE SMOOTH",
"1539 511 OFFCURVE",
"1528 486 OFFCURVE",
"1542 458 CURVE SMOOTH",
"1556 431 OFFCURVE",
"1580 435 OFFCURVE",
"1580 392 CURVE SMOOTH",
"1580 345 OFFCURVE",
"1514 351 OFFCURVE",
"1498 304 CURVE SMOOTH",
"1482 257 OFFCURVE",
"1537 233 OFFCURVE",
"1521 187 CURVE SMOOTH",
"1507 147 OFFCURVE",
"1453 155 OFFCURVE",
"1427 141 CURVE SMOOTH",
"1393 122 OFFCURVE",
"1390 81 OFFCURVE",
"1323 81 CURVE SMOOTH",
"1289 81 OFFCURVE",
"1265 98 OFFCURVE",
"1265 124 CURVE SMOOTH",
"1265 166 OFFCURVE",
"1338 175 OFFCURVE",
"1338 209 CURVE SMOOTH",
"1338 231 OFFCURVE",
"1320 246 OFFCURVE",
"1292 246 CURVE SMOOTH",
"1185 246 OFFCURVE",
"1147 76 OFFCURVE",
"1054 31 CURVE SMOOTH",
"1009 9 OFFCURVE",
"960 37 OFFCURVE",
"963 81 CURVE SMOOTH",
"966 133 OFFCURVE",
"1033 172 OFFCURVE",
"1059 228 CURVE SMOOTH",
"1089 291 OFFCURVE",
"1079 320 OFFCURVE",
"1102 368 CURVE SMOOTH",
"1120 406 OFFCURVE",
"1154 422 OFFCURVE",
"1156 475 CURVE SMOOTH",
"1159 544 OFFCURVE",
"1071 537 OFFCURVE",
"1043 486 CURVE SMOOTH",
"1024 451 OFFCURVE",
"1036 402 OFFCURVE",
"1018 370 CURVE SMOOTH",
"1000 338 OFFCURVE",
"968 314 OFFCURVE",
"941 266 CURVE SMOOTH",
"909 209 OFFCURVE",
"914 148 OFFCURVE",
"890 101 CURVE SMOOTH",
"874 69 OFFCURVE",
"832 70 OFFCURVE",
"810 42 CURVE SMOOTH",
"789 15 OFFCURVE",
"806 -30 OFFCURVE",
"770 -59 CURVE SMOOTH",
"715 -104 OFFCURVE",
"652 -44 OFFCURVE",
"680 7 CURVE SMOOTH",
"694 33 OFFCURVE",
"758 86 OFFCURVE",
"764 121 CURVE SMOOTH",
"769 148 OFFCURVE",
"753 163 OFFCURVE",
"757 197 CURVE SMOOTH",
"764 253 OFFCURVE",
"914 321 OFFCURVE",
"895 393 CURVE SMOOTH",
"885 429 OFFCURVE",
"842 407 OFFCURVE",
"807 433 CURVE SMOOTH",
"777 456 OFFCURVE",
"785 494 OFFCURVE",
"734 494 CURVE SMOOTH",
"649 494 OFFCURVE",
"611 394 OFFCURVE",
"561 362 CURVE SMOOTH",
"511 329 OFFCURVE",
"482 343 OFFCURVE",
"454 326 CURVE SMOOTH",
"420 305 OFFCURVE",
"425 218 OFFCURVE",
"383 204 CURVE SMOOTH",
"351 193 OFFCURVE",
"308 207 OFFCURVE",
"271 203 CURVE SMOOTH",
"238 199 OFFCURVE",
"214 166 OFFCURVE",
"181 184 CURVE SMOOTH",
"149 202 OFFCURVE",
"160 235 OFFCURVE",
"150 266 CURVE SMOOTH",
"142 291 OFFCURVE",
"125 303 OFFCURVE",
"119 342 CURVE SMOOTH",
"111 394 OFFCURVE",
"143 436 OFFCURVE",
"187 429 CURVE SMOOTH",
"240 421 OFFCURVE",
"249 369 OFFCURVE",
"292 356 CURVE SMOOTH",
"361 336 OFFCURVE",
"405 410 OFFCURVE",
"353 453 CURVE SMOOTH",
"325 476 OFFCURVE",
"282 469 OFFCURVE",
"265 495 CURVE SMOOTH",
"235 541 OFFCURVE",
"318 583 OFFCURVE",
"363 539 CURVE SMOOTH",
"394 509 OFFCURVE",
"455 497 OFFCURVE",
"482 521 CURVE SMOOTH",
"509 545 OFFCURVE",
"492 589 OFFCURVE",
"505 613 CURVE SMOOTH",
"522 644 OFFCURVE",
"554 649 OFFCURVE",
"562 683 CURVE SMOOTH",
"574 733 OFFCURVE",
"549 781 OFFCURVE",
"502 779 CURVE SMOOTH",
"460 778 OFFCURVE",
"452 738 OFFCURVE",
"415 733 CURVE SMOOTH",
"380 728 OFFCURVE",
"357 767 OFFCURVE",
"311 735 CURVE SMOOTH",
"271 707 OFFCURVE",
"297 656 OFFCURVE",
"267 648 CURVE SMOOTH",
"235 639 OFFCURVE",
"193 649 OFFCURVE",
"190 688 CURVE SMOOTH",
"184 762 OFFCURVE",
"290 792 OFFCURVE",
"269 836 CURVE SMOOTH",
"255 865 OFFCURVE",
"220 867 OFFCURVE",
"191 859 CURVE SMOOTH",
"151 848 OFFCURVE",
"101 801 OFFCURVE",
"104 724 CURVE SMOOTH",
"108 631 OFFCURVE",
"222 603 OFFCURVE",
"204 554 CURVE SMOOTH",
"187 509 OFFCURVE",
"118 537 OFFCURVE",
"80 492 CURVE SMOOTH",
"48 454 OFFCURVE",
"65 407 OFFCURVE",
"58 356 CURVE SMOOTH",
"53 319 OFFCURVE",
"29 265 OFFCURVE",
"45 218 CURVE SMOOTH",
"61 171 OFFCURVE",
"100 163 OFFCURVE",
"133 134 CURVE SMOOTH",
"167 104 OFFCURVE",
"187 68 OFFCURVE",
"245 69 CURVE SMOOTH",
"302 70 OFFCURVE",
"328 113 OFFCURVE",
"362 125 CURVE SMOOTH",
"406 140 OFFCURVE",
"460 127 OFFCURVE",
"495 158 CURVE",
"549 199 OFFCURVE",
"524 262 OFFCURVE",
"558 289 CURVE SMOOTH",
"580 309 OFFCURVE",
"615 299 OFFCURVE",
"650 316 CURVE SMOOTH",
"677 329 OFFCURVE",
"689 362 OFFCURVE",
"718 379 CURVE SMOOTH",
"754 400 OFFCURVE",
"779 370 OFFCURVE",
"762 339 CURVE SMOOTH",
"739 296 OFFCURVE",
"673 275 OFFCURVE",
"661 210 CURVE SMOOTH",
"654 171 OFFCURVE",
"668 111 OFFCURVE",
"639 65 CURVE SMOOTH",
"612 22 OFFCURVE",
"554 -15 OFFCURVE",
"568 -69 CURVE SMOOTH",
"580 -115 OFFCURVE",
"624 -107 OFFCURVE",
"645 -127 CURVE SMOOTH",
"663 -144 OFFCURVE",
"669 -179 OFFCURVE",
"706 -184 CURVE SMOOTH"
);
},
{
closed = 1;
nodes = (
"370 586 OFFCURVE",
"353 614 OFFCURVE",
"356 642 CURVE SMOOTH",
"358 668 OFFCURVE",
"385 682 OFFCURVE",
"411 685 CURVE SMOOTH",
"437 688 OFFCURVE",
"473 681 OFFCURVE",
"473 653 CURVE SMOOTH",
"473 630 OFFCURVE",
"449 633 OFFCURVE",
"436 621 CURVE SMOOTH",
"423 609 OFFCURVE",
"427 586 OFFCURVE",
"397 586 CURVE SMOOTH"
);
}
);
width = 1980;
}
);
leftKerningGroup = E;
leftMetricsKey = E;
rightMetricsKey = X;
},
{
color = 3;
glyphname = F_U;
lastChange = "2024-08-21 13:07:34 +0000";
layers = (
{
layerId = "A0EF8C6F-60C0-4D2A-A4F7-7A1091FA18C1";
paths = (
{
closed = 1;
nodes = (
"118 94 OFFCURVE",
"153 64 OFFCURVE",
"174 88 CURVE SMOOTH",
"198 115 OFFCURVE",
"159 170 OFFCURVE",
"163 205 CURVE SMOOTH",
"167 243 OFFCURVE",
"203 249 OFFCURVE",
"205 281 CURVE SMOOTH",
"207 313 OFFCURVE",
"187 351 OFFCURVE",
"187 400 CURVE SMOOTH",
"187 456 OFFCURVE",
"242 476 OFFCURVE",
"231 521 CURVE SMOOTH",
"223 555 OFFCURVE",
"163 531 OFFCURVE",
"133 556 CURVE SMOOTH",
"102 582 OFFCURVE",
"124 648 OFFCURVE",
"178 644 CURVE SMOOTH",
"221 641 OFFCURVE",
"236 617 OFFCURVE",
"269 619 CURVE SMOOTH",
"308 621 OFFCURVE",
"349 655 OFFCURVE",
"393 659 CURVE SMOOTH",
"437 663 OFFCURVE",
"477 623 OFFCURVE",
"512 624 CURVE SMOOTH",
"547 625 OFFCURVE",
"571 649 OFFCURVE",
"609 641 CURVE SMOOTH",
"645 633 OFFCURVE",
"638 587 OFFCURVE",
"675 580 CURVE SMOOTH",
"732 569 OFFCURVE",
"788 705 OFFCURVE",
"864 717 CURVE SMOOTH",
"901 723 OFFCURVE",
"921 700 OFFCURVE",
"922 674 CURVE SMOOTH",
"923 647 OFFCURVE",
"908 639 OFFCURVE",
"909 618 CURVE SMOOTH",
"910 597 OFFCURVE",
"926 582 OFFCURVE",
"923 551 CURVE SMOOTH",
"916 479 OFFCURVE",
"776 408 OFFCURVE",
"769 352 CURVE SMOOTH",
"765 318 OFFCURVE",
"781 303 OFFCURVE",
"776 276 CURVE SMOOTH",
"770 241 OFFCURVE",
"706 188 OFFCURVE",
"692 162 CURVE SMOOTH",
"664 111 OFFCURVE",
"727 51 OFFCURVE",
"782 96 CURVE SMOOTH",
"818 125 OFFCURVE",
"801 170 OFFCURVE",
"822 197 CURVE SMOOTH",
"844 225 OFFCURVE",
"886 224 OFFCURVE",
"902 256 CURVE SMOOTH",
"926 303 OFFCURVE",
"921 364 OFFCURVE",
"953 421 CURVE SMOOTH",
"980 469 OFFCURVE",
"1014 493 OFFCURVE",
"1030 525 CURVE SMOOTH",
"1046 557 OFFCURVE",
"1036 606 OFFCURVE",
"1055 641 CURVE SMOOTH",
"1083 692 OFFCURVE",
"1171 699 OFFCURVE",
"1168 630 CURVE SMOOTH",
"1166 577 OFFCURVE",
"1132 561 OFFCURVE",
"1114 523 CURVE SMOOTH",
"1091 475 OFFCURVE",
"1101 446 OFFCURVE",
"1071 383 CURVE SMOOTH",
"1044 327 OFFCURVE",
"979 280 OFFCURVE",
"975 236 CURVE SMOOTH",
"971 192 OFFCURVE",
"1021 163 OFFCURVE",
"1066 186 CURVE SMOOTH",
"1111 209 OFFCURVE",
"1146 288 OFFCURVE",
"1181 322 CURVE SMOOTH",
"1216 356 OFFCURVE",
"1271 348 OFFCURVE",
"1257 289 CURVE SMOOTH",
"1246 244 OFFCURVE",
"1180 215 OFFCURVE",
"1151 163 CURVE SMOOTH",
"1125 116 OFFCURVE",
"1114 74 OFFCURVE",
"1081 41 CURVE SMOOTH",
"1042 2 OFFCURVE",
"998 -1 OFFCURVE",
"986 40 CURVE SMOOTH",
"978 68 OFFCURVE",
"999 82 OFFCURVE",
"988 100 CURVE SMOOTH",
"977 119 OFFCURVE",
"948 100 OFFCURVE",
"938 119 CURVE SMOOTH",
"929 136 OFFCURVE",
"948 174 OFFCURVE",
"926 181 CURVE SMOOTH",
"909 186 OFFCURVE",
"885 160 OFFCURVE",
"885 123 CURVE SMOOTH",
"885 88 OFFCURVE",
"904 66 OFFCURVE",
"891 36 CURVE SMOOTH",
"877 3 OFFCURVE",
"836 10 OFFCURVE",
"809 1 CURVE SMOOTH",
"769 -12 OFFCURVE",
"757 -34 OFFCURVE",
"718 -29 CURVE SMOOTH",
"681 -24 OFFCURVE",
"675 11 OFFCURVE",
"657 28 CURVE SMOOTH",
"636 48 OFFCURVE",
"592 40 OFFCURVE",
"580 86 CURVE SMOOTH",
"566 140 OFFCURVE",
"624 177 OFFCURVE",
"651 220 CURVE SMOOTH",
"680 266 OFFCURVE",
"666 326 OFFCURVE",
"673 365 CURVE SMOOTH",
"685 430 OFFCURVE",
"781 471 OFFCURVE",
"804 514 CURVE SMOOTH",
"823 549 OFFCURVE",
"793 579 OFFCURVE",
"751 549 CURVE SMOOTH",
"700 512 OFFCURVE",
"663 417 OFFCURVE",
"601 442 CURVE SMOOTH",
"547 464 OFFCURVE",
"598 521 OFFCURVE",
"561 552 CURVE SMOOTH",
"531 577 OFFCURVE",
"463 544 OFFCURVE",
"425 545 CURVE SMOOTH",
"387 546 OFFCURVE",
"348 577 OFFCURVE",
"322 556 CURVE SMOOTH",
"296 535 OFFCURVE",
"320 504 OFFCURVE",
"320 476 CURVE SMOOTH",
"320 451 OFFCURVE",
"286 426 OFFCURVE",
"288 402 CURVE SMOOTH",
"291 366 OFFCURVE",
"355 361 OFFCURVE",
"378 377 CURVE SMOOTH",
"407 396 OFFCURVE",
"412 420 OFFCURVE",
"437 434 CURVE SMOOTH",
"460 447 OFFCURVE",
"487 429 OFFCURVE",
"488 397 CURVE SMOOTH",
"489 353 OFFCURVE",
"452 322 OFFCURVE",
"442 293 CURVE SMOOTH",
"432 261 OFFCURVE",
"448 221 OFFCURVE",
"432 193 CURVE SMOOTH",
"412 160 OFFCURVE",
"339 150 OFFCURVE",
"336 223 CURVE SMOOTH",
"335 246 OFFCURVE",
"356 253 OFFCURVE",
"354 279 CURVE SMOOTH",
"351 313 OFFCURVE",
"302 330 OFFCURVE",
"283 300 CURVE SMOOTH",
"262 268 OFFCURVE",
"281 227 OFFCURVE",
"278 197 CURVE SMOOTH",
"275 166 OFFCURVE",
"239 122 OFFCURVE",
"254 94 CURVE SMOOTH",
"267 70 OFFCURVE",
"309 97 OFFCURVE",
"332 82 CURVE SMOOTH",
"363 62 OFFCURVE",
"357 10 OFFCURVE",
"313 -3 CURVE SMOOTH",
"269 -16 OFFCURVE",
"221 1 OFFCURVE",
"182 -3 CURVE SMOOTH",
"142 -7 OFFCURVE",
"105 -36 OFFCURVE",
"75 -29 CURVE SMOOTH",
"31 -19 OFFCURVE",
"30 38 OFFCURVE",
"72 65 CURVE SMOOTH"
);
}
);
width = 1290;
}
);
leftKerningGroup = F;
rightKerningGroup = U;
},
{
color = 7;
glyphname = O_Idieresis_N;
lastChange = "2024-09-03 17:03:12 +0000";
layers = (
{
background = {
paths = (
{
closed = 1;
nodes = (
"884 540 OFFCURVE",
"918 554 OFFCURVE",
"932 580 CURVE SMOOTH",
"946 609 OFFCURVE",
"941 654 OFFCURVE",
"909 664 CURVE SMOOTH",
"876 674 OFFCURVE",
"847 658 OFFCURVE",
"832 628 CURVE SMOOTH",
"819 600 OFFCURVE",
"823 566 OFFCURVE",
"850 555 CURVE SMOOTH"
);
}
);
};
components = (
{
alignment = -1;
name = I;
transform = "{1, 0, 0, 1, 636, -124}";
}
);
layerId = "A0EF8C6F-60C0-4D2A-A4F7-7A1091FA18C1";
paths = (
{
closed = 1;
nodes = (
"288 -57 OFFCURVE",
"319 -23 OFFCURVE",
"357 -15 CURVE SMOOTH",
"403 -6 OFFCURVE",
"450 -15 OFFCURVE",
"486 25 CURVE SMOOTH",
"523 69 OFFCURVE",
"507 126 OFFCURVE",
"528 165 CURVE SMOOTH",
"556 215 OFFCURVE",
"596 222 OFFCURVE",
"612 280 CURVE SMOOTH",
"621 313 OFFCURVE",
"618 378 OFFCURVE",
"630 437 CURVE SMOOTH",
"640 483 OFFCURVE",
"700 577 OFFCURVE",
"780 577 CURVE SMOOTH",
"828 577 OFFCURVE",
"829 537 OFFCURVE",
"871 537 CURVE SMOOTH",
"901 537 OFFCURVE",
"924 561 OFFCURVE",
"924 593 CURVE SMOOTH",
"924 633 OFFCURVE",
"891 663 OFFCURVE",
"836 663 CURVE SMOOTH",
"788 663 OFFCURVE",
"750 650 OFFCURVE",
"711 619 CURVE SMOOTH",
"664 580 OFFCURVE",
"627 562 OFFCURVE",
"596 562 CURVE SMOOTH",
"556 562 OFFCURVE",
"553 595 OFFCURVE",
"526 609 CURVE SMOOTH",
"498 623 OFFCURVE",
"482 610 OFFCURVE",
"463 616 CURVE SMOOTH",
"443 621 OFFCURVE",
"432 647 OFFCURVE",
"401 647 CURVE SMOOTH",
"358 647 OFFCURVE",
"317 593 OFFCURVE",
"317 540 CURVE SMOOTH",
"317 497 OFFCURVE",
"340 486 OFFCURVE",
"346 462 CURVE SMOOTH",
"349 441 OFFCURVE",
"351 396 OFFCURVE",
"385 379 CURVE SMOOTH",
"418 360 OFFCURVE",
"451 375 OFFCURVE",
"477 402 CURVE SMOOTH",
"512 437 OFFCURVE",
"559 408 OFFCURVE",
"542 368 CURVE SMOOTH",
"526 327 OFFCURVE",
"503 323 OFFCURVE",
"487 292 CURVE SMOOTH",
"471 262 OFFCURVE",
"483 218 OFFCURVE",
"470 189 CURVE SMOOTH",
"457 161 OFFCURVE",
"424 149 OFFCURVE",
"399 118 CURVE SMOOTH",
"372 85 OFFCURVE",
"360 38 OFFCURVE",
"292 37 CURVE SMOOTH",
"230 36 OFFCURVE",
"224 85 OFFCURVE",
"196 115 CURVE SMOOTH",
"172 139 OFFCURVE",
"138 137 OFFCURVE",
"126 190 CURVE SMOOTH",
"117 237 OFFCURVE",
"156 256 OFFCURVE",
"156 298 CURVE SMOOTH",
"156 337 OFFCURVE",
"143 370 OFFCURVE",
"159 405 CURVE SMOOTH",
"178 444 OFFCURVE",
"229 455 OFFCURVE",
"259 485 CURVE SMOOTH",
"274 500 OFFCURVE",
"283 519 OFFCURVE",
"283 540 CURVE SMOOTH",
"283 570 OFFCURVE",
"261 593 OFFCURVE",
"230 593 CURVE SMOOTH",
"197 593 OFFCURVE",
"173 576 OFFCURVE",
"154 547 CURVE SMOOTH",
"130 510 OFFCURVE",
"120 461 OFFCURVE",
"104 441 CURVE SMOOTH",
"77 408 OFFCURVE",
"46 393 OFFCURVE",
"35 344 CURVE SMOOTH",
"22 289 OFFCURVE",
"55 260 OFFCURVE",
"55 195 CURVE SMOOTH",
"55 136 OFFCURVE",
"45 112 OFFCURVE",
"64 74 CURVE SMOOTH",
"79 46 OFFCURVE",
"120 32 OFFCURVE",
"152 13 CURVE SMOOTH",
"182 -6 OFFCURVE",
"197 -42 OFFCURVE",
"238 -49 CURVE SMOOTH"
);
},
{
closed = 1;
nodes = (
"492 524 OFFCURVE",
"543 530 OFFCURVE",
"543 499 CURVE SMOOTH",
"543 472 OFFCURVE",
"495 481 OFFCURVE",
"477 477 CURVE SMOOTH",
"456 473 OFFCURVE",
"441 453 OFFCURVE",
"424 462 CURVE SMOOTH",
"396 477 OFFCURVE",
"395 550 OFFCURVE",
"421 559 CURVE SMOOTH",
"439 565 OFFCURVE",
"453 540 OFFCURVE",
"470 533 CURVE SMOOTH"
);
},
{
closed = 1;
nodes = (
"989 543 OFFCURVE",
"1027 531 OFFCURVE",
"1053 543 CURVE SMOOTH",
"1080 556 OFFCURVE",
"1086 589 OFFCURVE",
"1078 615 CURVE SMOOTH",
"1068 643 OFFCURVE",
"1037 659 OFFCURVE",
"1008 647 CURVE SMOOTH",
"980 636 OFFCURVE",
"970 602 OFFCURVE",
"980 573 CURVE SMOOTH"
);
},
{
closed = 1;
nodes = (
"1603 243 OFFCURVE",
"1636 213 OFFCURVE",
"1636 168 CURVE SMOOTH",
"1636 142 OFFCURVE",
"1621 125 OFFCURVE",
"1599 125 CURVE SMOOTH",
"1558 125 OFFCURVE",
"1509 182 OFFCURVE",
"1481 240 CURVE SMOOTH",
"1425 356 OFFCURVE",
"1419 507 OFFCURVE",
"1355 507 CURVE SMOOTH",
"1341 507 OFFCURVE",
"1338 494 OFFCURVE",
"1338 478 CURVE SMOOTH",
"1338 460 OFFCURVE",
"1342 437 OFFCURVE",
"1342 417 CURVE SMOOTH",
"1342 352 OFFCURVE",
"1256 301 OFFCURVE",
"1256 246 CURVE SMOOTH",
"1256 230 OFFCURVE",
"1268 217 OFFCURVE",
"1281 217 CURVE SMOOTH",
"1308 217 OFFCURVE",
"1333 255 OFFCURVE",
"1367 255 CURVE SMOOTH",
"1393 255 OFFCURVE",
"1417 228 OFFCURVE",
"1417 203 CURVE SMOOTH",
"1417 162 OFFCURVE",
"1369 160 OFFCURVE",
"1346 144 CURVE SMOOTH",
"1327 131 OFFCURVE",
"1316 102 OFFCURVE",
"1292 93 CURVE SMOOTH",
"1274 87 OFFCURVE",
"1267 97 OFFCURVE",
"1248 92 CURVE SMOOTH",
"1221 85 OFFCURVE",
"1196 50 OFFCURVE",
"1162 50 CURVE SMOOTH",
"1127 50 OFFCURVE",
"1111 74 OFFCURVE",
"1111 106 CURVE SMOOTH",
"1111 167 OFFCURVE",
"1200 163 OFFCURVE",
"1200 223 CURVE SMOOTH",
"1200 255 OFFCURVE",
"1186 312 OFFCURVE",
"1192 352 CURVE SMOOTH",
"1202 415 OFFCURVE",
"1275 446 OFFCURVE",
"1275 549 CURVE SMOOTH",
"1275 557 OFFCURVE",
"1274 577 OFFCURVE",
"1274 586 CURVE SMOOTH",
"1274 637 OFFCURVE",
"1298 683 OFFCURVE",
"1336 683 CURVE SMOOTH",
"1386 683 OFFCURVE",
"1388 603 OFFCURVE",
"1410 570 CURVE SMOOTH",
"1436 532 OFFCURVE",
"1465 529 OFFCURVE",
"1481 497 CURVE SMOOTH",
"1500 460 OFFCURVE",
"1487 359 OFFCURVE",
"1535 359 CURVE SMOOTH",
"1553 359 OFFCURVE",
"1558 377 OFFCURVE",
"1558 397 CURVE SMOOTH",
"1558 425 OFFCURVE",
"1543 455 OFFCURVE",
"1543 490 CURVE SMOOTH",
"1543 529 OFFCURVE",
"1612 562 OFFCURVE",
"1612 597 CURVE SMOOTH",
"1612 616 OFFCURVE",
"1601 628 OFFCURVE",
"1582 628 CURVE SMOOTH",
"1559 628 OFFCURVE",
"1549 619 OFFCURVE",
"1525 619 CURVE SMOOTH",
"1475 619 OFFCURVE",
"1454 650 OFFCURVE",
"1454 681 CURVE SMOOTH",
"1454 704 OFFCURVE",
"1472 724 OFFCURVE",
"1501 724 CURVE SMOOTH",
"1527 724 OFFCURVE",
"1552 712 OFFCURVE",
"1583 712 CURVE SMOOTH",
"1658 712 OFFCURVE",
"1704 792 OFFCURVE",
"1747 792 CURVE SMOOTH",
"1777 792 OFFCURVE",
"1790 767 OFFCURVE",
"1790 740 CURVE SMOOTH",
"1790 692 OFFCURVE",
"1735 695 OFFCURVE",
"1712 666 CURVE SMOOTH",
"1697 647 OFFCURVE",
"1702 626 OFFCURVE",
"1694 603 CURVE SMOOTH",
"1675 547 OFFCURVE",
"1622 523 OFFCURVE",
"1622 475 CURVE SMOOTH",
"1622 443 OFFCURVE",
"1633 425 OFFCURVE",
"1633 390 CURVE SMOOTH",
"1633 349 OFFCURVE",
"1603 329 OFFCURVE",
"1603 290 CURVE SMOOTH"
);
}
);
width = 1725;
}
);
leftKerningGroup = O;
leftMetricsKey = O;
rightMetricsKey = N;
},
{
color = 3;
glyphname = OE_U;
lastChange = "2024-08-21 13:07:34 +0000";
layers = (
{
layerId = "A0EF8C6F-60C0-4D2A-A4F7-7A1091FA18C1";
paths = (
{
closed = 1;
nodes = (
"13 121 OFFCURVE",
"49 211 OFFCURVE",
"55 273 CURVE SMOOTH",
"63 348 OFFCURVE",
"23 384 OFFCURVE",
"49 453 CURVE SMOOTH",
"71 513 OFFCURVE",
"119 526 OFFCURVE",
"155 558 CURVE SMOOTH",
"204 601 OFFCURVE",
"212 678 OFFCURVE",
"322 682 CURVE SMOOTH",
"399 685 OFFCURVE",
"407 572 OFFCURVE",
"332 558 CURVE SMOOTH",
"282 550 OFFCURVE",
"241 575 OFFCURVE",
"193 526 CURVE SMOOTH",
"138 468 OFFCURVE",
"175 407 OFFCURVE",
"162 354 CURVE SMOOTH",
"146 287 OFFCURVE",
"101 257 OFFCURVE",
"103 206 CURVE SMOOTH",
"104 159 OFFCURVE",
"135 143 OFFCURVE",
"156 122 CURVE SMOOTH",
"180 98 OFFCURVE",
"186 68 OFFCURVE",
"214 65 CURVE SMOOTH",
"244 62 OFFCURVE",
"264 83 OFFCURVE",
"300 91 CURVE SMOOTH",
"336 99 OFFCURVE",
"377 91 OFFCURVE",
"414 131 CURVE SMOOTH",
"460 181 OFFCURVE",
"411 229 OFFCURVE",
"414 275 CURVE SMOOTH",
"418 324 OFFCURVE",
"474 348 OFFCURVE",
"461 399 CURVE SMOOTH",
"449 445 OFFCURVE",
"403 469 OFFCURVE",
"377 439 CURVE SMOOTH",
"345 403 OFFCURVE",
"363 333 OFFCURVE",
"296 316 CURVE SMOOTH",
"238 301 OFFCURVE",
"207 362 OFFCURVE",
"243 416 CURVE SMOOTH",
"264 447 OFFCURVE",
"306 450 OFFCURVE",
"327 470 CURVE SMOOTH",
"353 495 OFFCURVE",
"356 527 OFFCURVE",
"399 531 CURVE SMOOTH",
"447 536 OFFCURVE",
"454 464 OFFCURVE",
"495 470 CURVE SMOOTH",
"540 478 OFFCURVE",
"518 532 OFFCURVE",
"543 556 CURVE SMOOTH",
"566 578 OFFCURVE",
"595 560 OFFCURVE",
"626 580 CURVE SMOOTH",
"651 596 OFFCURVE",
"666 646 OFFCURVE",
"728 648 CURVE SMOOTH",
"794 650 OFFCURVE",
"830 537 OFFCURVE",
"899 530 CURVE SMOOTH",
"955 524 OFFCURVE",
"972 560 OFFCURVE",
"1015 579 CURVE SMOOTH",
"1058 598 OFFCURVE",
"1089 597 OFFCURVE",
"1126 618 CURVE SMOOTH",
"1170 643 OFFCURVE",
"1189 704 OFFCURVE",
"1236 706 CURVE SMOOTH",
"1262 707 OFFCURVE",
"1282 688 OFFCURVE",
"1283 662 CURVE SMOOTH",
"1284 635 OFFCURVE",
"1272 627 OFFCURVE",
"1273 606 CURVE SMOOTH",
"1274 585 OFFCURVE",
"1287 570 OFFCURVE",
"1284 539 CURVE SMOOTH",
"1277 467 OFFCURVE",
"1137 396 OFFCURVE",
"1130 340 CURVE SMOOTH",
"1126 306 OFFCURVE",
"1142 291 OFFCURVE",
"1137 264 CURVE SMOOTH",
"1131 229 OFFCURVE",
"1067 176 OFFCURVE",
"1053 150 CURVE SMOOTH",
"1025 99 OFFCURVE",
"1088 39 OFFCURVE",
"1143 84 CURVE SMOOTH",
"1179 113 OFFCURVE",
"1162 158 OFFCURVE",
"1183 185 CURVE SMOOTH",
"1205 213 OFFCURVE",
"1247 212 OFFCURVE",
"1263 244 CURVE SMOOTH",
"1287 291 OFFCURVE",
"1282 352 OFFCURVE",
"1314 409 CURVE SMOOTH",
"1341 457 OFFCURVE",
"1373 481 OFFCURVE",
"1391 513 CURVE SMOOTH",
"1409 545 OFFCURVE",
"1397 594 OFFCURVE",
"1416 629 CURVE SMOOTH",
"1444 680 OFFCURVE",
"1532 687 OFFCURVE",
"1529 618 CURVE SMOOTH",
"1527 565 OFFCURVE",
"1493 549 OFFCURVE",
"1475 511 CURVE SMOOTH",
"1452 463 OFFCURVE",
"1462 434 OFFCURVE",
"1432 371 CURVE SMOOTH",
"1405 315 OFFCURVE",
"1340 268 OFFCURVE",
"1336 224 CURVE SMOOTH",
"1332 180 OFFCURVE",
"1382 151 OFFCURVE",
"1427 174 CURVE SMOOTH",
"1472 197 OFFCURVE",
"1507 276 OFFCURVE",
"1542 310 CURVE SMOOTH",
"1577 344 OFFCURVE",
"1632 336 OFFCURVE",
"1618 277 CURVE SMOOTH",
"1607 232 OFFCURVE",
"1541 203 OFFCURVE",
"1512 151 CURVE SMOOTH",
"1486 104 OFFCURVE",
"1475 62 OFFCURVE",
"1442 29 CURVE SMOOTH",
"1403 -10 OFFCURVE",
"1359 -13 OFFCURVE",
"1347 28 CURVE SMOOTH",
"1339 56 OFFCURVE",
"1360 70 OFFCURVE",
"1349 88 CURVE SMOOTH",
"1338 107 OFFCURVE",
"1309 88 OFFCURVE",
"1299 107 CURVE SMOOTH",
"1290 124 OFFCURVE",
"1309 162 OFFCURVE",
"1287 169 CURVE SMOOTH",
"1270 174 OFFCURVE",
"1246 148 OFFCURVE",
"1246 111 CURVE SMOOTH",
"1246 76 OFFCURVE",
"1265 54 OFFCURVE",
"1252 24 CURVE SMOOTH",
"1238 -9 OFFCURVE",
"1197 -2 OFFCURVE",
"1170 -11 CURVE SMOOTH",
"1130 -24 OFFCURVE",
"1118 -46 OFFCURVE",
"1079 -41 CURVE SMOOTH",
"1042 -36 OFFCURVE",
"1036 -1 OFFCURVE",
"1018 16 CURVE SMOOTH",
"997 36 OFFCURVE",
"953 28 OFFCURVE",
"941 74 CURVE SMOOTH",
"927 128 OFFCURVE",
"985 165 OFFCURVE",
"1012 208 CURVE SMOOTH",
"1041 254 OFFCURVE",
"1027 314 OFFCURVE",
"1034 353 CURVE SMOOTH",
"1046 418 OFFCURVE",
"1142 459 OFFCURVE",
"1165 502 CURVE SMOOTH",
"1184 537 OFFCURVE",
"1160 566 OFFCURVE",
"1103 532 CURVE SMOOTH",
"1059 506 OFFCURVE",
"1008 439 OFFCURVE",
"940 434 CURVE SMOOTH",
"865 428 OFFCURVE",
"827 486 OFFCURVE",
"777 507 CURVE SMOOTH",
"677 549 OFFCURVE",
"508 443 OFFCURVE",
"555 351 CURVE SMOOTH",
"584 294 OFFCURVE",
"656 381 OFFCURVE",
"735 390 CURVE SMOOTH",
"779 395 OFFCURVE",
"790 311 OFFCURVE",
"730 280 CURVE SMOOTH",
"678 254 OFFCURVE",
"594 260 OFFCURVE",
"545 230 CURVE SMOOTH",
"505 205 OFFCURVE",
"519 125 OFFCURVE",
"553 114 CURVE SMOOTH",
"587 103 OFFCURVE",
"610 114 OFFCURVE",
"629 95 CURVE SMOOTH",
"647 77 OFFCURVE",
"662 33 OFFCURVE",
"703 36 CURVE SMOOTH",
"777 41 OFFCURVE",
"751 166 OFFCURVE",
"810 193 CURVE SMOOTH",
"874 222 OFFCURVE",
"922 143 OFFCURVE",
"858 52 CURVE SMOOTH",
"812 -13 OFFCURVE",
"743 -48 OFFCURVE",
"692 -50 CURVE SMOOTH",
"645 -52 OFFCURVE",
"636 -35 OFFCURVE",
"615 -28 CURVE SMOOTH",
"587 -19 OFFCURVE",
"553 -26 OFFCURVE",
"524 -5 CURVE SMOOTH",
"496 15 OFFCURVE",
"500 73 OFFCURVE",
"454 73 CURVE",
"399 71 OFFCURVE",
"362 -27 OFFCURVE",
"304 -37 CURVE SMOOTH",
"244 -47 OFFCURVE",
"214 -20 OFFCURVE",
"179 -8 CURVE SMOOTH",
"135 6 OFFCURVE",
"68 -1 OFFCURVE",
"41 59 CURVE SMOOTH"
);
}
);
width = 1650;
}
);
rightKerningGroup = U;
},
{
color = 3;
glyphname = R_Y;
lastChange = "2024-08-21 13:07:34 +0000";
layers = (
{
background = {
paths = (
{
closed = 1;
nodes = (
"711 613 OFFCURVE",
"736 663 OFFCURVE",
"778 670 CURVE SMOOTH",
"822 677 OFFCURVE",
"850 630 OFFCURVE",
"832 588 CURVE SMOOTH",
"813 544 OFFCURVE",
"758 519 OFFCURVE",
"751 476 CURVE SMOOTH",
"745 441 OFFCURVE",
"765 417 OFFCURVE",
"764 380 CURVE SMOOTH",
"763 341 OFFCURVE",
"724 320 OFFCURVE",
"724 278 CURVE SMOOTH",
"724 222 OFFCURVE",
"827 189 OFFCURVE",
"871 252 CURVE SMOOTH",
"900 294 OFFCURVE",
"884 333 OFFCURVE",
"903 369 CURVE SMOOTH",
"920 401 OFFCURVE",
"940 409 OFFCURVE",
"955 446 CURVE SMOOTH",
"970 483 OFFCURVE",
"941 566 OFFCURVE",
"1003 625 CURVE SMOOTH",
"1067 685 OFFCURVE",
"1145 636 OFFCURVE",
"1107 569 CURVE SMOOTH",
"1083 527 OFFCURVE",
"1045 526 OFFCURVE",
"1034 475 CURVE SMOOTH",
"1025 434 OFFCURVE",
"1045 402 OFFCURVE",
"1028 357 CURVE SMOOTH",
"1012 314 OFFCURVE",
"960 286 OFFCURVE",
"946 228 CURVE SMOOTH",
"936 187 OFFCURVE",
"968 150 OFFCURVE",
"951 107 CURVE SMOOTH",
"928 49 OFFCURVE",
"892 49 OFFCURVE",
"866 11 CURVE SMOOTH",
"835 -34 OFFCURVE",
"846 -84 OFFCURVE",
"799 -121 CURVE SMOOTH",
"756 -155 OFFCURVE",
"716 -137 OFFCURVE",
"651 -155 CURVE SMOOTH",
"565 -179 OFFCURVE",
"481 -133 OFFCURVE",
"475 -49 CURVE SMOOTH",
"469 30 OFFCURVE",
"514 89 OFFCURVE",
"584 89 CURVE SMOOTH",
"628 89 OFFCURVE",
"656 72 OFFCURVE",
"656 36 CURVE SMOOTH",
"656 -14 OFFCURVE",
"567 -4 OFFCURVE",
"575 -60 CURVE SMOOTH",
"581 -101 OFFCURVE",
"667 -107 OFFCURVE",
"703 -73 CURVE SMOOTH",
"742 -37 OFFCURVE",
"733 -13 OFFCURVE",
"760 16 CURVE SMOOTH",
"786 43 OFFCURVE",
"823 51 OFFCURVE",
"847 80 CURVE SMOOTH",
"871 110 OFFCURVE",
"865 151 OFFCURVE",
"825 148 CURVE SMOOTH",
"799 146 OFFCURVE",
"785 117 OFFCURVE",
"748 117 CURVE SMOOTH",
"703 117 OFFCURVE",
"697 161 OFFCURVE",
"679 179 CURVE SMOOTH",
"661 197 OFFCURVE",
"629 204 OFFCURVE",
"624 244 CURVE SMOOTH",
"618 292 OFFCURVE",
"656 301 OFFCURVE",
"660 341 CURVE SMOOTH",
"664 383 OFFCURVE",
"646 392 OFFCURVE",
"650 422 CURVE SMOOTH",
"653 447 OFFCURVE",
"680 464 OFFCURVE",
"692 489 CURVE SMOOTH",
"706 517 OFFCURVE",
"681 533 OFFCURVE",
"656 519 CURVE SMOOTH",
"619 498 OFFCURVE",
"599 459 OFFCURVE",
"565 457 CURVE SMOOTH",
"512 454 OFFCURVE",
"506 537 OFFCURVE",
"566 566 CURVE SMOOTH",
"604 584 OFFCURVE",
"640 583 OFFCURVE",
"678 599 CURVE SMOOTH"
);
}
);
};
layerId = "A0EF8C6F-60C0-4D2A-A4F7-7A1091FA18C1";
paths = (
{
closed = 1;
nodes = (
"257 412 OFFCURVE",
"271 394 OFFCURVE",
"293 414 CURVE SMOOTH",
"302 423 OFFCURVE",
"321 435 OFFCURVE",
"338 434 CURVE SMOOTH",
"357 432 OFFCURVE",
"378 418 OFFCURVE",
"398 425 CURVE SMOOTH",
"415 431 OFFCURVE",
"419 467 OFFCURVE",
"407 482 CURVE SMOOTH",
"399 492 OFFCURVE",
"384 488 OFFCURVE",
"376 498 CURVE SMOOTH",
"369 509 OFFCURVE",
"377 531 OFFCURVE",
"359 539 CURVE SMOOTH",
"342 546 OFFCURVE",
"320 539 OFFCURVE",
"313 525 CURVE SMOOTH",
"305 510 OFFCURVE",
"311 488 OFFCURVE",
"305 472 CURVE SMOOTH",
"299 457 OFFCURVE",
"289 444 OFFCURVE",
"279 435 CURVE SMOOTH"
);
},
{
closed = 1;
nodes = (
"734 534 OFFCURVE",
"716 547 OFFCURVE",
"695 533 CURVE SMOOTH",
"666 513 OFFCURVE",
"647 478 OFFCURVE",
"618 476 CURVE SMOOTH",
"565 472 OFFCURVE",
"554 548 OFFCURVE",
"608 577 CURVE SMOOTH",
"640 594 OFFCURVE",
"682 589 OFFCURVE",
"714 606 CURVE SMOOTH",
"744 622 OFFCURVE",
"767 662 OFFCURVE",
"804 662 CURVE SMOOTH",
"839 662 OFFCURVE",
"867 632 OFFCURVE",
"854 587 CURVE SMOOTH",
"841 543 OFFCURVE",
"782 518 OFFCURVE",
"775 475 CURVE SMOOTH",
"769 440 OFFCURVE",
"789 416 OFFCURVE",
"788 379 CURVE SMOOTH",
"787 340 OFFCURVE",
"748 319 OFFCURVE",
"748 277 CURVE SMOOTH",
"748 221 OFFCURVE",
"851 188 OFFCURVE",
"895 251 CURVE SMOOTH",
"924 293 OFFCURVE",
"908 332 OFFCURVE",
"927 368 CURVE SMOOTH",
"944 400 OFFCURVE",
"968 408 OFFCURVE",
"981 450 CURVE SMOOTH",
"995 496 OFFCURVE",
"976 575 OFFCURVE",
"1027 624 CURVE SMOOTH",
"1090 685 OFFCURVE",
"1169 635 OFFCURVE",
"1131 568 CURVE SMOOTH",
"1107 526 OFFCURVE",
"1069 525 OFFCURVE",
"1058 474 CURVE SMOOTH",
"1049 433 OFFCURVE",
"1069 401 OFFCURVE",
"1052 356 CURVE SMOOTH",
"1036 313 OFFCURVE",
"984 285 OFFCURVE",
"970 227 CURVE SMOOTH",
"960 186 OFFCURVE",
"990 146 OFFCURVE",
"976 99 CURVE SMOOTH",
"959 44 OFFCURVE",
"919 45 OFFCURVE",
"892 15 CURVE SMOOTH",
"861 -20 OFFCURVE",
"856 -126 OFFCURVE",
"805 -155 CURVE SMOOTH",
"756 -183 OFFCURVE",
"725 -133 OFFCURVE",
"674 -125 CURVE SMOOTH",
"620 -117 OFFCURVE",
"499 -156 OFFCURVE",
"452 -97 CURVE SMOOTH",
"409 -43 OFFCURVE",
"417 40 OFFCURVE",
"397 85 CURVE SMOOTH",
"374 136 OFFCURVE",
"324 187 OFFCURVE",
"311 224 CURVE SMOOTH",
"299 258 OFFCURVE",
"313 289 OFFCURVE",
"297 313 CURVE SMOOTH",
"277 344 OFFCURVE",
"234 309 OFFCURVE",
"220 267 CURVE SMOOTH",
"209 233 OFFCURVE",
"225 206 OFFCURVE",
"218 172 CURVE SMOOTH",
"212 143 OFFCURVE",
"168 132 OFFCURVE",
"179 102 CURVE SMOOTH",
"191 69 OFFCURVE",
"241 102 OFFCURVE",
"268 85 CURVE",
"299 67 OFFCURVE",
"301 6 OFFCURVE",
"246 -4 CURVE SMOOTH",
"218 -9 OFFCURVE",
"191 17 OFFCURVE",
"159 11 CURVE SMOOTH",
"132 6 OFFCURVE",
"119 -20 OFFCURVE",
"76 -24 CURVE SMOOTH",
"18 -29 OFFCURVE",
"0 47 OFFCURVE",
"42 65 CURVE SMOOTH",
"63 74 OFFCURVE",
"78 70 OFFCURVE",
"93 88 CURVE SMOOTH",
"119 121 OFFCURVE",
"90 170 OFFCURVE",
"104 209 CURVE",
"118 244 OFFCURVE",
"150 251 OFFCURVE",
"161 301 CURVE SMOOTH",
"172 352 OFFCURVE",
"156 396 OFFCURVE",
"170 431 CURVE SMOOTH",
"186 472 OFFCURVE",
"245 492 OFFCURVE",
"253 518 CURVE SMOOTH",
"260 542 OFFCURVE",
"250 561 OFFCURVE",
"231 558 CURVE SMOOTH",
"209 555 OFFCURVE",
"199 542 OFFCURVE",
"178 542 CURVE SMOOTH",
"135 542 OFFCURVE",
"121 628 OFFCURVE",
"189 640 CURVE SMOOTH",
"239 649 OFFCURVE",
"276 610 OFFCURVE",
"312 610 CURVE SMOOTH",
"344 610 OFFCURVE",
"383 627 OFFCURVE",
"415 627 CURVE SMOOTH",
"452 627 OFFCURVE",
"483 597 OFFCURVE",
"489 561 CURVE SMOOTH",
"494 527 OFFCURVE",
"468 511 OFFCURVE",
"473 482 CURVE SMOOTH",
"478 451 OFFCURVE",
"511 438 OFFCURVE",
"517 400 CURVE SMOOTH",
"522 363 OFFCURVE",
"498 334 OFFCURVE",
"462 334 CURVE SMOOTH",
"431 334 OFFCURVE",
"401 367 OFFCURVE",
"377 372 CURVE SMOOTH",
"355 377 OFFCURVE",
"338 362 OFFCURVE",
"347 336 CURVE SMOOTH",
"361 294 OFFCURVE",
"432 278 OFFCURVE",
"443 228 CURVE SMOOTH",
"452 187 OFFCURVE",
"436 156 OFFCURVE",
"437 125 CURVE SMOOTH",
"438 97 OFFCURVE",
"464 67 OFFCURVE",
"495 72 CURVE SMOOTH",
"527 77 OFFCURVE",
"555 112 OFFCURVE",
"586 120 CURVE SMOOTH",
"626 130 OFFCURVE",
"656 99 OFFCURVE",
"645 64 CURVE SMOOTH",
"632 21 OFFCURVE",
"524 24 OFFCURVE",
"529 -22 CURVE SMOOTH",
"533 -56 OFFCURVE",
"606 -43 OFFCURVE",
"636 -50 CURVE SMOOTH",
"673 -59 OFFCURVE",
"709 -94 OFFCURVE",
"737 -75 CURVE SMOOTH",
"769 -53 OFFCURVE",
"760 -17 OFFCURVE",
"784 15 CURVE SMOOTH",
"807 46 OFFCURVE",
"845 52 OFFCURVE",
"871 79 CURVE SMOOTH",
"899 109 OFFCURVE",
"885 150 OFFCURVE",
"849 147 CURVE SMOOTH",
"823 145 OFFCURVE",
"809 116 OFFCURVE",
"772 116 CURVE SMOOTH",
"727 116 OFFCURVE",
"721 160 OFFCURVE",
"703 178 CURVE SMOOTH",
"685 196 OFFCURVE",
"653 203 OFFCURVE",
"648 243 CURVE SMOOTH",
"642 291 OFFCURVE",
"680 300 OFFCURVE",
"684 340 CURVE SMOOTH",
"688 382 OFFCURVE",
"676 401 OFFCURVE",
"683 431 CURVE SMOOTH",
"689 458 OFFCURVE",
"716 476 OFFCURVE",
"727 511 CURVE SMOOTH"
);
}
);
width = 1126;
}
);
leftKerningGroup = R;
leftMetricsKey = R;
rightKerningGroup = Y;
rightMetricsKey = Y;
},
{
color = 7;
glyphname = S_L_E;
lastChange = "2024-09-03 17:03:16 +0000";
layers = (
{
layerId = "A0EF8C6F-60C0-4D2A-A4F7-7A1091FA18C1";
paths = (
{
closed = 1;
nodes = (
"914 -227 OFFCURVE",
"915 -189 OFFCURVE",
"935 -171 CURVE SMOOTH",
"955 -153 OFFCURVE",
"975 -144 OFFCURVE",
"983 -118 CURVE SMOOTH",
"994 -84 OFFCURVE",
"961 -49 OFFCURVE",
"926 -57 CURVE SMOOTH",
"882 -67 OFFCURVE",
"875 -112 OFFCURVE",
"847 -136 CURVE SMOOTH",
"823 -156 OFFCURVE",
"789 -151 OFFCURVE",
"776 -129 CURVE SMOOTH",
"766 -112 OFFCURVE",
"768 -88 OFFCURVE",
"754 -71 CURVE SMOOTH",
"740 -54 OFFCURVE",
"720 -62 OFFCURVE",
"704 -43 CURVE SMOOTH",
"672 -5 OFFCURVE",
"704 31 OFFCURVE",
"745 27 CURVE SMOOTH",
"789 23 OFFCURVE",
"795 -24 OFFCURVE",
"823 -39 CURVE SMOOTH",
"879 -69 OFFCURVE",
"928 -4 OFFCURVE",
"891 41 CURVE SMOOTH",
"873 63 OFFCURVE",
"848 53 OFFCURVE",
"832 65 CURVE SMOOTH",
"808 83 OFFCURVE",
"830 125 OFFCURVE",
"873 123 CURVE SMOOTH",
"923 121 OFFCURVE",
"942 68 OFFCURVE",
"984 64 CURVE SMOOTH",
"1019 61 OFFCURVE",
"1051 82 OFFCURVE",
"1047 117 CURVE SMOOTH",
"1044 141 OFFCURVE",
"1011 153 OFFCURVE",
"999 169 CURVE SMOOTH",
"984 188 OFFCURVE",
"988 215 OFFCURVE",
"957 221 CURVE SMOOTH",
"915 229 OFFCURVE",
"883 182 OFFCURVE",
"851 176 CURVE SMOOTH",
"826 171 OFFCURVE",
"814 195 OFFCURVE",
"824 212 CURVE SMOOTH",
"835 231 OFFCURVE",
"871 245 OFFCURVE",
"878 266 CURVE SMOOTH",
"888 297 OFFCURVE",
"857 320 OFFCURVE",
"821 313 CURVE SMOOTH",
"777 304 OFFCURVE",
"744 259 OFFCURVE",
"742 220 CURVE SMOOTH",
"740 180 OFFCURVE",
"773 124 OFFCURVE",
"745 112 CURVE SMOOTH",
"714 99 OFFCURVE",
"695 131 OFFCURVE",
"657 114 CURVE SMOOTH",
"611 93 OFFCURVE",
"639 8 OFFCURVE",
"604 -7 CURVE SMOOTH",
"574 -20 OFFCURVE",
"552 8 OFFCURVE",
"512 1 CURVE SMOOTH",
"471 -6 OFFCURVE",
"445 -63 OFFCURVE",
"413 -38 CURVE SMOOTH",
"383 -15 OFFCURVE",
"424 22 OFFCURVE",
"425 65 CURVE SMOOTH",
"426 103 OFFCURVE",
"401 111 OFFCURVE",
"409 139 CURVE SMOOTH",
"418 168 OFFCURVE",
"462 190 OFFCURVE",
"478 237 CURVE SMOOTH",
"490 272 OFFCURVE",
"476 312 OFFCURVE",
"476 351 CURVE SMOOTH",
"476 382 OFFCURVE",
"494 398 OFFCURVE",
"519 398 CURVE SMOOTH",
"545 398 OFFCURVE",
"561 380 OFFCURVE",
"587 380 CURVE SMOOTH",
"621 380 OFFCURVE",
"646 404 OFFCURVE",
"646 438 CURVE SMOOTH",
"646 468 OFFCURVE",
"626 488 OFFCURVE",
"598 488 CURVE SMOOTH",
"572 488 OFFCURVE",
"561 472 OFFCURVE",
"528 472 CURVE SMOOTH",
"492 472 OFFCURVE",
"481 499 OFFCURVE",
"445 505 CURVE SMOOTH",
"405 512 OFFCURVE",
"363 486 OFFCURVE",
"332 502 CURVE SMOOTH",
"303 517 OFFCURVE",
"316 553 OFFCURVE",
"298 577 CURVE SMOOTH",
"280 601 OFFCURVE",
"239 598 OFFCURVE",
"239 650 CURVE SMOOTH",
"239 691 OFFCURVE",
"296 728 OFFCURVE",
"344 706 CURVE SMOOTH",
"393 683 OFFCURVE",
"404 606 OFFCURVE",
"466 598 CURVE SMOOTH",
"522 591 OFFCURVE",
"542 657 OFFCURVE",
"517 688 CURVE SMOOTH",
"491 721 OFFCURVE",
"460 706 OFFCURVE",
"427 732 CURVE SMOOTH",
"398 755 OFFCURVE",
"394 814 OFFCURVE",
"338 814 CURVE SMOOTH",
"286 814 OFFCURVE",
"281 768 OFFCURVE",
"245 744 CURVE SMOOTH",
"212 720 OFFCURVE",
"147 732 OFFCURVE",
"134 664 CURVE SMOOTH",
"122 601 OFFCURVE",
"182 567 OFFCURVE",
"200 537 CURVE SMOOTH",
"218 508 OFFCURVE",
"208 474 OFFCURVE",
"234 447 CURVE SMOOTH",
"266 413 OFFCURVE",
"397 465 OFFCURVE",
"397 381 CURVE SMOOTH",
"397 348 OFFCURVE",
"374 336 OFFCURVE",
"374 315 CURVE SMOOTH",
"374 289 OFFCURVE",
"388 279 OFFCURVE",
"388 255 CURVE SMOOTH",
"388 229 OFFCURVE",
"368 217 OFFCURVE",
"346 217 CURVE SMOOTH",
"304 217 OFFCURVE",
"292 255 OFFCURVE",
"254 266 CURVE SMOOTH",
"229 273 OFFCURVE",
"202 265 OFFCURVE",
"181 265 CURVE SMOOTH",
"150 265 OFFCURVE",
"140 283 OFFCURVE",
"140 305 CURVE SMOOTH",
"140 337 OFFCURVE",
"172 339 OFFCURVE",
"172 385 CURVE SMOOTH",
"172 438 OFFCURVE",
"113 453 OFFCURVE",
"85 425 CURVE SMOOTH",
"55 395 OFFCURVE",
"69 358 OFFCURVE",
"63 324 CURVE SMOOTH",
"56 287 OFFCURVE",
"18 246 OFFCURVE",
"41 213 CURVE SMOOTH",
"70 171 OFFCURVE",
"120 205 OFFCURVE",
"165 190 CURVE SMOOTH",
"208 176 OFFCURVE",
"219 146 OFFCURVE",
"252 140 CURVE SMOOTH",
"281 135 OFFCURVE",
"300 167 OFFCURVE",
"322 167 CURVE SMOOTH",
"336 167 OFFCURVE",
"343 157 OFFCURVE",
"343 145 CURVE SMOOTH",
"343 123 OFFCURVE",
"317 100 OFFCURVE",
"317 73 CURVE SMOOTH",
"317 31 OFFCURVE",
"344 -3 OFFCURVE",
"322 -27 CURVE SMOOTH",
"297 -54 OFFCURVE",
"248 -12 OFFCURVE",
"214 -10 CURVE SMOOTH",
"183 -8 OFFCURVE",
"149 -34 OFFCURVE",
"152 -66 CURVE SMOOTH",
"157 -126 OFFCURVE",
"224 -105 OFFCURVE",
"245 -113 CURVE SMOOTH",
"263 -120 OFFCURVE",
"279 -150 OFFCURVE",
"311 -150 CURVE SMOOTH",
"343 -150 OFFCURVE",
"356 -121 OFFCURVE",
"390 -114 CURVE SMOOTH",
"422 -108 OFFCURVE",
"458 -131 OFFCURVE",
"501 -125 CURVE SMOOTH",
"549 -118 OFFCURVE",
"596 -76 OFFCURVE",
"641 -103 CURVE SMOOTH",
"691 -133 OFFCURVE",
"695 -210 OFFCURVE",
"723 -222 CURVE SMOOTH",
"751 -234 OFFCURVE",
"763 -212 OFFCURVE",
"798 -212 CURVE SMOOTH",
"829 -212 OFFCURVE",
"844 -243 OFFCURVE",
"879 -235 CURVE SMOOTH"
);
}
);
width = 1077;
}
);
leftMetricsKey = S;
rightKerningGroup = "E-bas";
},
{
color = 7;
glyphname = U_X_L_E_S;
lastChange = "2024-09-03 17:05:30 +0000";
layers = (
{
anchors = (
{
name = bottom;
position = "{1633, 251}";
},
{
name = top;
position = "{1633, 806}";
}
);
components = (
{
name = L_E;
transform = "{1, 0, 0, 1, 428, -100}";
}
);
layerId = "A0EF8C6F-60C0-4D2A-A4F7-7A1091FA18C1";
paths = (
{
closed = 1;
nodes = (
"209 108 OFFCURVE",
"219 127 OFFCURVE",
"255 139 CURVE SMOOTH",
"279 147 OFFCURVE",
"315 140 OFFCURVE",
"327 170 CURVE SMOOTH",
"339 196 OFFCURVE",
"322 216 OFFCURVE",
"322 247 CURVE SMOOTH",
"322 280 OFFCURVE",
"343 303 OFFCURVE",
"358 298 CURVE SMOOTH",
"378 292 OFFCURVE",
"361 258 OFFCURVE",
"369 243 CURVE SMOOTH",
"378 226 OFFCURVE",
"404 248 OFFCURVE",
"412 234 CURVE SMOOTH",
"419 222 OFFCURVE",
"409 213 OFFCURVE",
"409 198 CURVE SMOOTH",
"409 188 OFFCURVE",
"413 166 OFFCURVE",
"443 166 CURVE SMOOTH",
"492 166 OFFCURVE",
"536 221 OFFCURVE",
"536 275 CURVE SMOOTH",
"536 360 OFFCURVE",
"402 266 OFFCURVE",
"402 352 CURVE SMOOTH",
"402 398 OFFCURVE",
"464 428 OFFCURVE",
"487 477 CURVE SMOOTH",
"513 533 OFFCURVE",
"501 559 OFFCURVE",
"521 601 CURVE SMOOTH",
"537 635 OFFCURVE",
"574 649 OFFCURVE",
"574 696 CURVE SMOOTH",
"574 757 OFFCURVE",
"501 758 OFFCURVE",
"476 712 CURVE SMOOTH",
"456 675 OFFCURVE",
"467 631 OFFCURVE",
"451 603 CURVE SMOOTH",
"435 575 OFFCURVE",
"406 553 OFFCURVE",
"382 511 CURVE SMOOTH",
"354 460 OFFCURVE",
"358 406 OFFCURVE",
"337 365 CURVE SMOOTH",
"323 336 OFFCURVE",
"286 337 OFFCURVE",
"266 312 CURVE SMOOTH",
"248 288 OFFCURVE",
"263 249 OFFCURVE",
"231 223 CURVE SMOOTH",
"182 183 OFFCURVE",
"126 236 OFFCURVE",
"151 281 CURVE SMOOTH",
"163 304 OFFCURVE",
"220 351 OFFCURVE",
"225 382 CURVE SMOOTH",
"230 406 OFFCURVE",
"215 420 OFFCURVE",
"218 450 CURVE SMOOTH",
"225 499 OFFCURVE",
"354 562 OFFCURVE",
"354 626 CURVE SMOOTH",
"354 654 OFFCURVE",
"346 667 OFFCURVE",
"346 685 CURVE SMOOTH",
"346 704 OFFCURVE",
"356 711 OFFCURVE",
"356 735 CURVE SMOOTH",
"356 758 OFFCURVE",
"336 777 OFFCURVE",
"313 777 CURVE SMOOTH",
"272 777 OFFCURVE",
"244 724 OFFCURVE",
"218 710 CURVE SMOOTH",
"191 695 OFFCURVE",
"138 687 OFFCURVE",
"93 667 CURVE SMOOTH",
"62 654 OFFCURVE",
"35 622 OFFCURVE",
"35 594 CURVE SMOOTH",
"35 568 OFFCURVE",
"46 544 OFFCURVE",
"77 544 CURVE SMOOTH",
"128 544 OFFCURVE",
"153 607 OFFCURVE",
"208 639 CURVE SMOOTH",
"243 659 OFFCURVE",
"267 624 OFFCURVE",
"250 593 CURVE SMOOTH",
"230 555 OFFCURVE",
"145 519 OFFCURVE",
"134 461 CURVE SMOOTH",
"128 427 OFFCURVE",
"140 374 OFFCURVE",
"115 333 CURVE SMOOTH",
"91 295 OFFCURVE",
"39 262 OFFCURVE",
"52 214 CURVE SMOOTH",
"62 173 OFFCURVE",
"101 180 OFFCURVE",
"120 163 CURVE SMOOTH",
"136 148 OFFCURVE",
"141 117 OFFCURVE",
"174 112 CURVE SMOOTH"
);
},
{
closed = 1;
nodes = (
"1586 -194 OFFCURVE",
"1605 -175 OFFCURVE",
"1639 -164 CURVE SMOOTH",
"1669 -153 OFFCURVE",
"1696 -165 OFFCURVE",
"1718 -139 CURVE SMOOTH",
"1744 -108 OFFCURVE",
"1722 -62 OFFCURVE",
"1724 -35 CURVE SMOOTH",
"1726 -7 OFFCURVE",
"1756 -5 OFFCURVE",
"1767 42 CURVE SMOOTH",
"1775 77 OFFCURVE",
"1756 112 OFFCURVE",
"1726 128 CURVE SMOOTH",
"1685 149 OFFCURVE",
"1654 120 OFFCURVE",
"1618 156 CURVE SMOOTH",
"1597 176 OFFCURVE",
"1610 200 OFFCURVE",
"1594 221 CURVE SMOOTH",
"1578 243 OFFCURVE",
"1545 236 OFFCURVE",
"1545 278 CURVE SMOOTH",
"1545 314 OFFCURVE",
"1572 337 OFFCURVE",
"1605 337 CURVE SMOOTH",
"1663 337 OFFCURVE",
"1683 236 OFFCURVE",
"1768 236 CURVE SMOOTH",
"1839 236 OFFCURVE",
"1882 284 OFFCURVE",
"1882 374 CURVE SMOOTH",
"1882 417 OFFCURVE",
"1860 458 OFFCURVE",
"1819 458 CURVE SMOOTH",
"1794 458 OFFCURVE",
"1772 440 OFFCURVE",
"1772 415 CURVE SMOOTH",
"1772 391 OFFCURVE",
"1807 385 OFFCURVE",
"1807 356 CURVE SMOOTH",
"1807 342 OFFCURVE",
"1795 330 OFFCURVE",
"1773 330 CURVE SMOOTH",
"1695 330 OFFCURVE",
"1639 402 OFFCURVE",
"1639 454 CURVE SMOOTH",
"1639 500 OFFCURVE",
"1705 497 OFFCURVE",
"1714 529 CURVE SMOOTH",
"1722 561 OFFCURVE",
"1702 576 OFFCURVE",
"1709 609 CURVE SMOOTH",
"1724 682 OFFCURVE",
"1837 727 OFFCURVE",
"1850 641 CURVE SMOOTH",
"1856 604 OFFCURVE",
"1807 558 OFFCURVE",
"1835 527 CURVE SMOOTH",
"1873 485 OFFCURVE",
"1939 542 OFFCURVE",
"1933 618 CURVE SMOOTH",
"1931 648 OFFCURVE",
"1912 667 OFFCURVE",
"1907 693 CURVE SMOOTH",
"1900 725 OFFCURVE",
"1912 754 OFFCURVE",
"1885 767 CURVE SMOOTH",
"1861 779 OFFCURVE",
"1845 757 OFFCURVE",
"1818 757 CURVE SMOOTH",
"1791 757 OFFCURVE",
"1789 776 OFFCURVE",
"1760 768 CURVE SMOOTH",
"1726 759 OFFCURVE",
"1722 727 OFFCURVE",
"1707 705 CURVE SMOOTH",
"1690 680 OFFCURVE",
"1667 680 OFFCURVE",
"1656 708 CURVE SMOOTH",
"1647 730 OFFCURVE",
"1661 788 OFFCURVE",
"1629 796 CURVE SMOOTH",
"1596 806 OFFCURVE",
"1584 775 OFFCURVE",
"1559 776 CURVE SMOOTH",
"1533 778 OFFCURVE",
"1515 801 OFFCURVE",
"1482 800 CURVE SMOOTH",
"1434 800 OFFCURVE",
"1387 742 OFFCURVE",
"1387 680 CURVE SMOOTH",
"1387 619 OFFCURVE",
"1423 556 OFFCURVE",
"1467 576 CURVE SMOOTH",
"1509 594 OFFCURVE",
"1473 654 OFFCURVE",
"1481 693 CURVE SMOOTH",
"1492 741 OFFCURVE",
"1569 743 OFFCURVE",
"1583 712 CURVE SMOOTH",
"1593 688 OFFCURVE",
"1584 666 OFFCURVE",
"1596 642 CURVE SMOOTH",
"1608 619 OFFCURVE",
"1628 623 OFFCURVE",
"1628 586 CURVE SMOOTH",
"1628 546 OFFCURVE",
"1572 551 OFFCURVE",
"1558 511 CURVE SMOOTH",
"1545 473 OFFCURVE",
"1578 455 OFFCURVE",
"1578 419 CURVE SMOOTH",
"1578 388 OFFCURVE",
"1529 382 OFFCURVE",
"1504 362 CURVE SMOOTH",
"1478 342 OFFCURVE",
"1473 301 OFFCURVE",
"1432 301 CURVE SMOOTH",
"1409 301 OFFCURVE",
"1394 316 OFFCURVE",
"1394 338 CURVE SMOOTH",
"1394 369 OFFCURVE",
"1427 386 OFFCURVE",
"1427 412 CURVE SMOOTH",
"1427 432 OFFCURVE",
"1413 447 OFFCURVE",
"1393 447 CURVE SMOOTH",
"1335 447 OFFCURVE",
"1308 374 OFFCURVE",
"1308 332 CURVE SMOOTH",
"1308 276 OFFCURVE",
"1329 233 OFFCURVE",
"1369 233 CURVE SMOOTH",
"1402 233 OFFCURVE",
"1417 251 OFFCURVE",
"1454 251 CURVE SMOOTH",
"1519 251 OFFCURVE",
"1490 169 OFFCURVE",
"1523 128 CURVE SMOOTH",
"1559 83 OFFCURVE",
"1619 107 OFFCURVE",
"1653 56 CURVE SMOOTH",
"1681 16 OFFCURVE",
"1655 -6 OFFCURVE",
"1653 -27 CURVE SMOOTH",
"1651 -46 OFFCURVE",
"1666 -57 OFFCURVE",
"1663 -76 CURVE SMOOTH",
"1659 -95 OFFCURVE",
"1631 -101 OFFCURVE",
"1606 -96 CURVE SMOOTH",
"1588 -91 OFFCURVE",
"1575 -66 OFFCURVE",
"1554 -61 CURVE SMOOTH",
"1514 -50 OFFCURVE",
"1471 -81 OFFCURVE",
"1455 -40 CURVE SMOOTH",
"1440 0 OFFCURVE",
"1492 7 OFFCURVE",
"1490 55 CURVE SMOOTH",
"1488 98 OFFCURVE",
"1443 114 OFFCURVE",
"1412 85 CURVE SMOOTH",
"1381 56 OFFCURVE",
"1389 21 OFFCURVE",
"1381 -9 CURVE SMOOTH",
"1372 -42 OFFCURVE",
"1334 -79 OFFCURVE",
"1355 -108 CURVE SMOOTH",
"1381 -146 OFFCURVE",
"1431 -119 OFFCURVE",
"1471 -133 CURVE SMOOTH",
"1507 -144 OFFCURVE",
"1513 -177 OFFCURVE",
"1550 -185 CURVE SMOOTH"
);
}
);
width = 1953;
}
);
leftMetricsKey = U;
},
{
color = 3;
glyphname = U_n;
lastChange = "2024-08-21 13:07:34 +0000";
layers = (
{
layerId = "A0EF8C6F-60C0-4D2A-A4F7-7A1091FA18C1";
paths = (
{
closed = 1;
nodes = (
"35 471 OFFCURVE",
"63 522 OFFCURVE",
"114 544 CURVE SMOOTH",
"165 566 OFFCURVE",
"224 575 OFFCURVE",
"255 592 CURVE SMOOTH",
"284 608 OFFCURVE",
"312 674 OFFCURVE",
"359 676 CURVE SMOOTH",
"385 677 OFFCURVE",
"405 658 OFFCURVE",
"406 632 CURVE SMOOTH",
"407 605 OFFCURVE",
"395 597 OFFCURVE",
"396 576 CURVE SMOOTH",
"397 555 OFFCURVE",
"410 540 OFFCURVE",
"407 509 CURVE SMOOTH",
"400 437 OFFCURVE",
"260 366 OFFCURVE",
"253 310 CURVE SMOOTH",
"249 276 OFFCURVE",
"265 261 OFFCURVE",
"260 234 CURVE SMOOTH",
"254 199 OFFCURVE",
"190 146 OFFCURVE",
"176 120 CURVE SMOOTH",
"148 69 OFFCURVE",
"211 9 OFFCURVE",
"266 54 CURVE SMOOTH",
"302 83 OFFCURVE",
"285 128 OFFCURVE",
"306 155 CURVE SMOOTH",
"328 183 OFFCURVE",
"370 182 OFFCURVE",
"386 214 CURVE SMOOTH",
"410 261 OFFCURVE",
"405 322 OFFCURVE",
"437 379 CURVE SMOOTH",
"464 427 OFFCURVE",
"496 451 OFFCURVE",
"514 483 CURVE SMOOTH",
"532 515 OFFCURVE",
"520 564 OFFCURVE",
"539 599 CURVE SMOOTH",
"567 650 OFFCURVE",
"655 657 OFFCURVE",
"652 588 CURVE SMOOTH",
"650 535 OFFCURVE",
"616 519 OFFCURVE",
"598 481 CURVE SMOOTH",
"575 433 OFFCURVE",
"585 404 OFFCURVE",
"555 341 CURVE SMOOTH",
"529 285 OFFCURVE",
"463 238 OFFCURVE",
"459 194 CURVE SMOOTH",
"455 150 OFFCURVE",
"505 123 OFFCURVE",
"550 144 CURVE SMOOTH",
"603 169 OFFCURVE",
"628 266 OFFCURVE",
"672 310 CURVE SMOOTH",
"713 351 OFFCURVE",
"769 366 OFFCURVE",
"800 393 CURVE SMOOTH",
"822 412 OFFCURVE",
"833 463 OFFCURVE",
"856 486 CURVE SMOOTH",
"885 515 OFFCURVE",
"922 503 OFFCURVE",
"925 476 CURVE SMOOTH",
"928 447 OFFCURVE",
"900 426 OFFCURVE",
"919 415 CURVE SMOOTH",
"943 401 OFFCURVE",
"973 496 OFFCURVE",
"1025 496 CURVE SMOOTH",
"1059 496 OFFCURVE",
"1064 465 OFFCURVE",
"1088 447 CURVE SMOOTH",
"1108 432 OFFCURVE",
"1135 444 OFFCURVE",
"1154 424 CURVE SMOOTH",
"1198 378 OFFCURVE",
"1095 302 OFFCURVE",
"1095 259 CURVE SMOOTH",
"1095 232 OFFCURVE",
"1105 217 OFFCURVE",
"1106 194 CURVE SMOOTH",
"1107 171 OFFCURVE",
"1097 153 OFFCURVE",
"1105 138 CURVE SMOOTH",
"1114 121 OFFCURVE",
"1155 131 OFFCURVE",
"1157 90 CURVE SMOOTH",
"1160 41 OFFCURVE",
"1091 47 OFFCURVE",
"1059 37 CURVE SMOOTH",
"1019 25 OFFCURVE",
"1009 -2 OFFCURVE",
"971 -2 CURVE SMOOTH",
"936 -2 OFFCURVE",
"928 44 OFFCURVE",
"959 75 CURVE SMOOTH",
"996 113 OFFCURVE",
"1020 103 OFFCURVE",
"1027 143 CURVE SMOOTH",
"1034 183 OFFCURVE",
"1014 218 OFFCURVE",
"1016 254 CURVE SMOOTH",
"1018 290 OFFCURVE",
"1055 326 OFFCURVE",
"1045 365 CURVE SMOOTH",
"1035 404 OFFCURVE",
"983 404 OFFCURVE",
"947 352 CURVE SMOOTH",
"922 316 OFFCURVE",
"930 286 OFFCURVE",
"915 251 CURVE SMOOTH",
"893 201 OFFCURVE",
"869 175 OFFCURVE",
"872 139 CURVE SMOOTH",
"875 105 OFFCURVE",
"897 99 OFFCURVE",
"911 83 CURVE SMOOTH",
"928 64 OFFCURVE",
"926 38 OFFCURVE",
"907 25 CURVE SMOOTH",
"885 10 OFFCURVE",
"860 14 OFFCURVE",
"835 1 CURVE SMOOTH",
"809 -12 OFFCURVE",
"789 -41 OFFCURVE",
"757 -41 CURVE SMOOTH",
"707 -41 OFFCURVE",
"723 19 OFFCURVE",
"757 41 CURVE SMOOTH",
"780 56 OFFCURVE",
"801 75 OFFCURVE",
"803 102 CURVE SMOOTH",
"805 128 OFFCURVE",
"790 162 OFFCURVE",
"803 202 CURVE SMOOTH",
"810 223 OFFCURVE",
"841 269 OFFCURVE",
"851 301 CURVE SMOOTH",
"864 344 OFFCURVE",
"824 352 OFFCURVE",
"799 328 CURVE SMOOTH",
"772 302 OFFCURVE",
"768 260 OFFCURVE",
"743 232 CURVE SMOOTH",
"716 201 OFFCURVE",
"656 167 OFFCURVE",
"625 122 CURVE SMOOTH",
"597 82 OFFCURVE",
"591 36 OFFCURVE",
"565 -1 CURVE SMOOTH",
"534 -45 OFFCURVE",
"482 -43 OFFCURVE",
"470 -2 CURVE SMOOTH",
"462 26 OFFCURVE",
"483 40 OFFCURVE",
"472 58 CURVE SMOOTH",
"461 77 OFFCURVE",
"432 58 OFFCURVE",
"422 77 CURVE SMOOTH",
"413 94 OFFCURVE",
"432 132 OFFCURVE",
"410 139 CURVE SMOOTH",
"393 144 OFFCURVE",
"369 118 OFFCURVE",
"369 81 CURVE SMOOTH",
"369 46 OFFCURVE",
"388 24 OFFCURVE",
"375 -6 CURVE SMOOTH",
"361 -39 OFFCURVE",
"320 -32 OFFCURVE",
"293 -41 CURVE SMOOTH",
"253 -54 OFFCURVE",
"241 -76 OFFCURVE",
"202 -71 CURVE SMOOTH",
"165 -66 OFFCURVE",
"159 -31 OFFCURVE",
"141 -14 CURVE SMOOTH",
"120 6 OFFCURVE",
"76 -2 OFFCURVE",
"64 44 CURVE SMOOTH",
"50 98 OFFCURVE",
"108 135 OFFCURVE",
"135 178 CURVE SMOOTH",
"164 224 OFFCURVE",
"150 284 OFFCURVE",
"157 323 CURVE SMOOTH",
"169 388 OFFCURVE",
"265 429 OFFCURVE",
"288 472 CURVE SMOOTH",
"307 507 OFFCURVE",
"283 535 OFFCURVE",
"244 512 CURVE SMOOTH",
"182 476 OFFCURVE",
"150 377 OFFCURVE",
"93 377 CURVE SMOOTH",
"45 377 OFFCURVE",
"35 414 OFFCURVE",
"35 444 CURVE SMOOTH"
);
}
);
width = 1199;
}
);
leftKerningGroup = U;
rightKerningGroup = n;
},
{
color = 3;
glyphname = U_p;
lastChange = "2024-08-21 13:07:34 +0000";
layers = (
{
layerId = "A0EF8C6F-60C0-4D2A-A4F7-7A1091FA18C1";
paths = (
{
closed = 1;
nodes = (
"35 471 OFFCURVE",
"63 522 OFFCURVE",
"114 544 CURVE SMOOTH",
"165 566 OFFCURVE",
"224 575 OFFCURVE",
"255 592 CURVE SMOOTH",
"284 608 OFFCURVE",
"312 674 OFFCURVE",
"359 676 CURVE SMOOTH",
"385 677 OFFCURVE",
"405 658 OFFCURVE",
"406 632 CURVE SMOOTH",
"407 605 OFFCURVE",
"395 597 OFFCURVE",
"396 576 CURVE SMOOTH",
"397 555 OFFCURVE",
"410 540 OFFCURVE",
"407 509 CURVE SMOOTH",
"400 437 OFFCURVE",
"260 366 OFFCURVE",
"253 310 CURVE SMOOTH",
"249 276 OFFCURVE",
"265 261 OFFCURVE",
"260 234 CURVE SMOOTH",
"254 199 OFFCURVE",
"190 146 OFFCURVE",
"176 120 CURVE SMOOTH",
"148 69 OFFCURVE",
"211 9 OFFCURVE",
"266 54 CURVE SMOOTH",
"302 83 OFFCURVE",
"285 128 OFFCURVE",
"306 155 CURVE SMOOTH",
"328 183 OFFCURVE",
"370 182 OFFCURVE",
"386 214 CURVE SMOOTH",
"410 261 OFFCURVE",
"405 322 OFFCURVE",
"437 379 CURVE SMOOTH",
"464 427 OFFCURVE",
"496 451 OFFCURVE",
"514 483 CURVE SMOOTH",
"532 515 OFFCURVE",
"520 564 OFFCURVE",
"539 599 CURVE SMOOTH",
"567 650 OFFCURVE",
"655 657 OFFCURVE",
"652 588 CURVE SMOOTH",
"650 535 OFFCURVE",
"616 519 OFFCURVE",
"598 481 CURVE SMOOTH",
"575 433 OFFCURVE",
"585 404 OFFCURVE",
"555 341 CURVE SMOOTH",
"529 285 OFFCURVE",
"463 238 OFFCURVE",
"459 194 CURVE SMOOTH",
"455 150 OFFCURVE",
"505 121 OFFCURVE",
"550 144 CURVE SMOOTH",
"595 166 OFFCURVE",
"593 251 OFFCURVE",
"620 283 CURVE SMOOTH",
"641 308 OFFCURVE",
"680 292 OFFCURVE",
"695 311 CURVE SMOOTH",
"713 333 OFFCURVE",
"713 363 OFFCURVE",
"733 384 CURVE SMOOTH",
"754 406 OFFCURVE",
"793 401 OFFCURVE",
"812 431 CURVE SMOOTH",
"829 457 OFFCURVE",
"825 492 OFFCURVE",
"839 526 CURVE SMOOTH",
"852 558 OFFCURVE",
"908 567 OFFCURVE",
"927 531 CURVE SMOOTH",
"939 508 OFFCURVE",
"930 487 OFFCURVE",
"935 464 CURVE SMOOTH",
"939 444 OFFCURVE",
"954 442 OFFCURVE",
"966 451 CURVE SMOOTH",
"983 464 OFFCURVE",
"992 495 OFFCURVE",
"1031 495 CURVE SMOOTH",
"1054 495 OFFCURVE",
"1071 479 OFFCURVE",
"1079 446 CURVE SMOOTH",
"1084 424 OFFCURVE",
"1077 409 OFFCURVE",
"1081 380 CURVE SMOOTH",
"1087 338 OFFCURVE",
"1124 308 OFFCURVE",
"1124 261 CURVE SMOOTH",
"1124 217 OFFCURVE",
"1104 217 OFFCURVE",
"1086 185 CURVE SMOOTH",
"1068 153 OFFCURVE",
"1060 94 OFFCURVE",
"1016 94 CURVE SMOOTH",
"972 94 OFFCURVE",
"963 154 OFFCURVE",
"937 159 CURVE SMOOTH",
"918 163 OFFCURVE",
"900 148 OFFCURVE",
"900 117 CURVE SMOOTH",
"900 76 OFFCURVE",
"917 52 OFFCURVE",
"913 17 CURVE SMOOTH",
"906 -43 OFFCURVE",
"841 -53 OFFCURVE",
"864 -92 CURVE SMOOTH",
"882 -123 OFFCURVE",
"910 -97 OFFCURVE",
"937 -98 CURVE SMOOTH",
"960 -99 OFFCURVE",
"975 -115 OFFCURVE",
"975 -142 CURVE SMOOTH",
"975 -166 OFFCURVE",
"941 -207 OFFCURVE",
"877 -197 CURVE SMOOTH",
"798 -185 OFFCURVE",
"785 -226 OFFCURVE",
"730 -232 CURVE SMOOTH",
"700 -235 OFFCURVE",
"674 -217 OFFCURVE",
"684 -185 CURVE SMOOTH",
"697 -143 OFFCURVE",
"751 -153 OFFCURVE",
"776 -108 CURVE SMOOTH",
"789 -84 OFFCURVE",
"785 -54 OFFCURVE",
"795 -20 CURVE SMOOTH",
"808 23 OFFCURVE",
"824 15 OFFCURVE",
"828 70 CURVE SMOOTH",
"831 111 OFFCURVE",
"811 136 OFFCURVE",
"811 177 CURVE SMOOTH",
"811 247 OFFCURVE",
"887 251 OFFCURVE",
"887 322 CURVE SMOOTH",
"887 358 OFFCURVE",
"872 367 OFFCURVE",
"852 364 CURVE SMOOTH",
"820 359 OFFCURVE",
"816 330 OFFCURVE",
"791 309 CURVE SMOOTH",
"774 295 OFFCURVE",
"754 306 OFFCURVE",
"734 283 CURVE SMOOTH",
"719 266 OFFCURVE",
"721 235 OFFCURVE",
"700 203 CURVE SMOOTH",
"679 170 OFFCURVE",
"645 160 OFFCURVE",
"622 131 CURVE SMOOTH",
"596 98 OFFCURVE",
"592 29 OFFCURVE",
"561 -6 CURVE SMOOTH",
"531 -40 OFFCURVE",
"478 -36 OFFCURVE",
"470 -2 CURVE SMOOTH",
"463 27 OFFCURVE",
"483 40 OFFCURVE",
"472 58 CURVE SMOOTH",
"461 77 OFFCURVE",
"432 58 OFFCURVE",
"422 77 CURVE SMOOTH",
"413 94 OFFCURVE",
"432 132 OFFCURVE",
"410 139 CURVE SMOOTH",
"393 144 OFFCURVE",
"369 118 OFFCURVE",
"369 81 CURVE SMOOTH",
"369 46 OFFCURVE",
"388 24 OFFCURVE",
"375 -6 CURVE SMOOTH",
"361 -39 OFFCURVE",
"323 -31 OFFCURVE",
"293 -41 CURVE SMOOTH",
"253 -54 OFFCURVE",
"241 -76 OFFCURVE",
"202 -71 CURVE SMOOTH",
"165 -66 OFFCURVE",
"159 -31 OFFCURVE",
"141 -14 CURVE SMOOTH",
"120 6 OFFCURVE",
"76 -2 OFFCURVE",
"64 44 CURVE SMOOTH",
"50 98 OFFCURVE",
"108 135 OFFCURVE",
"135 178 CURVE SMOOTH",
"164 224 OFFCURVE",
"150 284 OFFCURVE",
"157 323 CURVE SMOOTH",
"169 388 OFFCURVE",
"265 429 OFFCURVE",
"288 472 CURVE SMOOTH",
"307 507 OFFCURVE",
"283 535 OFFCURVE",
"244 512 CURVE SMOOTH",
"182 476 OFFCURVE",
"150 377 OFFCURVE",
"93 377 CURVE SMOOTH",
"45 377 OFFCURVE",
"35 414 OFFCURVE",
"35 444 CURVE SMOOTH"
);
},
{
closed = 1;
nodes = (
"945 334 OFFCURVE",
"961 297 OFFCURVE",
"961 257 CURVE SMOOTH",
"961 223 OFFCURVE",
"984 195 OFFCURVE",
"1002 195 CURVE SMOOTH",
"1027 195 OFFCURVE",
"1052 220 OFFCURVE",
"1050 254 CURVE SMOOTH",
"1048 295 OFFCURVE",
"1023 299 OFFCURVE",
"1012 324 CURVE SMOOTH",
"999 353 OFFCURVE",
"1002 395 OFFCURVE",
"961 402 CURVE SMOOTH",
"943 405 OFFCURVE",
"924 389 OFFCURVE",
"933 365 CURVE SMOOTH"
);
}
);
width = 1170;
}
);
leftKerningGroup = U;
rightKerningGroup = p;
},
{
color = 3;
glyphname = W_h;
lastChange = "2024-08-21 13:07:34 +0000";
layers = (
{
layerId = "A0EF8C6F-60C0-4D2A-A4F7-7A1091FA18C1";
paths = (
{
closed = 1;
nodes = (
"-21 575 OFFCURVE",
"-1 625 OFFCURVE",
"35 633 CURVE SMOOTH",
"78 642 OFFCURVE",
"105 628 OFFCURVE",
"146 635 CURVE SMOOTH",
"189 641 OFFCURVE",
"194 680 OFFCURVE",
"229 679 CURVE SMOOTH",
"266 678 OFFCURVE",
"263 648 OFFCURVE",
"272 632 CURVE SMOOTH",
"281 618 OFFCURVE",
"303 619 OFFCURVE",
"302 593 CURVE SMOOTH",
"301 575 OFFCURVE",
"283 560 OFFCURVE",
"252 560 CURVE SMOOTH",
"215 561 OFFCURVE",
"179 554 OFFCURVE",
"166 508 CURVE SMOOTH",
"150 453 OFFCURVE",
"189 416 OFFCURVE",
"185 365 CURVE SMOOTH",
"181 314 OFFCURVE",
"139 257 OFFCURVE",
"134 221 CURVE SMOOTH",
"126 169 OFFCURVE",
"189 153 OFFCURVE",
"217 189 CURVE SMOOTH",
"256 238 OFFCURVE",
"243 280 OFFCURVE",
"262 322 CURVE SMOOTH",
"278 360 OFFCURVE",
"317 379 OFFCURVE",
"334 409 CURVE SMOOTH",
"352 441 OFFCURVE",
"340 474 OFFCURVE",
"362 514 CURVE SMOOTH",
"382 549 OFFCURVE",
"442 547 OFFCURVE",
"450 506 CURVE SMOOTH",
"455 479 OFFCURVE",
"438 459 OFFCURVE",
"446 431 CURVE SMOOTH",
"454 400 OFFCURVE",
"478 402 OFFCURVE",
"488 354 CURVE SMOOTH",
"500 302 OFFCURVE",
"453 263 OFFCURVE",
"460 207 CURVE SMOOTH",
"464 171 OFFCURVE",
"500 153 OFFCURVE",
"525 188 CURVE SMOOTH",
"539 208 OFFCURVE",
"530 247 OFFCURVE",
"543 265 CURVE SMOOTH",
"557 285 OFFCURVE",
"591 290 OFFCURVE",
"600 318 CURVE SMOOTH",
"609 346 OFFCURVE",
"594 394 OFFCURVE",
"608 430 CURVE SMOOTH",
"626 481 OFFCURVE",
"684 489 OFFCURVE",
"685 524 CURVE SMOOTH",
"686 555 OFFCURVE",
"626 558 OFFCURVE",
"616 587 CURVE SMOOTH",
"605 622 OFFCURVE",
"636 648 OFFCURVE",
"677 647 CURVE SMOOTH",
"708 647 OFFCURVE",
"729 613 OFFCURVE",
"764 617 CURVE SMOOTH",
"798 621 OFFCURVE",
"799 665 OFFCURVE",
"828 678 CURVE SMOOTH",
"859 692 OFFCURVE",
"887 662 OFFCURVE",
"920 685 CURVE SMOOTH",
"952 707 OFFCURVE",
"959 753 OFFCURVE",
"997 752 CURVE SMOOTH",
"1027 751 OFFCURVE",
"1030 728 OFFCURVE",
"1041 711 CURVE SMOOTH",
"1051 696 OFFCURVE",
"1070 688 OFFCURVE",
"1068 661 CURVE SMOOTH",
"1066 629 OFFCURVE",
"1026 618 OFFCURVE",
"1009 582 CURVE SMOOTH",
"994 551 OFFCURVE",
"1014 510 OFFCURVE",
"997 478 CURVE SMOOTH",
"982 450 OFFCURVE",
"932 392 OFFCURVE",
"960 366 CURVE SMOOTH",
"990 338 OFFCURVE",
"1025 390 OFFCURVE",
"1063 414 CURVE SMOOTH",
"1102 438 OFFCURVE",
"1157 408 OFFCURVE",
"1140 354 CURVE SMOOTH",
"1123 300 OFFCURVE",
"1093 291 OFFCURVE",
"1090 253 CURVE SMOOTH",
"1088 229 OFFCURVE",
"1098 220 OFFCURVE",
"1097 200 CURVE SMOOTH",
"1096 179 OFFCURVE",
"1075 131 OFFCURVE",
"1095 127 CURVE SMOOTH",
"1119 122 OFFCURVE",
"1137 161 OFFCURVE",
"1168 164 CURVE SMOOTH",
"1203 167 OFFCURVE",
"1214 117 OFFCURVE",
"1195 91 CURVE SMOOTH",
"1182 73 OFFCURVE",
"1165 74 OFFCURVE",
"1151 64 CURVE SMOOTH",
"1137 54 OFFCURVE",
"1129 35 OFFCURVE",
"1112 30 CURVE SMOOTH",
"1093 24 OFFCURVE",
"1074 34 OFFCURVE",
"1052 32 CURVE SMOOTH",
"1033 30 OFFCURVE",
"1015 13 OFFCURVE",
"993 11 CURVE SMOOTH",
"963 8 OFFCURVE",
"936 49 OFFCURVE",
"971 79 CURVE SMOOTH",
"992 97 OFFCURVE",
"1013 96 OFFCURVE",
"1020 127 CURVE SMOOTH",
"1026 154 OFFCURVE",
"1012 194 OFFCURVE",
"1015 217 CURVE SMOOTH",
"1018 241 OFFCURVE",
"1063 290 OFFCURVE",
"1044 302 CURVE SMOOTH",
"1026 313 OFFCURVE",
"1009 264 OFFCURVE",
"980 263 CURVE SMOOTH",
"956 262 OFFCURVE",
"937 292 OFFCURVE",
"914 280 CURVE SMOOTH",
"877 261 OFFCURVE",
"913 221 OFFCURVE",
"900 188 CURVE SMOOTH",
"891 165 OFFCURVE",
"861 151 OFFCURVE",
"867 127 CURVE SMOOTH",
"874 100 OFFCURVE",
"933 122 OFFCURVE",
"928 69 CURVE SMOOTH",
"923 20 OFFCURVE",
"858 24 OFFCURVE",
"822 8 CURVE SMOOTH",
"787 -8 OFFCURVE",
"761 -48 OFFCURVE",
"713 -51 CURVE SMOOTH",
"658 -54 OFFCURVE",
"635 16 OFFCURVE",
"687 50 CURVE SMOOTH",
"719 71 OFFCURVE",
"749 59 OFFCURVE",
"774 76 CURVE SMOOTH",
"793 89 OFFCURVE",
"816 133 OFFCURVE",
"818 202 CURVE SMOOTH",
"819 233 OFFCURVE",
"799 271 OFFCURVE",
"822 314 CURVE SMOOTH",
"846 358 OFFCURVE",
"857 349 OFFCURVE",
"881 395 CURVE SMOOTH",
"900 431 OFFCURVE",
"885 465 OFFCURVE",
"895 498 CURVE SMOOTH",
"905 532 OFFCURVE",
"958 531 OFFCURVE",
"949 582 CURVE SMOOTH",
"938 646 OFFCURVE",
"778 534 OFFCURVE",
"739 477 CURVE SMOOTH",
"703 425 OFFCURVE",
"715 379 OFFCURVE",
"699 329 CURVE SMOOTH",
"678 262 OFFCURVE",
"625 240 OFFCURVE",
"606 194 CURVE SMOOTH",
"590 156 OFFCURVE",
"601 104 OFFCURVE",
"594 62 CURVE SMOOTH",
"586 18 OFFCURVE",
"547 -20 OFFCURVE",
"504 1 CURVE SMOOTH",
"478 14 OFFCURVE",
"485 52 OFFCURVE",
"468 75 CURVE SMOOTH",
"448 102 OFFCURVE",
"406 83 OFFCURVE",
"390 124 CURVE SMOOTH",
"372 172 OFFCURVE",
"409 250 OFFCURVE",
"406 302 CURVE SMOOTH",
"404 340 OFFCURVE",
"361 345 OFFCURVE",
"345 308 CURVE SMOOTH",
"326 263 OFFCURVE",
"321 184 OFFCURVE",
"281 138 CURVE SMOOTH",
"249 99 OFFCURVE",
"226 112 OFFCURVE",
"197 86 CURVE SMOOTH",
"163 56 OFFCURVE",
"179 6 OFFCURVE",
"143 -17 CURVE SMOOTH",
"93 -49 OFFCURVE",
"47 -22 OFFCURVE",
"51 38 CURVE SMOOTH",
"54 79 OFFCURVE",
"72 88 OFFCURVE",
"73 120 CURVE SMOOTH",
"74 156 OFFCURVE",
"35 168 OFFCURVE",
"42 208 CURVE SMOOTH",
"51 253 OFFCURVE",
"80 256 OFFCURVE",
"82 294 CURVE SMOOTH",
"85 330 OFFCURVE",
"58 352 OFFCURVE",
"61 401 CURVE SMOOTH",
"64 456 OFFCURVE",
"104 498 OFFCURVE",
"93 527 CURVE SMOOTH",
"80 561 OFFCURVE",
"35 539 OFFCURVE",
"8 557 CURVE SMOOTH"
);
}
);
width = 1224;
}
);
},
